G04 #@! TF.GenerationSoftware,KiCad,Pcbnew,(5.1.4)-1*
G04 #@! TF.CreationDate,2020-03-13T09:19:57+01:00*
G04 #@! TF.ProjectId,BLDC_4,424c4443-5f34-42e6-9b69-6361645f7063,rev?*
G04 #@! TF.SameCoordinates,Original*
G04 #@! TF.FileFunction,Soldermask,Bot*
G04 #@! TF.FilePolarity,Negative*
%FSLAX46Y46*%
G04 Gerber Fmt 4.6, Leading zero omitted, Abs format (unit mm)*
G04 Created by KiCad (PCBNEW (5.1.4)-1) date 2020-03-13 09:19:57*
%MOMM*%
%LPD*%
G04 APERTURE LIST*
%ADD10C,0.100000*%
G04 APERTURE END LIST*
D10*
G36*
X135532621Y-88143682D02*
G01*
X135645721Y-88177990D01*
X135749955Y-88233704D01*
X135841317Y-88308683D01*
X135916296Y-88400045D01*
X135972010Y-88504279D01*
X136006318Y-88617379D01*
X136017903Y-88735000D01*
X136006318Y-88852621D01*
X135972010Y-88965721D01*
X135916296Y-89069955D01*
X135841317Y-89161317D01*
X135749955Y-89236296D01*
X135645721Y-89292010D01*
X135532621Y-89326318D01*
X135444474Y-89335000D01*
X134835526Y-89335000D01*
X134747379Y-89326318D01*
X134634279Y-89292010D01*
X134530045Y-89236296D01*
X134438683Y-89161317D01*
X134363704Y-89069955D01*
X134307990Y-88965721D01*
X134273682Y-88852621D01*
X134262097Y-88735000D01*
X134273682Y-88617379D01*
X134307990Y-88504279D01*
X134363704Y-88400045D01*
X134438683Y-88308683D01*
X134530045Y-88233704D01*
X134634279Y-88177990D01*
X134747379Y-88143682D01*
X134835526Y-88135000D01*
X135444474Y-88135000D01*
X135532621Y-88143682D01*
X135532621Y-88143682D01*
G37*
G36*
X135532621Y-86143682D02*
G01*
X135645721Y-86177990D01*
X135749955Y-86233704D01*
X135841317Y-86308683D01*
X135916296Y-86400045D01*
X135972010Y-86504279D01*
X136006318Y-86617379D01*
X136017903Y-86735000D01*
X136006318Y-86852621D01*
X135972010Y-86965721D01*
X135916296Y-87069955D01*
X135841317Y-87161317D01*
X135749955Y-87236296D01*
X135645721Y-87292010D01*
X135532621Y-87326318D01*
X135444474Y-87335000D01*
X134835526Y-87335000D01*
X134747379Y-87326318D01*
X134634279Y-87292010D01*
X134530045Y-87236296D01*
X134438683Y-87161317D01*
X134363704Y-87069955D01*
X134307990Y-86965721D01*
X134273682Y-86852621D01*
X134262097Y-86735000D01*
X134273682Y-86617379D01*
X134307990Y-86504279D01*
X134363704Y-86400045D01*
X134438683Y-86308683D01*
X134530045Y-86233704D01*
X134634279Y-86177990D01*
X134747379Y-86143682D01*
X134835526Y-86135000D01*
X135444474Y-86135000D01*
X135532621Y-86143682D01*
X135532621Y-86143682D01*
G37*
G36*
X135532621Y-84143682D02*
G01*
X135645721Y-84177990D01*
X135749955Y-84233704D01*
X135841317Y-84308683D01*
X135916296Y-84400045D01*
X135972010Y-84504279D01*
X136006318Y-84617379D01*
X136017903Y-84735000D01*
X136006318Y-84852621D01*
X135972010Y-84965721D01*
X135916296Y-85069955D01*
X135841317Y-85161317D01*
X135749955Y-85236296D01*
X135645721Y-85292010D01*
X135532621Y-85326318D01*
X135444474Y-85335000D01*
X134835526Y-85335000D01*
X134747379Y-85326318D01*
X134634279Y-85292010D01*
X134530045Y-85236296D01*
X134438683Y-85161317D01*
X134363704Y-85069955D01*
X134307990Y-84965721D01*
X134273682Y-84852621D01*
X134262097Y-84735000D01*
X134273682Y-84617379D01*
X134307990Y-84504279D01*
X134363704Y-84400045D01*
X134438683Y-84308683D01*
X134530045Y-84233704D01*
X134634279Y-84177990D01*
X134747379Y-84143682D01*
X134835526Y-84135000D01*
X135444474Y-84135000D01*
X135532621Y-84143682D01*
X135532621Y-84143682D01*
G37*
G36*
X135532621Y-82143682D02*
G01*
X135645721Y-82177990D01*
X135749955Y-82233704D01*
X135841317Y-82308683D01*
X135916296Y-82400045D01*
X135972010Y-82504279D01*
X136006318Y-82617379D01*
X136017903Y-82735000D01*
X136006318Y-82852621D01*
X135972010Y-82965721D01*
X135916296Y-83069955D01*
X135841317Y-83161317D01*
X135749955Y-83236296D01*
X135645721Y-83292010D01*
X135532621Y-83326318D01*
X135444474Y-83335000D01*
X134835526Y-83335000D01*
X134747379Y-83326318D01*
X134634279Y-83292010D01*
X134530045Y-83236296D01*
X134438683Y-83161317D01*
X134363704Y-83069955D01*
X134307990Y-82965721D01*
X134273682Y-82852621D01*
X134262097Y-82735000D01*
X134273682Y-82617379D01*
X134307990Y-82504279D01*
X134363704Y-82400045D01*
X134438683Y-82308683D01*
X134530045Y-82233704D01*
X134634279Y-82177990D01*
X134747379Y-82143682D01*
X134835526Y-82135000D01*
X135444474Y-82135000D01*
X135532621Y-82143682D01*
X135532621Y-82143682D01*
G37*
G36*
X135532621Y-80143682D02*
G01*
X135645721Y-80177990D01*
X135749955Y-80233704D01*
X135841317Y-80308683D01*
X135916296Y-80400045D01*
X135972010Y-80504279D01*
X136006318Y-80617379D01*
X136017903Y-80735000D01*
X136006318Y-80852621D01*
X135972010Y-80965721D01*
X135916296Y-81069955D01*
X135841317Y-81161317D01*
X135749955Y-81236296D01*
X135645721Y-81292010D01*
X135532621Y-81326318D01*
X135444474Y-81335000D01*
X134835526Y-81335000D01*
X134747379Y-81326318D01*
X134634279Y-81292010D01*
X134530045Y-81236296D01*
X134438683Y-81161317D01*
X134363704Y-81069955D01*
X134307990Y-80965721D01*
X134273682Y-80852621D01*
X134262097Y-80735000D01*
X134273682Y-80617379D01*
X134307990Y-80504279D01*
X134363704Y-80400045D01*
X134438683Y-80308683D01*
X134530045Y-80233704D01*
X134634279Y-80177990D01*
X134747379Y-80143682D01*
X134835526Y-80135000D01*
X135444474Y-80135000D01*
X135532621Y-80143682D01*
X135532621Y-80143682D01*
G37*
G36*
X135532621Y-78143682D02*
G01*
X135645721Y-78177990D01*
X135749955Y-78233704D01*
X135841317Y-78308683D01*
X135916296Y-78400045D01*
X135972010Y-78504279D01*
X136006318Y-78617379D01*
X136017903Y-78735000D01*
X136006318Y-78852621D01*
X135972010Y-78965721D01*
X135916296Y-79069955D01*
X135841317Y-79161317D01*
X135749955Y-79236296D01*
X135645721Y-79292010D01*
X135532621Y-79326318D01*
X135444474Y-79335000D01*
X134835526Y-79335000D01*
X134747379Y-79326318D01*
X134634279Y-79292010D01*
X134530045Y-79236296D01*
X134438683Y-79161317D01*
X134363704Y-79069955D01*
X134307990Y-78965721D01*
X134273682Y-78852621D01*
X134262097Y-78735000D01*
X134273682Y-78617379D01*
X134307990Y-78504279D01*
X134363704Y-78400045D01*
X134438683Y-78308683D01*
X134530045Y-78233704D01*
X134634279Y-78177990D01*
X134747379Y-78143682D01*
X134835526Y-78135000D01*
X135444474Y-78135000D01*
X135532621Y-78143682D01*
X135532621Y-78143682D01*
G37*
G36*
X135872345Y-76138995D02*
G01*
X135905451Y-76149038D01*
X135935964Y-76165347D01*
X135962706Y-76187294D01*
X135984653Y-76214036D01*
X136000962Y-76244549D01*
X136011005Y-76277655D01*
X136015000Y-76318221D01*
X136015000Y-77151779D01*
X136011005Y-77192345D01*
X136000962Y-77225451D01*
X135984653Y-77255964D01*
X135962706Y-77282706D01*
X135935964Y-77304653D01*
X135905451Y-77320962D01*
X135872345Y-77331005D01*
X135831779Y-77335000D01*
X134448221Y-77335000D01*
X134407655Y-77331005D01*
X134374549Y-77320962D01*
X134344036Y-77304653D01*
X134317294Y-77282706D01*
X134295347Y-77255964D01*
X134279038Y-77225451D01*
X134268995Y-77192345D01*
X134265000Y-77151779D01*
X134265000Y-76318221D01*
X134268995Y-76277655D01*
X134279038Y-76244549D01*
X134295347Y-76214036D01*
X134317294Y-76187294D01*
X134344036Y-76165347D01*
X134374549Y-76149038D01*
X134407655Y-76138995D01*
X134448221Y-76135000D01*
X135831779Y-76135000D01*
X135872345Y-76138995D01*
X135872345Y-76138995D01*
G37*
G36*
X141617620Y-65883682D02*
G01*
X141730720Y-65917990D01*
X141834954Y-65973704D01*
X141926317Y-66048683D01*
X142001296Y-66140045D01*
X142057010Y-66244279D01*
X142091318Y-66357379D01*
X142100000Y-66445526D01*
X142100000Y-67054474D01*
X142091318Y-67142621D01*
X142057010Y-67255721D01*
X142001296Y-67359955D01*
X141926317Y-67451317D01*
X141834955Y-67526296D01*
X141730721Y-67582010D01*
X141617621Y-67616318D01*
X141500000Y-67627903D01*
X141382380Y-67616318D01*
X141269280Y-67582010D01*
X141165046Y-67526296D01*
X141073684Y-67451317D01*
X140998705Y-67359955D01*
X140942990Y-67255721D01*
X140908682Y-67142621D01*
X140900000Y-67054474D01*
X140900000Y-66445527D01*
X140908682Y-66357380D01*
X140942990Y-66244280D01*
X140998704Y-66140046D01*
X141073683Y-66048683D01*
X141165045Y-65973704D01*
X141269279Y-65917990D01*
X141382379Y-65883682D01*
X141500000Y-65872097D01*
X141617620Y-65883682D01*
X141617620Y-65883682D01*
G37*
G36*
X145617620Y-65883682D02*
G01*
X145730720Y-65917990D01*
X145834954Y-65973704D01*
X145926317Y-66048683D01*
X146001296Y-66140045D01*
X146057010Y-66244279D01*
X146091318Y-66357379D01*
X146100000Y-66445526D01*
X146100000Y-67054474D01*
X146091318Y-67142621D01*
X146057010Y-67255721D01*
X146001296Y-67359955D01*
X145926317Y-67451317D01*
X145834955Y-67526296D01*
X145730721Y-67582010D01*
X145617621Y-67616318D01*
X145500000Y-67627903D01*
X145382380Y-67616318D01*
X145269280Y-67582010D01*
X145165046Y-67526296D01*
X145073684Y-67451317D01*
X144998705Y-67359955D01*
X144942990Y-67255721D01*
X144908682Y-67142621D01*
X144900000Y-67054474D01*
X144900000Y-66445527D01*
X144908682Y-66357380D01*
X144942990Y-66244280D01*
X144998704Y-66140046D01*
X145073683Y-66048683D01*
X145165045Y-65973704D01*
X145269279Y-65917990D01*
X145382379Y-65883682D01*
X145500000Y-65872097D01*
X145617620Y-65883682D01*
X145617620Y-65883682D01*
G37*
G36*
X147617620Y-65883682D02*
G01*
X147730720Y-65917990D01*
X147834954Y-65973704D01*
X147926317Y-66048683D01*
X148001296Y-66140045D01*
X148057010Y-66244279D01*
X148091318Y-66357379D01*
X148100000Y-66445526D01*
X148100000Y-67054474D01*
X148091318Y-67142621D01*
X148057010Y-67255721D01*
X148001296Y-67359955D01*
X147926317Y-67451317D01*
X147834955Y-67526296D01*
X147730721Y-67582010D01*
X147617621Y-67616318D01*
X147500000Y-67627903D01*
X147382380Y-67616318D01*
X147269280Y-67582010D01*
X147165046Y-67526296D01*
X147073684Y-67451317D01*
X146998705Y-67359955D01*
X146942990Y-67255721D01*
X146908682Y-67142621D01*
X146900000Y-67054474D01*
X146900000Y-66445527D01*
X146908682Y-66357380D01*
X146942990Y-66244280D01*
X146998704Y-66140046D01*
X147073683Y-66048683D01*
X147165045Y-65973704D01*
X147269279Y-65917990D01*
X147382379Y-65883682D01*
X147500000Y-65872097D01*
X147617620Y-65883682D01*
X147617620Y-65883682D01*
G37*
G36*
X143617620Y-65883682D02*
G01*
X143730720Y-65917990D01*
X143834954Y-65973704D01*
X143926317Y-66048683D01*
X144001296Y-66140045D01*
X144057010Y-66244279D01*
X144091318Y-66357379D01*
X144100000Y-66445526D01*
X144100000Y-67054474D01*
X144091318Y-67142621D01*
X144057010Y-67255721D01*
X144001296Y-67359955D01*
X143926317Y-67451317D01*
X143834955Y-67526296D01*
X143730721Y-67582010D01*
X143617621Y-67616318D01*
X143500000Y-67627903D01*
X143382380Y-67616318D01*
X143269280Y-67582010D01*
X143165046Y-67526296D01*
X143073684Y-67451317D01*
X142998705Y-67359955D01*
X142942990Y-67255721D01*
X142908682Y-67142621D01*
X142900000Y-67054474D01*
X142900000Y-66445527D01*
X142908682Y-66357380D01*
X142942990Y-66244280D01*
X142998704Y-66140046D01*
X143073683Y-66048683D01*
X143165045Y-65973704D01*
X143269279Y-65917990D01*
X143382379Y-65883682D01*
X143500000Y-65872097D01*
X143617620Y-65883682D01*
X143617620Y-65883682D01*
G37*
G36*
X139617620Y-65883682D02*
G01*
X139730720Y-65917990D01*
X139834954Y-65973704D01*
X139926317Y-66048683D01*
X140001296Y-66140045D01*
X140057010Y-66244279D01*
X140091318Y-66357379D01*
X140100000Y-66445526D01*
X140100000Y-67054474D01*
X140091318Y-67142621D01*
X140057010Y-67255721D01*
X140001296Y-67359955D01*
X139926317Y-67451317D01*
X139834955Y-67526296D01*
X139730721Y-67582010D01*
X139617621Y-67616318D01*
X139500000Y-67627903D01*
X139382380Y-67616318D01*
X139269280Y-67582010D01*
X139165046Y-67526296D01*
X139073684Y-67451317D01*
X138998705Y-67359955D01*
X138942990Y-67255721D01*
X138908682Y-67142621D01*
X138900000Y-67054474D01*
X138900000Y-66445527D01*
X138908682Y-66357380D01*
X138942990Y-66244280D01*
X138998704Y-66140046D01*
X139073683Y-66048683D01*
X139165045Y-65973704D01*
X139269279Y-65917990D01*
X139382379Y-65883682D01*
X139500000Y-65872097D01*
X139617620Y-65883682D01*
X139617620Y-65883682D01*
G37*
G36*
X137957345Y-65878995D02*
G01*
X137990451Y-65889038D01*
X138020964Y-65905347D01*
X138047706Y-65927294D01*
X138069653Y-65954036D01*
X138085962Y-65984549D01*
X138096005Y-66017655D01*
X138100000Y-66058221D01*
X138100000Y-67441779D01*
X138096005Y-67482345D01*
X138085962Y-67515451D01*
X138069653Y-67545964D01*
X138047706Y-67572706D01*
X138020964Y-67594653D01*
X137990451Y-67610962D01*
X137957345Y-67621005D01*
X137916779Y-67625000D01*
X137083221Y-67625000D01*
X137042655Y-67621005D01*
X137009549Y-67610962D01*
X136979036Y-67594653D01*
X136952294Y-67572706D01*
X136930347Y-67545964D01*
X136914038Y-67515451D01*
X136903995Y-67482345D01*
X136900000Y-67441779D01*
X136900000Y-66058221D01*
X136903995Y-66017655D01*
X136914038Y-65984549D01*
X136930347Y-65954036D01*
X136952294Y-65927294D01*
X136979036Y-65905347D01*
X137009549Y-65889038D01*
X137042655Y-65878995D01*
X137083221Y-65875000D01*
X137916779Y-65875000D01*
X137957345Y-65878995D01*
X137957345Y-65878995D01*
G37*
G36*
X152261627Y-65467299D02*
G01*
X152341742Y-65491601D01*
X152421855Y-65515903D01*
X152421857Y-65515904D01*
X152569518Y-65594831D01*
X152698949Y-65701051D01*
X152805169Y-65830482D01*
X152851943Y-65917990D01*
X152884097Y-65978145D01*
X152886512Y-65986107D01*
X152932701Y-66138373D01*
X152949112Y-66305000D01*
X152932701Y-66471627D01*
X152884096Y-66631857D01*
X152805169Y-66779518D01*
X152698949Y-66908949D01*
X152569518Y-67015169D01*
X152495997Y-67054467D01*
X152421855Y-67094097D01*
X152341742Y-67118398D01*
X152261627Y-67142701D01*
X152136752Y-67155000D01*
X152053248Y-67155000D01*
X151928373Y-67142701D01*
X151848258Y-67118399D01*
X151768145Y-67094097D01*
X151694003Y-67054467D01*
X151620482Y-67015169D01*
X151491051Y-66908949D01*
X151384831Y-66779518D01*
X151305904Y-66631857D01*
X151257299Y-66471627D01*
X151240888Y-66305000D01*
X151257299Y-66138373D01*
X151303488Y-65986107D01*
X151305903Y-65978145D01*
X151338057Y-65917990D01*
X151384831Y-65830482D01*
X151491051Y-65701051D01*
X151620482Y-65594831D01*
X151768143Y-65515904D01*
X151768145Y-65515903D01*
X151848258Y-65491601D01*
X151928373Y-65467299D01*
X152053248Y-65455000D01*
X152136752Y-65455000D01*
X152261627Y-65467299D01*
X152261627Y-65467299D01*
G37*
G36*
X154801627Y-65467299D02*
G01*
X154881742Y-65491601D01*
X154961855Y-65515903D01*
X154961857Y-65515904D01*
X155109518Y-65594831D01*
X155238949Y-65701051D01*
X155345169Y-65830482D01*
X155391943Y-65917990D01*
X155424097Y-65978145D01*
X155426512Y-65986107D01*
X155472701Y-66138373D01*
X155489112Y-66305000D01*
X155472701Y-66471627D01*
X155424096Y-66631857D01*
X155345169Y-66779518D01*
X155238949Y-66908949D01*
X155109518Y-67015169D01*
X155035997Y-67054467D01*
X154961855Y-67094097D01*
X154881742Y-67118398D01*
X154801627Y-67142701D01*
X154676752Y-67155000D01*
X154593248Y-67155000D01*
X154468373Y-67142701D01*
X154388258Y-67118399D01*
X154308145Y-67094097D01*
X154234003Y-67054467D01*
X154160482Y-67015169D01*
X154031051Y-66908949D01*
X153924831Y-66779518D01*
X153845904Y-66631857D01*
X153797299Y-66471627D01*
X153780888Y-66305000D01*
X153797299Y-66138373D01*
X153843488Y-65986107D01*
X153845903Y-65978145D01*
X153878057Y-65917990D01*
X153924831Y-65830482D01*
X154031051Y-65701051D01*
X154160482Y-65594831D01*
X154308143Y-65515904D01*
X154308145Y-65515903D01*
X154388258Y-65491601D01*
X154468373Y-65467299D01*
X154593248Y-65455000D01*
X154676752Y-65455000D01*
X154801627Y-65467299D01*
X154801627Y-65467299D01*
G37*
G36*
X157341627Y-65467299D02*
G01*
X157421742Y-65491601D01*
X157501855Y-65515903D01*
X157501857Y-65515904D01*
X157649518Y-65594831D01*
X157778949Y-65701051D01*
X157885169Y-65830482D01*
X157931943Y-65917990D01*
X157964097Y-65978145D01*
X157966512Y-65986107D01*
X158012701Y-66138373D01*
X158029112Y-66305000D01*
X158012701Y-66471627D01*
X157964096Y-66631857D01*
X157885169Y-66779518D01*
X157778949Y-66908949D01*
X157649518Y-67015169D01*
X157575997Y-67054467D01*
X157501855Y-67094097D01*
X157421742Y-67118398D01*
X157341627Y-67142701D01*
X157216752Y-67155000D01*
X157133248Y-67155000D01*
X157008373Y-67142701D01*
X156928258Y-67118399D01*
X156848145Y-67094097D01*
X156774003Y-67054467D01*
X156700482Y-67015169D01*
X156571051Y-66908949D01*
X156464831Y-66779518D01*
X156385904Y-66631857D01*
X156337299Y-66471627D01*
X156320888Y-66305000D01*
X156337299Y-66138373D01*
X156383488Y-65986107D01*
X156385903Y-65978145D01*
X156418057Y-65917990D01*
X156464831Y-65830482D01*
X156571051Y-65701051D01*
X156700482Y-65594831D01*
X156848143Y-65515904D01*
X156848145Y-65515903D01*
X156928258Y-65491601D01*
X157008373Y-65467299D01*
X157133248Y-65455000D01*
X157216752Y-65455000D01*
X157341627Y-65467299D01*
X157341627Y-65467299D01*
G37*
G36*
X160565000Y-67155000D02*
G01*
X158865000Y-67155000D01*
X158865000Y-65455000D01*
X160565000Y-65455000D01*
X160565000Y-67155000D01*
X160565000Y-67155000D01*
G37*
M02*
