G04 #@! TF.GenerationSoftware,KiCad,Pcbnew,(5.1.4)-1*
G04 #@! TF.CreationDate,2019-11-08T14:44:36+01:00*
G04 #@! TF.ProjectId,BLDC_4,424c4443-5f34-42e6-9b69-6361645f7063,rev?*
G04 #@! TF.SameCoordinates,Original*
G04 #@! TF.FileFunction,Legend,Top*
G04 #@! TF.FilePolarity,Positive*
%FSLAX46Y46*%
G04 Gerber Fmt 4.6, Leading zero omitted, Abs format (unit mm)*
G04 Created by KiCad (PCBNEW (5.1.4)-1) date 2019-11-08 14:44:36*
%MOMM*%
%LPD*%
G04 APERTURE LIST*
%ADD10C,0.150000*%
%ADD11C,0.200000*%
%ADD12C,0.120000*%
%ADD13C,0.381000*%
%ADD14C,0.304800*%
G04 APERTURE END LIST*
D10*
X156122857Y-99623571D02*
X156265714Y-99671190D01*
X156313333Y-99718809D01*
X156360952Y-99814047D01*
X156360952Y-99956904D01*
X156313333Y-100052142D01*
X156265714Y-100099761D01*
X156170476Y-100147380D01*
X155789523Y-100147380D01*
X155789523Y-99147380D01*
X156122857Y-99147380D01*
X156218095Y-99195000D01*
X156265714Y-99242619D01*
X156313333Y-99337857D01*
X156313333Y-99433095D01*
X156265714Y-99528333D01*
X156218095Y-99575952D01*
X156122857Y-99623571D01*
X155789523Y-99623571D01*
X156741904Y-99861666D02*
X157218095Y-99861666D01*
X156646666Y-100147380D02*
X156980000Y-99147380D01*
X157313333Y-100147380D01*
X157503809Y-99147380D02*
X158075238Y-99147380D01*
X157789523Y-100147380D02*
X157789523Y-99147380D01*
X158408571Y-99766428D02*
X159170476Y-99766428D01*
X158789523Y-100147380D02*
X158789523Y-99385476D01*
D11*
X138938095Y-99195000D02*
X138842857Y-99147380D01*
X138700000Y-99147380D01*
X138557142Y-99195000D01*
X138461904Y-99290238D01*
X138414285Y-99385476D01*
X138366666Y-99575952D01*
X138366666Y-99718809D01*
X138414285Y-99909285D01*
X138461904Y-100004523D01*
X138557142Y-100099761D01*
X138700000Y-100147380D01*
X138795238Y-100147380D01*
X138938095Y-100099761D01*
X138985714Y-100052142D01*
X138985714Y-99718809D01*
X138795238Y-99718809D01*
X139414285Y-100147380D02*
X139414285Y-99147380D01*
X139985714Y-100147380D01*
X139985714Y-99147380D01*
X140461904Y-100147380D02*
X140461904Y-99147380D01*
X140700000Y-99147380D01*
X140842857Y-99195000D01*
X140938095Y-99290238D01*
X140985714Y-99385476D01*
X141033333Y-99575952D01*
X141033333Y-99718809D01*
X140985714Y-99909285D01*
X140938095Y-100004523D01*
X140842857Y-100099761D01*
X140700000Y-100147380D01*
X140461904Y-100147380D01*
D12*
X146655000Y-72675000D02*
X145315000Y-72675000D01*
X146655000Y-71725000D02*
X146655000Y-72675000D01*
X147605000Y-71725000D02*
X146655000Y-71725000D01*
X156875000Y-71725000D02*
X156875000Y-72675000D01*
X155925000Y-71725000D02*
X156875000Y-71725000D01*
X146655000Y-81945000D02*
X146655000Y-80995000D01*
X147605000Y-81945000D02*
X146655000Y-81945000D01*
X156875000Y-81945000D02*
X156875000Y-80995000D01*
X155925000Y-81945000D02*
X156875000Y-81945000D01*
X164975000Y-62702221D02*
X164975000Y-63027779D01*
X163955000Y-62702221D02*
X163955000Y-63027779D01*
X186180000Y-73436267D02*
X186180000Y-73093733D01*
X187200000Y-73436267D02*
X187200000Y-73093733D01*
X144090000Y-69740000D02*
X140390000Y-69740000D01*
X140390000Y-69740000D02*
X140390000Y-75040000D01*
X183750000Y-58130000D02*
X183750000Y-64140000D01*
X176930000Y-60380000D02*
X176930000Y-64140000D01*
X183750000Y-64140000D02*
X182490000Y-64140000D01*
X176930000Y-64140000D02*
X178190000Y-64140000D01*
D10*
X176530000Y-82055000D02*
X182880000Y-82055000D01*
X175455000Y-67730000D02*
X182880000Y-67730000D01*
X176530000Y-82055000D02*
X176530000Y-82047500D01*
X182880000Y-82055000D02*
X182880000Y-82047500D01*
X182880000Y-67805000D02*
X182880000Y-67812500D01*
D12*
X179195000Y-90007221D02*
X179195000Y-90332779D01*
X180215000Y-90007221D02*
X180215000Y-90332779D01*
X205230000Y-100802221D02*
X205230000Y-101127779D01*
X206250000Y-100802221D02*
X206250000Y-101127779D01*
X176655000Y-90007221D02*
X176655000Y-90332779D01*
X177675000Y-90007221D02*
X177675000Y-90332779D01*
X207135000Y-100802221D02*
X207135000Y-101127779D01*
X208155000Y-100802221D02*
X208155000Y-101127779D01*
X174115000Y-90007221D02*
X174115000Y-90332779D01*
X175135000Y-90007221D02*
X175135000Y-90332779D01*
X209040000Y-100802221D02*
X209040000Y-101127779D01*
X210060000Y-100802221D02*
X210060000Y-101127779D01*
X181485000Y-84770279D02*
X181485000Y-84444721D01*
X180465000Y-84770279D02*
X180465000Y-84444721D01*
X176655000Y-84444721D02*
X176655000Y-84770279D01*
X177675000Y-84444721D02*
X177675000Y-84770279D01*
X191297779Y-85600000D02*
X190972221Y-85600000D01*
X191297779Y-84580000D02*
X190972221Y-84580000D01*
X191297779Y-82675000D02*
X190972221Y-82675000D01*
X191297779Y-83695000D02*
X190972221Y-83695000D01*
X194625279Y-61085000D02*
X194299721Y-61085000D01*
X194625279Y-62105000D02*
X194299721Y-62105000D01*
X174507999Y-65762221D02*
X174507999Y-66087779D01*
X175527999Y-65762221D02*
X175527999Y-66087779D01*
X171960000Y-65724721D02*
X171960000Y-66050279D01*
X170940000Y-65724721D02*
X170940000Y-66050279D01*
X172882779Y-72900000D02*
X172557221Y-72900000D01*
X172882779Y-71880000D02*
X172557221Y-71880000D01*
X172882779Y-70995000D02*
X172557221Y-70995000D01*
X172882779Y-69975000D02*
X172557221Y-69975000D01*
X172404721Y-68070000D02*
X172730279Y-68070000D01*
X172404721Y-69090000D02*
X172730279Y-69090000D01*
X204150279Y-97915000D02*
X203824721Y-97915000D01*
X204150279Y-98935000D02*
X203824721Y-98935000D01*
X200340279Y-98550000D02*
X200014721Y-98550000D01*
X200340279Y-99570000D02*
X200014721Y-99570000D01*
X200340279Y-92200000D02*
X200014721Y-92200000D01*
X200340279Y-93220000D02*
X200014721Y-93220000D01*
X200150000Y-84292221D02*
X200150000Y-84617779D01*
X201170000Y-84292221D02*
X201170000Y-84617779D01*
X200670279Y-88390000D02*
X200344721Y-88390000D01*
X200670279Y-89410000D02*
X200344721Y-89410000D01*
X200670279Y-86485000D02*
X200344721Y-86485000D01*
X200670279Y-87505000D02*
X200344721Y-87505000D01*
X204150279Y-81155000D02*
X203824721Y-81155000D01*
X204150279Y-80135000D02*
X203824721Y-80135000D01*
X200035279Y-81790000D02*
X199709721Y-81790000D01*
X200035279Y-80770000D02*
X199709721Y-80770000D01*
X200187779Y-75440000D02*
X199862221Y-75440000D01*
X200187779Y-74420000D02*
X199862221Y-74420000D01*
X143982221Y-89410000D02*
X144307779Y-89410000D01*
X143982221Y-88390000D02*
X144307779Y-88390000D01*
X143982221Y-85600000D02*
X144307779Y-85600000D01*
X143982221Y-84580000D02*
X144307779Y-84580000D01*
X143982221Y-87505000D02*
X144307779Y-87505000D01*
X143982221Y-86485000D02*
X144307779Y-86485000D01*
X158875000Y-63027779D02*
X158875000Y-62702221D01*
X159895000Y-63027779D02*
X159895000Y-62702221D01*
X161415000Y-63027779D02*
X161415000Y-62702221D01*
X162435000Y-63027779D02*
X162435000Y-62702221D01*
X152525000Y-87157779D02*
X152525000Y-86832221D01*
X153545000Y-87157779D02*
X153545000Y-86832221D01*
X150620000Y-87157779D02*
X150620000Y-86832221D01*
X151640000Y-87157779D02*
X151640000Y-86832221D01*
X205415000Y-94855000D02*
X205415000Y-96315000D01*
X202255000Y-94855000D02*
X202255000Y-97015000D01*
X202255000Y-94855000D02*
X203185000Y-94855000D01*
X205415000Y-94855000D02*
X204485000Y-94855000D01*
X205415000Y-91045000D02*
X205415000Y-92505000D01*
X202255000Y-91045000D02*
X202255000Y-93205000D01*
X202255000Y-91045000D02*
X203185000Y-91045000D01*
X205415000Y-91045000D02*
X204485000Y-91045000D01*
X205415000Y-87235000D02*
X205415000Y-88695000D01*
X202255000Y-87235000D02*
X202255000Y-89395000D01*
X202255000Y-87235000D02*
X203185000Y-87235000D01*
X205415000Y-87235000D02*
X204485000Y-87235000D01*
X205415000Y-83425000D02*
X205415000Y-84885000D01*
X202255000Y-83425000D02*
X202255000Y-85585000D01*
X202255000Y-83425000D02*
X203185000Y-83425000D01*
X205415000Y-83425000D02*
X204485000Y-83425000D01*
X205415000Y-77345000D02*
X204485000Y-77345000D01*
X202255000Y-77345000D02*
X203185000Y-77345000D01*
X202255000Y-77345000D02*
X202255000Y-79505000D01*
X205415000Y-77345000D02*
X205415000Y-78805000D01*
X205415000Y-73535000D02*
X204485000Y-73535000D01*
X202255000Y-73535000D02*
X203185000Y-73535000D01*
X202255000Y-73535000D02*
X202255000Y-75695000D01*
X205415000Y-73535000D02*
X205415000Y-74995000D01*
X138515000Y-56945000D02*
X138515000Y-58195000D01*
X139765000Y-56945000D02*
X138515000Y-56945000D01*
X149875000Y-61355000D02*
X149875000Y-60855000D01*
X149975000Y-60855000D02*
X149975000Y-61355000D01*
X149775000Y-60855000D02*
X149975000Y-60855000D01*
X149775000Y-61355000D02*
X149775000Y-60855000D01*
X147875000Y-61355000D02*
X147875000Y-60855000D01*
X147975000Y-60855000D02*
X147975000Y-61355000D01*
X147775000Y-60855000D02*
X147975000Y-60855000D01*
X147775000Y-61355000D02*
X147775000Y-60855000D01*
X145875000Y-61355000D02*
X145875000Y-60855000D01*
X145975000Y-60855000D02*
X145975000Y-61355000D01*
X145775000Y-60855000D02*
X145975000Y-60855000D01*
X145775000Y-61355000D02*
X145775000Y-60855000D01*
X143875000Y-61355000D02*
X143875000Y-60855000D01*
X143975000Y-60855000D02*
X143975000Y-61355000D01*
X143775000Y-60855000D02*
X143975000Y-60855000D01*
X143775000Y-61355000D02*
X143775000Y-60855000D01*
X141875000Y-61355000D02*
X141875000Y-60855000D01*
X141975000Y-60855000D02*
X141975000Y-61355000D01*
X141775000Y-60855000D02*
X141975000Y-60855000D01*
X141775000Y-61355000D02*
X141775000Y-60855000D01*
X152935000Y-59855000D02*
X152325000Y-59855000D01*
X152935000Y-58555000D02*
X152325000Y-58555000D01*
X138815000Y-59855000D02*
X139425000Y-59855000D01*
X138815000Y-58555000D02*
X139425000Y-58555000D01*
X150375000Y-57855000D02*
X150375000Y-57245000D01*
X152325000Y-57855000D02*
X150375000Y-57855000D01*
X152325000Y-61355000D02*
X152325000Y-57855000D01*
X139425000Y-61355000D02*
X152325000Y-61355000D01*
X139425000Y-57855000D02*
X139425000Y-61355000D01*
X141375000Y-57855000D02*
X139425000Y-57855000D01*
X141375000Y-57245000D02*
X141375000Y-57855000D01*
X140575000Y-57145000D02*
X140275000Y-57145000D01*
X140275000Y-57045000D02*
X140275000Y-57245000D01*
X140575000Y-57045000D02*
X140275000Y-57045000D01*
X140575000Y-57245000D02*
X140575000Y-57045000D01*
X152935000Y-57245000D02*
X138815000Y-57245000D01*
X152935000Y-61965000D02*
X152935000Y-57245000D01*
X138815000Y-61965000D02*
X152935000Y-61965000D01*
X138815000Y-57245000D02*
X138815000Y-61965000D01*
X138000000Y-68125000D02*
X136750000Y-68125000D01*
X138000000Y-69375000D02*
X138000000Y-68125000D01*
X133590000Y-81485000D02*
X134090000Y-81485000D01*
X134090000Y-81585000D02*
X133590000Y-81585000D01*
X134090000Y-81385000D02*
X134090000Y-81585000D01*
X133590000Y-81385000D02*
X134090000Y-81385000D01*
X133590000Y-79485000D02*
X134090000Y-79485000D01*
X134090000Y-79585000D02*
X133590000Y-79585000D01*
X134090000Y-79385000D02*
X134090000Y-79585000D01*
X133590000Y-79385000D02*
X134090000Y-79385000D01*
X133590000Y-77485000D02*
X134090000Y-77485000D01*
X134090000Y-77585000D02*
X133590000Y-77585000D01*
X134090000Y-77385000D02*
X134090000Y-77585000D01*
X133590000Y-77385000D02*
X134090000Y-77385000D01*
X133590000Y-75485000D02*
X134090000Y-75485000D01*
X134090000Y-75585000D02*
X133590000Y-75585000D01*
X134090000Y-75385000D02*
X134090000Y-75585000D01*
X133590000Y-75385000D02*
X134090000Y-75385000D01*
X133590000Y-73485000D02*
X134090000Y-73485000D01*
X134090000Y-73585000D02*
X133590000Y-73585000D01*
X134090000Y-73385000D02*
X134090000Y-73585000D01*
X133590000Y-73385000D02*
X134090000Y-73385000D01*
X133590000Y-71485000D02*
X134090000Y-71485000D01*
X134090000Y-71585000D02*
X133590000Y-71585000D01*
X134090000Y-71385000D02*
X134090000Y-71585000D01*
X133590000Y-71385000D02*
X134090000Y-71385000D01*
X135090000Y-84545000D02*
X135090000Y-83935000D01*
X136390000Y-84545000D02*
X136390000Y-83935000D01*
X135090000Y-68425000D02*
X135090000Y-69035000D01*
X136390000Y-68425000D02*
X136390000Y-69035000D01*
X137090000Y-81985000D02*
X137700000Y-81985000D01*
X137090000Y-83935000D02*
X137090000Y-81985000D01*
X133590000Y-83935000D02*
X137090000Y-83935000D01*
X133590000Y-69035000D02*
X133590000Y-83935000D01*
X137090000Y-69035000D02*
X133590000Y-69035000D01*
X137090000Y-70985000D02*
X137090000Y-69035000D01*
X137700000Y-70985000D02*
X137090000Y-70985000D01*
X137800000Y-70185000D02*
X137800000Y-69885000D01*
X137900000Y-69885000D02*
X137700000Y-69885000D01*
X137900000Y-70185000D02*
X137900000Y-69885000D01*
X137700000Y-70185000D02*
X137900000Y-70185000D01*
X137700000Y-84545000D02*
X137700000Y-68425000D01*
X132980000Y-84545000D02*
X137700000Y-84545000D01*
X132980000Y-68425000D02*
X132980000Y-84545000D01*
X137700000Y-68425000D02*
X132980000Y-68425000D01*
X155515000Y-57725000D02*
X155515000Y-60385000D01*
X163195000Y-57725000D02*
X155515000Y-57725000D01*
X163195000Y-60385000D02*
X155515000Y-60385000D01*
X163195000Y-57725000D02*
X163195000Y-60385000D01*
X164465000Y-57725000D02*
X165795000Y-57725000D01*
X165795000Y-57725000D02*
X165795000Y-59055000D01*
X191775000Y-56770000D02*
X198675000Y-56770000D01*
X191775000Y-60070000D02*
X198675000Y-60070000D01*
X191775000Y-56770000D02*
X191775000Y-60070000D01*
X200405000Y-62950000D02*
X200405000Y-69850000D01*
X197105000Y-62950000D02*
X197105000Y-69850000D01*
X200405000Y-62950000D02*
X197105000Y-62950000D01*
X142290000Y-88165000D02*
X140005000Y-88165000D01*
X142290000Y-89635000D02*
X142290000Y-88165000D01*
X140005000Y-89635000D02*
X142290000Y-89635000D01*
X142290000Y-84355000D02*
X140005000Y-84355000D01*
X142290000Y-85825000D02*
X142290000Y-84355000D01*
X140005000Y-85825000D02*
X142290000Y-85825000D01*
X142290000Y-86260000D02*
X140005000Y-86260000D01*
X142290000Y-87730000D02*
X142290000Y-86260000D01*
X140005000Y-87730000D02*
X142290000Y-87730000D01*
X144905000Y-67629721D02*
X144905000Y-67955279D01*
X145925000Y-67629721D02*
X145925000Y-67955279D01*
X147445000Y-67629721D02*
X147445000Y-67955279D01*
X148465000Y-67629721D02*
X148465000Y-67955279D01*
X161452779Y-72515000D02*
X161127221Y-72515000D01*
X161452779Y-73535000D02*
X161127221Y-73535000D01*
X159700279Y-82675000D02*
X159374721Y-82675000D01*
X159700279Y-83695000D02*
X159374721Y-83695000D01*
X149735000Y-87157779D02*
X149735000Y-86832221D01*
X148715000Y-87157779D02*
X148715000Y-86832221D01*
X142402779Y-76710000D02*
X142077221Y-76710000D01*
X142402779Y-75690000D02*
X142077221Y-75690000D01*
X142077221Y-82425000D02*
X142402779Y-82425000D01*
X142077221Y-81405000D02*
X142402779Y-81405000D01*
X142077221Y-78615000D02*
X142402779Y-78615000D01*
X142077221Y-77595000D02*
X142402779Y-77595000D01*
X142077221Y-80520000D02*
X142402779Y-80520000D01*
X142077221Y-79500000D02*
X142402779Y-79500000D01*
X161127221Y-75440000D02*
X161452779Y-75440000D01*
X161127221Y-74420000D02*
X161452779Y-74420000D01*
X156335000Y-86832221D02*
X156335000Y-87157779D01*
X157355000Y-86832221D02*
X157355000Y-87157779D01*
X142077221Y-68070000D02*
X142402779Y-68070000D01*
X142077221Y-69090000D02*
X142402779Y-69090000D01*
X185274252Y-98495000D02*
X188105748Y-98495000D01*
X185274252Y-93275000D02*
X188105748Y-93275000D01*
X191102064Y-89895000D02*
X189897936Y-89895000D01*
X191102064Y-91715000D02*
X189897936Y-91715000D01*
X191102064Y-86720000D02*
X189897936Y-86720000D01*
X191102064Y-88540000D02*
X189897936Y-88540000D01*
X203699252Y-64205000D02*
X206530748Y-64205000D01*
X203699252Y-58985000D02*
X206530748Y-58985000D01*
X203232936Y-67585000D02*
X204437064Y-67585000D01*
X203232936Y-65765000D02*
X204437064Y-65765000D01*
X203232936Y-70760000D02*
X204437064Y-70760000D01*
X203232936Y-68940000D02*
X204437064Y-68940000D01*
X190040000Y-59450000D02*
X185830000Y-59450000D01*
X190040000Y-62470000D02*
X190040000Y-59450000D01*
X185830000Y-62470000D02*
X190040000Y-62470000D01*
X185145000Y-64932936D02*
X185145000Y-66137064D01*
X186965000Y-64932936D02*
X186965000Y-66137064D01*
X174865000Y-62417500D02*
X174865000Y-58207500D01*
X171845000Y-62417500D02*
X174865000Y-62417500D01*
X171845000Y-58207500D02*
X171845000Y-62417500D01*
X170690000Y-60736267D02*
X170690000Y-60393733D01*
X169670000Y-60736267D02*
X169670000Y-60393733D01*
X179580000Y-84866267D02*
X179580000Y-84523733D01*
X178560000Y-84866267D02*
X178560000Y-84523733D01*
X186815000Y-82378733D02*
X186815000Y-82721267D01*
X187835000Y-82378733D02*
X187835000Y-82721267D01*
X188720000Y-79151267D02*
X188720000Y-78808733D01*
X189740000Y-79151267D02*
X189740000Y-78808733D01*
X188720000Y-75496267D02*
X188720000Y-75153733D01*
X189740000Y-75496267D02*
X189740000Y-75153733D01*
X188470000Y-69906267D02*
X188470000Y-69563733D01*
X187450000Y-69906267D02*
X187450000Y-69563733D01*
X184752064Y-89260000D02*
X183547936Y-89260000D01*
X184752064Y-91080000D02*
X183547936Y-91080000D01*
X184752064Y-86720000D02*
X183547936Y-86720000D01*
X184752064Y-88540000D02*
X183547936Y-88540000D01*
X184752064Y-84180000D02*
X183547936Y-84180000D01*
X184752064Y-86000000D02*
X183547936Y-86000000D01*
X175770000Y-84866267D02*
X175770000Y-84523733D01*
X174750000Y-84866267D02*
X174750000Y-84523733D01*
X171226267Y-74420000D02*
X170883733Y-74420000D01*
X171226267Y-75440000D02*
X170883733Y-75440000D01*
X172891267Y-62990000D02*
X172548733Y-62990000D01*
X172891267Y-64010000D02*
X172548733Y-64010000D01*
X169035000Y-71583733D02*
X169035000Y-71926267D01*
X170055000Y-71583733D02*
X170055000Y-71926267D01*
X167130000Y-71583733D02*
X167130000Y-71926267D01*
X168150000Y-71583733D02*
X168150000Y-71926267D01*
X172845000Y-65753733D02*
X172845000Y-66096267D01*
X173865000Y-65753733D02*
X173865000Y-66096267D01*
X164340000Y-71926267D02*
X164340000Y-71583733D01*
X163320000Y-71926267D02*
X163320000Y-71583733D01*
X166245000Y-71926267D02*
X166245000Y-71583733D01*
X165225000Y-71926267D02*
X165225000Y-71583733D01*
X154430000Y-87166267D02*
X154430000Y-86823733D01*
X155450000Y-87166267D02*
X155450000Y-86823733D01*
D10*
X206615000Y-97415000D02*
X206615000Y-91815000D01*
X211215000Y-97415000D02*
X206615000Y-97415000D01*
X211215000Y-91815000D02*
X211215000Y-97415000D01*
X206615000Y-91815000D02*
X211215000Y-91815000D01*
X206615000Y-88525000D02*
X206615000Y-82925000D01*
X211215000Y-88525000D02*
X206615000Y-88525000D01*
X211215000Y-82925000D02*
X211215000Y-88525000D01*
X206615000Y-82925000D02*
X211215000Y-82925000D01*
X206615000Y-74035000D02*
X211215000Y-74035000D01*
X211215000Y-74035000D02*
X211215000Y-79635000D01*
X211215000Y-79635000D02*
X206615000Y-79635000D01*
X206615000Y-79635000D02*
X206615000Y-74035000D01*
X137400000Y-98050000D02*
X137400000Y-92450000D01*
X142000000Y-98050000D02*
X137400000Y-98050000D01*
X142000000Y-92450000D02*
X142000000Y-98050000D01*
X137400000Y-92450000D02*
X142000000Y-92450000D01*
X155180000Y-98050000D02*
X155180000Y-92450000D01*
X159780000Y-98050000D02*
X155180000Y-98050000D01*
X159780000Y-92450000D02*
X159780000Y-98050000D01*
X155180000Y-92450000D02*
X159780000Y-92450000D01*
D13*
X197040500Y-67310000D02*
G75*
G03X197040500Y-67310000I-4000500J0D01*
G01*
X189839600Y-69611240D02*
X196240400Y-69611240D01*
X196240400Y-65008760D02*
X189839600Y-65008760D01*
X196039740Y-67310000D02*
G75*
G03X196039740Y-67310000I-2999740J0D01*
G01*
D12*
X200092983Y-76395000D02*
X199727017Y-76395000D01*
X200092983Y-79815000D02*
X199727017Y-79815000D01*
X200322983Y-94175000D02*
X199957017Y-94175000D01*
X200322983Y-97595000D02*
X199957017Y-97595000D01*
D10*
X151003095Y-68887380D02*
X151003095Y-69696904D01*
X151050714Y-69792142D01*
X151098333Y-69839761D01*
X151193571Y-69887380D01*
X151384047Y-69887380D01*
X151479285Y-69839761D01*
X151526904Y-69792142D01*
X151574523Y-69696904D01*
X151574523Y-68887380D01*
X151955476Y-68887380D02*
X152574523Y-68887380D01*
X152241190Y-69268333D01*
X152384047Y-69268333D01*
X152479285Y-69315952D01*
X152526904Y-69363571D01*
X152574523Y-69458809D01*
X152574523Y-69696904D01*
X152526904Y-69792142D01*
X152479285Y-69839761D01*
X152384047Y-69887380D01*
X152098333Y-69887380D01*
X152003095Y-69839761D01*
X151955476Y-69792142D01*
X166347380Y-63031666D02*
X165871190Y-63365000D01*
X166347380Y-63603095D02*
X165347380Y-63603095D01*
X165347380Y-63222142D01*
X165395000Y-63126904D01*
X165442619Y-63079285D01*
X165537857Y-63031666D01*
X165680714Y-63031666D01*
X165775952Y-63079285D01*
X165823571Y-63126904D01*
X165871190Y-63222142D01*
X165871190Y-63603095D01*
X165347380Y-62698333D02*
X165347380Y-62079285D01*
X165728333Y-62412619D01*
X165728333Y-62269761D01*
X165775952Y-62174523D01*
X165823571Y-62126904D01*
X165918809Y-62079285D01*
X166156904Y-62079285D01*
X166252142Y-62126904D01*
X166299761Y-62174523D01*
X166347380Y-62269761D01*
X166347380Y-62555476D01*
X166299761Y-62650714D01*
X166252142Y-62698333D01*
X185617142Y-73907857D02*
X185664761Y-73955476D01*
X185712380Y-74098333D01*
X185712380Y-74193571D01*
X185664761Y-74336428D01*
X185569523Y-74431666D01*
X185474285Y-74479285D01*
X185283809Y-74526904D01*
X185140952Y-74526904D01*
X184950476Y-74479285D01*
X184855238Y-74431666D01*
X184760000Y-74336428D01*
X184712380Y-74193571D01*
X184712380Y-74098333D01*
X184760000Y-73955476D01*
X184807619Y-73907857D01*
X185712380Y-72955476D02*
X185712380Y-73526904D01*
X185712380Y-73241190D02*
X184712380Y-73241190D01*
X184855238Y-73336428D01*
X184950476Y-73431666D01*
X184998095Y-73526904D01*
X185045714Y-72098333D02*
X185712380Y-72098333D01*
X184664761Y-72336428D02*
X185379047Y-72574523D01*
X185379047Y-71955476D01*
X144492380Y-73199523D02*
X145492380Y-72532857D01*
X144492380Y-72532857D02*
X145492380Y-73199523D01*
X145492380Y-71628095D02*
X145492380Y-72199523D01*
X145492380Y-71913809D02*
X144492380Y-71913809D01*
X144635238Y-72009047D01*
X144730476Y-72104285D01*
X144778095Y-72199523D01*
X184292380Y-62991904D02*
X185101904Y-62991904D01*
X185197142Y-62944285D01*
X185244761Y-62896666D01*
X185292380Y-62801428D01*
X185292380Y-62610952D01*
X185244761Y-62515714D01*
X185197142Y-62468095D01*
X185101904Y-62420476D01*
X184292380Y-62420476D01*
X184387619Y-61991904D02*
X184340000Y-61944285D01*
X184292380Y-61849047D01*
X184292380Y-61610952D01*
X184340000Y-61515714D01*
X184387619Y-61468095D01*
X184482857Y-61420476D01*
X184578095Y-61420476D01*
X184720952Y-61468095D01*
X185292380Y-62039523D01*
X185292380Y-61420476D01*
X178943095Y-66332380D02*
X178943095Y-67141904D01*
X178990714Y-67237142D01*
X179038333Y-67284761D01*
X179133571Y-67332380D01*
X179324047Y-67332380D01*
X179419285Y-67284761D01*
X179466904Y-67237142D01*
X179514523Y-67141904D01*
X179514523Y-66332380D01*
X180514523Y-67332380D02*
X179943095Y-67332380D01*
X180228809Y-67332380D02*
X180228809Y-66332380D01*
X180133571Y-66475238D01*
X180038333Y-66570476D01*
X179943095Y-66618095D01*
X181587380Y-90812857D02*
X181111190Y-91146190D01*
X181587380Y-91384285D02*
X180587380Y-91384285D01*
X180587380Y-91003333D01*
X180635000Y-90908095D01*
X180682619Y-90860476D01*
X180777857Y-90812857D01*
X180920714Y-90812857D01*
X181015952Y-90860476D01*
X181063571Y-90908095D01*
X181111190Y-91003333D01*
X181111190Y-91384285D01*
X180587380Y-90479523D02*
X180587380Y-89860476D01*
X180968333Y-90193809D01*
X180968333Y-90050952D01*
X181015952Y-89955714D01*
X181063571Y-89908095D01*
X181158809Y-89860476D01*
X181396904Y-89860476D01*
X181492142Y-89908095D01*
X181539761Y-89955714D01*
X181587380Y-90050952D01*
X181587380Y-90336666D01*
X181539761Y-90431904D01*
X181492142Y-90479523D01*
X180587380Y-88955714D02*
X180587380Y-89431904D01*
X181063571Y-89479523D01*
X181015952Y-89431904D01*
X180968333Y-89336666D01*
X180968333Y-89098571D01*
X181015952Y-89003333D01*
X181063571Y-88955714D01*
X181158809Y-88908095D01*
X181396904Y-88908095D01*
X181492142Y-88955714D01*
X181539761Y-89003333D01*
X181587380Y-89098571D01*
X181587380Y-89336666D01*
X181539761Y-89431904D01*
X181492142Y-89479523D01*
X207622380Y-101607857D02*
X207146190Y-101941190D01*
X207622380Y-102179285D02*
X206622380Y-102179285D01*
X206622380Y-101798333D01*
X206670000Y-101703095D01*
X206717619Y-101655476D01*
X206812857Y-101607857D01*
X206955714Y-101607857D01*
X207050952Y-101655476D01*
X207098571Y-101703095D01*
X207146190Y-101798333D01*
X207146190Y-102179285D01*
X206622380Y-101274523D02*
X206622380Y-100655476D01*
X207003333Y-100988809D01*
X207003333Y-100845952D01*
X207050952Y-100750714D01*
X207098571Y-100703095D01*
X207193809Y-100655476D01*
X207431904Y-100655476D01*
X207527142Y-100703095D01*
X207574761Y-100750714D01*
X207622380Y-100845952D01*
X207622380Y-101131666D01*
X207574761Y-101226904D01*
X207527142Y-101274523D01*
X206955714Y-99798333D02*
X207622380Y-99798333D01*
X206574761Y-100036428D02*
X207289047Y-100274523D01*
X207289047Y-99655476D01*
X179047380Y-90812857D02*
X178571190Y-91146190D01*
X179047380Y-91384285D02*
X178047380Y-91384285D01*
X178047380Y-91003333D01*
X178095000Y-90908095D01*
X178142619Y-90860476D01*
X178237857Y-90812857D01*
X178380714Y-90812857D01*
X178475952Y-90860476D01*
X178523571Y-90908095D01*
X178571190Y-91003333D01*
X178571190Y-91384285D01*
X178047380Y-90479523D02*
X178047380Y-89860476D01*
X178428333Y-90193809D01*
X178428333Y-90050952D01*
X178475952Y-89955714D01*
X178523571Y-89908095D01*
X178618809Y-89860476D01*
X178856904Y-89860476D01*
X178952142Y-89908095D01*
X178999761Y-89955714D01*
X179047380Y-90050952D01*
X179047380Y-90336666D01*
X178999761Y-90431904D01*
X178952142Y-90479523D01*
X178047380Y-89527142D02*
X178047380Y-88908095D01*
X178428333Y-89241428D01*
X178428333Y-89098571D01*
X178475952Y-89003333D01*
X178523571Y-88955714D01*
X178618809Y-88908095D01*
X178856904Y-88908095D01*
X178952142Y-88955714D01*
X178999761Y-89003333D01*
X179047380Y-89098571D01*
X179047380Y-89384285D01*
X178999761Y-89479523D01*
X178952142Y-89527142D01*
X209527380Y-101607857D02*
X209051190Y-101941190D01*
X209527380Y-102179285D02*
X208527380Y-102179285D01*
X208527380Y-101798333D01*
X208575000Y-101703095D01*
X208622619Y-101655476D01*
X208717857Y-101607857D01*
X208860714Y-101607857D01*
X208955952Y-101655476D01*
X209003571Y-101703095D01*
X209051190Y-101798333D01*
X209051190Y-102179285D01*
X208527380Y-101274523D02*
X208527380Y-100655476D01*
X208908333Y-100988809D01*
X208908333Y-100845952D01*
X208955952Y-100750714D01*
X209003571Y-100703095D01*
X209098809Y-100655476D01*
X209336904Y-100655476D01*
X209432142Y-100703095D01*
X209479761Y-100750714D01*
X209527380Y-100845952D01*
X209527380Y-101131666D01*
X209479761Y-101226904D01*
X209432142Y-101274523D01*
X208622619Y-100274523D02*
X208575000Y-100226904D01*
X208527380Y-100131666D01*
X208527380Y-99893571D01*
X208575000Y-99798333D01*
X208622619Y-99750714D01*
X208717857Y-99703095D01*
X208813095Y-99703095D01*
X208955952Y-99750714D01*
X209527380Y-100322142D01*
X209527380Y-99703095D01*
X176507380Y-90812857D02*
X176031190Y-91146190D01*
X176507380Y-91384285D02*
X175507380Y-91384285D01*
X175507380Y-91003333D01*
X175555000Y-90908095D01*
X175602619Y-90860476D01*
X175697857Y-90812857D01*
X175840714Y-90812857D01*
X175935952Y-90860476D01*
X175983571Y-90908095D01*
X176031190Y-91003333D01*
X176031190Y-91384285D01*
X175507380Y-90479523D02*
X175507380Y-89860476D01*
X175888333Y-90193809D01*
X175888333Y-90050952D01*
X175935952Y-89955714D01*
X175983571Y-89908095D01*
X176078809Y-89860476D01*
X176316904Y-89860476D01*
X176412142Y-89908095D01*
X176459761Y-89955714D01*
X176507380Y-90050952D01*
X176507380Y-90336666D01*
X176459761Y-90431904D01*
X176412142Y-90479523D01*
X176507380Y-88908095D02*
X176507380Y-89479523D01*
X176507380Y-89193809D02*
X175507380Y-89193809D01*
X175650238Y-89289047D01*
X175745476Y-89384285D01*
X175793095Y-89479523D01*
X211432380Y-101607857D02*
X210956190Y-101941190D01*
X211432380Y-102179285D02*
X210432380Y-102179285D01*
X210432380Y-101798333D01*
X210480000Y-101703095D01*
X210527619Y-101655476D01*
X210622857Y-101607857D01*
X210765714Y-101607857D01*
X210860952Y-101655476D01*
X210908571Y-101703095D01*
X210956190Y-101798333D01*
X210956190Y-102179285D01*
X210432380Y-101274523D02*
X210432380Y-100655476D01*
X210813333Y-100988809D01*
X210813333Y-100845952D01*
X210860952Y-100750714D01*
X210908571Y-100703095D01*
X211003809Y-100655476D01*
X211241904Y-100655476D01*
X211337142Y-100703095D01*
X211384761Y-100750714D01*
X211432380Y-100845952D01*
X211432380Y-101131666D01*
X211384761Y-101226904D01*
X211337142Y-101274523D01*
X210432380Y-100036428D02*
X210432380Y-99941190D01*
X210480000Y-99845952D01*
X210527619Y-99798333D01*
X210622857Y-99750714D01*
X210813333Y-99703095D01*
X211051428Y-99703095D01*
X211241904Y-99750714D01*
X211337142Y-99798333D01*
X211384761Y-99845952D01*
X211432380Y-99941190D01*
X211432380Y-100036428D01*
X211384761Y-100131666D01*
X211337142Y-100179285D01*
X211241904Y-100226904D01*
X211051428Y-100274523D01*
X210813333Y-100274523D01*
X210622857Y-100226904D01*
X210527619Y-100179285D01*
X210480000Y-100131666D01*
X210432380Y-100036428D01*
X179997380Y-85250357D02*
X179521190Y-85583690D01*
X179997380Y-85821785D02*
X178997380Y-85821785D01*
X178997380Y-85440833D01*
X179045000Y-85345595D01*
X179092619Y-85297976D01*
X179187857Y-85250357D01*
X179330714Y-85250357D01*
X179425952Y-85297976D01*
X179473571Y-85345595D01*
X179521190Y-85440833D01*
X179521190Y-85821785D01*
X179092619Y-84869404D02*
X179045000Y-84821785D01*
X178997380Y-84726547D01*
X178997380Y-84488452D01*
X179045000Y-84393214D01*
X179092619Y-84345595D01*
X179187857Y-84297976D01*
X179283095Y-84297976D01*
X179425952Y-84345595D01*
X179997380Y-84917023D01*
X179997380Y-84297976D01*
X179997380Y-83821785D02*
X179997380Y-83631309D01*
X179949761Y-83536071D01*
X179902142Y-83488452D01*
X179759285Y-83393214D01*
X179568809Y-83345595D01*
X179187857Y-83345595D01*
X179092619Y-83393214D01*
X179045000Y-83440833D01*
X178997380Y-83536071D01*
X178997380Y-83726547D01*
X179045000Y-83821785D01*
X179092619Y-83869404D01*
X179187857Y-83917023D01*
X179425952Y-83917023D01*
X179521190Y-83869404D01*
X179568809Y-83821785D01*
X179616428Y-83726547D01*
X179616428Y-83536071D01*
X179568809Y-83440833D01*
X179521190Y-83393214D01*
X179425952Y-83345595D01*
X179047380Y-85250357D02*
X178571190Y-85583690D01*
X179047380Y-85821785D02*
X178047380Y-85821785D01*
X178047380Y-85440833D01*
X178095000Y-85345595D01*
X178142619Y-85297976D01*
X178237857Y-85250357D01*
X178380714Y-85250357D01*
X178475952Y-85297976D01*
X178523571Y-85345595D01*
X178571190Y-85440833D01*
X178571190Y-85821785D01*
X178142619Y-84869404D02*
X178095000Y-84821785D01*
X178047380Y-84726547D01*
X178047380Y-84488452D01*
X178095000Y-84393214D01*
X178142619Y-84345595D01*
X178237857Y-84297976D01*
X178333095Y-84297976D01*
X178475952Y-84345595D01*
X179047380Y-84917023D01*
X179047380Y-84297976D01*
X178475952Y-83726547D02*
X178428333Y-83821785D01*
X178380714Y-83869404D01*
X178285476Y-83917023D01*
X178237857Y-83917023D01*
X178142619Y-83869404D01*
X178095000Y-83821785D01*
X178047380Y-83726547D01*
X178047380Y-83536071D01*
X178095000Y-83440833D01*
X178142619Y-83393214D01*
X178237857Y-83345595D01*
X178285476Y-83345595D01*
X178380714Y-83393214D01*
X178428333Y-83440833D01*
X178475952Y-83536071D01*
X178475952Y-83726547D01*
X178523571Y-83821785D01*
X178571190Y-83869404D01*
X178666428Y-83917023D01*
X178856904Y-83917023D01*
X178952142Y-83869404D01*
X178999761Y-83821785D01*
X179047380Y-83726547D01*
X179047380Y-83536071D01*
X178999761Y-83440833D01*
X178952142Y-83393214D01*
X178856904Y-83345595D01*
X178666428Y-83345595D01*
X178571190Y-83393214D01*
X178523571Y-83440833D01*
X178475952Y-83536071D01*
X190492142Y-86972380D02*
X190158809Y-86496190D01*
X189920714Y-86972380D02*
X189920714Y-85972380D01*
X190301666Y-85972380D01*
X190396904Y-86020000D01*
X190444523Y-86067619D01*
X190492142Y-86162857D01*
X190492142Y-86305714D01*
X190444523Y-86400952D01*
X190396904Y-86448571D01*
X190301666Y-86496190D01*
X189920714Y-86496190D01*
X190873095Y-86067619D02*
X190920714Y-86020000D01*
X191015952Y-85972380D01*
X191254047Y-85972380D01*
X191349285Y-86020000D01*
X191396904Y-86067619D01*
X191444523Y-86162857D01*
X191444523Y-86258095D01*
X191396904Y-86400952D01*
X190825476Y-86972380D01*
X191444523Y-86972380D01*
X191777857Y-85972380D02*
X192444523Y-85972380D01*
X192015952Y-86972380D01*
X190492142Y-85067380D02*
X190158809Y-84591190D01*
X189920714Y-85067380D02*
X189920714Y-84067380D01*
X190301666Y-84067380D01*
X190396904Y-84115000D01*
X190444523Y-84162619D01*
X190492142Y-84257857D01*
X190492142Y-84400714D01*
X190444523Y-84495952D01*
X190396904Y-84543571D01*
X190301666Y-84591190D01*
X189920714Y-84591190D01*
X190873095Y-84162619D02*
X190920714Y-84115000D01*
X191015952Y-84067380D01*
X191254047Y-84067380D01*
X191349285Y-84115000D01*
X191396904Y-84162619D01*
X191444523Y-84257857D01*
X191444523Y-84353095D01*
X191396904Y-84495952D01*
X190825476Y-85067380D01*
X191444523Y-85067380D01*
X192301666Y-84067380D02*
X192111190Y-84067380D01*
X192015952Y-84115000D01*
X191968333Y-84162619D01*
X191873095Y-84305476D01*
X191825476Y-84495952D01*
X191825476Y-84876904D01*
X191873095Y-84972142D01*
X191920714Y-85019761D01*
X192015952Y-85067380D01*
X192206428Y-85067380D01*
X192301666Y-85019761D01*
X192349285Y-84972142D01*
X192396904Y-84876904D01*
X192396904Y-84638809D01*
X192349285Y-84543571D01*
X192301666Y-84495952D01*
X192206428Y-84448333D01*
X192015952Y-84448333D01*
X191920714Y-84495952D01*
X191873095Y-84543571D01*
X191825476Y-84638809D01*
X193819642Y-63477380D02*
X193486309Y-63001190D01*
X193248214Y-63477380D02*
X193248214Y-62477380D01*
X193629166Y-62477380D01*
X193724404Y-62525000D01*
X193772023Y-62572619D01*
X193819642Y-62667857D01*
X193819642Y-62810714D01*
X193772023Y-62905952D01*
X193724404Y-62953571D01*
X193629166Y-63001190D01*
X193248214Y-63001190D01*
X194200595Y-62572619D02*
X194248214Y-62525000D01*
X194343452Y-62477380D01*
X194581547Y-62477380D01*
X194676785Y-62525000D01*
X194724404Y-62572619D01*
X194772023Y-62667857D01*
X194772023Y-62763095D01*
X194724404Y-62905952D01*
X194152976Y-63477380D01*
X194772023Y-63477380D01*
X195676785Y-62477380D02*
X195200595Y-62477380D01*
X195152976Y-62953571D01*
X195200595Y-62905952D01*
X195295833Y-62858333D01*
X195533928Y-62858333D01*
X195629166Y-62905952D01*
X195676785Y-62953571D01*
X195724404Y-63048809D01*
X195724404Y-63286904D01*
X195676785Y-63382142D01*
X195629166Y-63429761D01*
X195533928Y-63477380D01*
X195295833Y-63477380D01*
X195200595Y-63429761D01*
X195152976Y-63382142D01*
X176900379Y-66567857D02*
X176424189Y-66901190D01*
X176900379Y-67139285D02*
X175900379Y-67139285D01*
X175900379Y-66758333D01*
X175947999Y-66663095D01*
X175995618Y-66615476D01*
X176090856Y-66567857D01*
X176233713Y-66567857D01*
X176328951Y-66615476D01*
X176376570Y-66663095D01*
X176424189Y-66758333D01*
X176424189Y-67139285D01*
X175995618Y-66186904D02*
X175947999Y-66139285D01*
X175900379Y-66044047D01*
X175900379Y-65805952D01*
X175947999Y-65710714D01*
X175995618Y-65663095D01*
X176090856Y-65615476D01*
X176186094Y-65615476D01*
X176328951Y-65663095D01*
X176900379Y-66234523D01*
X176900379Y-65615476D01*
X176233713Y-64758333D02*
X176900379Y-64758333D01*
X175852760Y-64996428D02*
X176567046Y-65234523D01*
X176567046Y-64615476D01*
X173332380Y-66530357D02*
X172856190Y-66863690D01*
X173332380Y-67101785D02*
X172332380Y-67101785D01*
X172332380Y-66720833D01*
X172380000Y-66625595D01*
X172427619Y-66577976D01*
X172522857Y-66530357D01*
X172665714Y-66530357D01*
X172760952Y-66577976D01*
X172808571Y-66625595D01*
X172856190Y-66720833D01*
X172856190Y-67101785D01*
X172427619Y-66149404D02*
X172380000Y-66101785D01*
X172332380Y-66006547D01*
X172332380Y-65768452D01*
X172380000Y-65673214D01*
X172427619Y-65625595D01*
X172522857Y-65577976D01*
X172618095Y-65577976D01*
X172760952Y-65625595D01*
X173332380Y-66197023D01*
X173332380Y-65577976D01*
X172332380Y-65244642D02*
X172332380Y-64625595D01*
X172713333Y-64958928D01*
X172713333Y-64816071D01*
X172760952Y-64720833D01*
X172808571Y-64673214D01*
X172903809Y-64625595D01*
X173141904Y-64625595D01*
X173237142Y-64673214D01*
X173284761Y-64720833D01*
X173332380Y-64816071D01*
X173332380Y-65101785D01*
X173284761Y-65197023D01*
X173237142Y-65244642D01*
X172077142Y-74272380D02*
X171743809Y-73796190D01*
X171505714Y-74272380D02*
X171505714Y-73272380D01*
X171886666Y-73272380D01*
X171981904Y-73320000D01*
X172029523Y-73367619D01*
X172077142Y-73462857D01*
X172077142Y-73605714D01*
X172029523Y-73700952D01*
X171981904Y-73748571D01*
X171886666Y-73796190D01*
X171505714Y-73796190D01*
X172458095Y-73367619D02*
X172505714Y-73320000D01*
X172600952Y-73272380D01*
X172839047Y-73272380D01*
X172934285Y-73320000D01*
X172981904Y-73367619D01*
X173029523Y-73462857D01*
X173029523Y-73558095D01*
X172981904Y-73700952D01*
X172410476Y-74272380D01*
X173029523Y-74272380D01*
X173410476Y-73367619D02*
X173458095Y-73320000D01*
X173553333Y-73272380D01*
X173791428Y-73272380D01*
X173886666Y-73320000D01*
X173934285Y-73367619D01*
X173981904Y-73462857D01*
X173981904Y-73558095D01*
X173934285Y-73700952D01*
X173362857Y-74272380D01*
X173981904Y-74272380D01*
X172077142Y-72367380D02*
X171743809Y-71891190D01*
X171505714Y-72367380D02*
X171505714Y-71367380D01*
X171886666Y-71367380D01*
X171981904Y-71415000D01*
X172029523Y-71462619D01*
X172077142Y-71557857D01*
X172077142Y-71700714D01*
X172029523Y-71795952D01*
X171981904Y-71843571D01*
X171886666Y-71891190D01*
X171505714Y-71891190D01*
X172458095Y-71462619D02*
X172505714Y-71415000D01*
X172600952Y-71367380D01*
X172839047Y-71367380D01*
X172934285Y-71415000D01*
X172981904Y-71462619D01*
X173029523Y-71557857D01*
X173029523Y-71653095D01*
X172981904Y-71795952D01*
X172410476Y-72367380D01*
X173029523Y-72367380D01*
X173981904Y-72367380D02*
X173410476Y-72367380D01*
X173696190Y-72367380D02*
X173696190Y-71367380D01*
X173600952Y-71510238D01*
X173505714Y-71605476D01*
X173410476Y-71653095D01*
X171924642Y-67602380D02*
X171591309Y-67126190D01*
X171353214Y-67602380D02*
X171353214Y-66602380D01*
X171734166Y-66602380D01*
X171829404Y-66650000D01*
X171877023Y-66697619D01*
X171924642Y-66792857D01*
X171924642Y-66935714D01*
X171877023Y-67030952D01*
X171829404Y-67078571D01*
X171734166Y-67126190D01*
X171353214Y-67126190D01*
X172305595Y-66697619D02*
X172353214Y-66650000D01*
X172448452Y-66602380D01*
X172686547Y-66602380D01*
X172781785Y-66650000D01*
X172829404Y-66697619D01*
X172877023Y-66792857D01*
X172877023Y-66888095D01*
X172829404Y-67030952D01*
X172257976Y-67602380D01*
X172877023Y-67602380D01*
X173496071Y-66602380D02*
X173591309Y-66602380D01*
X173686547Y-66650000D01*
X173734166Y-66697619D01*
X173781785Y-66792857D01*
X173829404Y-66983333D01*
X173829404Y-67221428D01*
X173781785Y-67411904D01*
X173734166Y-67507142D01*
X173686547Y-67554761D01*
X173591309Y-67602380D01*
X173496071Y-67602380D01*
X173400833Y-67554761D01*
X173353214Y-67507142D01*
X173305595Y-67411904D01*
X173257976Y-67221428D01*
X173257976Y-66983333D01*
X173305595Y-66792857D01*
X173353214Y-66697619D01*
X173400833Y-66650000D01*
X173496071Y-66602380D01*
X203344642Y-100307380D02*
X203011309Y-99831190D01*
X202773214Y-100307380D02*
X202773214Y-99307380D01*
X203154166Y-99307380D01*
X203249404Y-99355000D01*
X203297023Y-99402619D01*
X203344642Y-99497857D01*
X203344642Y-99640714D01*
X203297023Y-99735952D01*
X203249404Y-99783571D01*
X203154166Y-99831190D01*
X202773214Y-99831190D01*
X204297023Y-100307380D02*
X203725595Y-100307380D01*
X204011309Y-100307380D02*
X204011309Y-99307380D01*
X203916071Y-99450238D01*
X203820833Y-99545476D01*
X203725595Y-99593095D01*
X204773214Y-100307380D02*
X204963690Y-100307380D01*
X205058928Y-100259761D01*
X205106547Y-100212142D01*
X205201785Y-100069285D01*
X205249404Y-99878809D01*
X205249404Y-99497857D01*
X205201785Y-99402619D01*
X205154166Y-99355000D01*
X205058928Y-99307380D01*
X204868452Y-99307380D01*
X204773214Y-99355000D01*
X204725595Y-99402619D01*
X204677976Y-99497857D01*
X204677976Y-99735952D01*
X204725595Y-99831190D01*
X204773214Y-99878809D01*
X204868452Y-99926428D01*
X205058928Y-99926428D01*
X205154166Y-99878809D01*
X205201785Y-99831190D01*
X205249404Y-99735952D01*
X199534642Y-100942380D02*
X199201309Y-100466190D01*
X198963214Y-100942380D02*
X198963214Y-99942380D01*
X199344166Y-99942380D01*
X199439404Y-99990000D01*
X199487023Y-100037619D01*
X199534642Y-100132857D01*
X199534642Y-100275714D01*
X199487023Y-100370952D01*
X199439404Y-100418571D01*
X199344166Y-100466190D01*
X198963214Y-100466190D01*
X200487023Y-100942380D02*
X199915595Y-100942380D01*
X200201309Y-100942380D02*
X200201309Y-99942380D01*
X200106071Y-100085238D01*
X200010833Y-100180476D01*
X199915595Y-100228095D01*
X201058452Y-100370952D02*
X200963214Y-100323333D01*
X200915595Y-100275714D01*
X200867976Y-100180476D01*
X200867976Y-100132857D01*
X200915595Y-100037619D01*
X200963214Y-99990000D01*
X201058452Y-99942380D01*
X201248928Y-99942380D01*
X201344166Y-99990000D01*
X201391785Y-100037619D01*
X201439404Y-100132857D01*
X201439404Y-100180476D01*
X201391785Y-100275714D01*
X201344166Y-100323333D01*
X201248928Y-100370952D01*
X201058452Y-100370952D01*
X200963214Y-100418571D01*
X200915595Y-100466190D01*
X200867976Y-100561428D01*
X200867976Y-100751904D01*
X200915595Y-100847142D01*
X200963214Y-100894761D01*
X201058452Y-100942380D01*
X201248928Y-100942380D01*
X201344166Y-100894761D01*
X201391785Y-100847142D01*
X201439404Y-100751904D01*
X201439404Y-100561428D01*
X201391785Y-100466190D01*
X201344166Y-100418571D01*
X201248928Y-100370952D01*
X199534642Y-94592380D02*
X199201309Y-94116190D01*
X198963214Y-94592380D02*
X198963214Y-93592380D01*
X199344166Y-93592380D01*
X199439404Y-93640000D01*
X199487023Y-93687619D01*
X199534642Y-93782857D01*
X199534642Y-93925714D01*
X199487023Y-94020952D01*
X199439404Y-94068571D01*
X199344166Y-94116190D01*
X198963214Y-94116190D01*
X200487023Y-94592380D02*
X199915595Y-94592380D01*
X200201309Y-94592380D02*
X200201309Y-93592380D01*
X200106071Y-93735238D01*
X200010833Y-93830476D01*
X199915595Y-93878095D01*
X200820357Y-93592380D02*
X201487023Y-93592380D01*
X201058452Y-94592380D01*
X202542380Y-85097857D02*
X202066190Y-85431190D01*
X202542380Y-85669285D02*
X201542380Y-85669285D01*
X201542380Y-85288333D01*
X201590000Y-85193095D01*
X201637619Y-85145476D01*
X201732857Y-85097857D01*
X201875714Y-85097857D01*
X201970952Y-85145476D01*
X202018571Y-85193095D01*
X202066190Y-85288333D01*
X202066190Y-85669285D01*
X202542380Y-84145476D02*
X202542380Y-84716904D01*
X202542380Y-84431190D02*
X201542380Y-84431190D01*
X201685238Y-84526428D01*
X201780476Y-84621666D01*
X201828095Y-84716904D01*
X201542380Y-83288333D02*
X201542380Y-83478809D01*
X201590000Y-83574047D01*
X201637619Y-83621666D01*
X201780476Y-83716904D01*
X201970952Y-83764523D01*
X202351904Y-83764523D01*
X202447142Y-83716904D01*
X202494761Y-83669285D01*
X202542380Y-83574047D01*
X202542380Y-83383571D01*
X202494761Y-83288333D01*
X202447142Y-83240714D01*
X202351904Y-83193095D01*
X202113809Y-83193095D01*
X202018571Y-83240714D01*
X201970952Y-83288333D01*
X201923333Y-83383571D01*
X201923333Y-83574047D01*
X201970952Y-83669285D01*
X202018571Y-83716904D01*
X202113809Y-83764523D01*
X199864642Y-90782380D02*
X199531309Y-90306190D01*
X199293214Y-90782380D02*
X199293214Y-89782380D01*
X199674166Y-89782380D01*
X199769404Y-89830000D01*
X199817023Y-89877619D01*
X199864642Y-89972857D01*
X199864642Y-90115714D01*
X199817023Y-90210952D01*
X199769404Y-90258571D01*
X199674166Y-90306190D01*
X199293214Y-90306190D01*
X200817023Y-90782380D02*
X200245595Y-90782380D01*
X200531309Y-90782380D02*
X200531309Y-89782380D01*
X200436071Y-89925238D01*
X200340833Y-90020476D01*
X200245595Y-90068095D01*
X201721785Y-89782380D02*
X201245595Y-89782380D01*
X201197976Y-90258571D01*
X201245595Y-90210952D01*
X201340833Y-90163333D01*
X201578928Y-90163333D01*
X201674166Y-90210952D01*
X201721785Y-90258571D01*
X201769404Y-90353809D01*
X201769404Y-90591904D01*
X201721785Y-90687142D01*
X201674166Y-90734761D01*
X201578928Y-90782380D01*
X201340833Y-90782380D01*
X201245595Y-90734761D01*
X201197976Y-90687142D01*
X199864642Y-88877380D02*
X199531309Y-88401190D01*
X199293214Y-88877380D02*
X199293214Y-87877380D01*
X199674166Y-87877380D01*
X199769404Y-87925000D01*
X199817023Y-87972619D01*
X199864642Y-88067857D01*
X199864642Y-88210714D01*
X199817023Y-88305952D01*
X199769404Y-88353571D01*
X199674166Y-88401190D01*
X199293214Y-88401190D01*
X200817023Y-88877380D02*
X200245595Y-88877380D01*
X200531309Y-88877380D02*
X200531309Y-87877380D01*
X200436071Y-88020238D01*
X200340833Y-88115476D01*
X200245595Y-88163095D01*
X201674166Y-88210714D02*
X201674166Y-88877380D01*
X201436071Y-87829761D02*
X201197976Y-88544047D01*
X201817023Y-88544047D01*
X203344642Y-82527380D02*
X203011309Y-82051190D01*
X202773214Y-82527380D02*
X202773214Y-81527380D01*
X203154166Y-81527380D01*
X203249404Y-81575000D01*
X203297023Y-81622619D01*
X203344642Y-81717857D01*
X203344642Y-81860714D01*
X203297023Y-81955952D01*
X203249404Y-82003571D01*
X203154166Y-82051190D01*
X202773214Y-82051190D01*
X204297023Y-82527380D02*
X203725595Y-82527380D01*
X204011309Y-82527380D02*
X204011309Y-81527380D01*
X203916071Y-81670238D01*
X203820833Y-81765476D01*
X203725595Y-81813095D01*
X204630357Y-81527380D02*
X205249404Y-81527380D01*
X204916071Y-81908333D01*
X205058928Y-81908333D01*
X205154166Y-81955952D01*
X205201785Y-82003571D01*
X205249404Y-82098809D01*
X205249404Y-82336904D01*
X205201785Y-82432142D01*
X205154166Y-82479761D01*
X205058928Y-82527380D01*
X204773214Y-82527380D01*
X204677976Y-82479761D01*
X204630357Y-82432142D01*
X199229642Y-83162380D02*
X198896309Y-82686190D01*
X198658214Y-83162380D02*
X198658214Y-82162380D01*
X199039166Y-82162380D01*
X199134404Y-82210000D01*
X199182023Y-82257619D01*
X199229642Y-82352857D01*
X199229642Y-82495714D01*
X199182023Y-82590952D01*
X199134404Y-82638571D01*
X199039166Y-82686190D01*
X198658214Y-82686190D01*
X200182023Y-83162380D02*
X199610595Y-83162380D01*
X199896309Y-83162380D02*
X199896309Y-82162380D01*
X199801071Y-82305238D01*
X199705833Y-82400476D01*
X199610595Y-82448095D01*
X200562976Y-82257619D02*
X200610595Y-82210000D01*
X200705833Y-82162380D01*
X200943928Y-82162380D01*
X201039166Y-82210000D01*
X201086785Y-82257619D01*
X201134404Y-82352857D01*
X201134404Y-82448095D01*
X201086785Y-82590952D01*
X200515357Y-83162380D01*
X201134404Y-83162380D01*
X199382142Y-76812380D02*
X199048809Y-76336190D01*
X198810714Y-76812380D02*
X198810714Y-75812380D01*
X199191666Y-75812380D01*
X199286904Y-75860000D01*
X199334523Y-75907619D01*
X199382142Y-76002857D01*
X199382142Y-76145714D01*
X199334523Y-76240952D01*
X199286904Y-76288571D01*
X199191666Y-76336190D01*
X198810714Y-76336190D01*
X200334523Y-76812380D02*
X199763095Y-76812380D01*
X200048809Y-76812380D02*
X200048809Y-75812380D01*
X199953571Y-75955238D01*
X199858333Y-76050476D01*
X199763095Y-76098095D01*
X201286904Y-76812380D02*
X200715476Y-76812380D01*
X201001190Y-76812380D02*
X201001190Y-75812380D01*
X200905952Y-75955238D01*
X200810714Y-76050476D01*
X200715476Y-76098095D01*
X143978333Y-87922380D02*
X143645000Y-87446190D01*
X143406904Y-87922380D02*
X143406904Y-86922380D01*
X143787857Y-86922380D01*
X143883095Y-86970000D01*
X143930714Y-87017619D01*
X143978333Y-87112857D01*
X143978333Y-87255714D01*
X143930714Y-87350952D01*
X143883095Y-87398571D01*
X143787857Y-87446190D01*
X143406904Y-87446190D01*
X144549761Y-87350952D02*
X144454523Y-87303333D01*
X144406904Y-87255714D01*
X144359285Y-87160476D01*
X144359285Y-87112857D01*
X144406904Y-87017619D01*
X144454523Y-86970000D01*
X144549761Y-86922380D01*
X144740238Y-86922380D01*
X144835476Y-86970000D01*
X144883095Y-87017619D01*
X144930714Y-87112857D01*
X144930714Y-87160476D01*
X144883095Y-87255714D01*
X144835476Y-87303333D01*
X144740238Y-87350952D01*
X144549761Y-87350952D01*
X144454523Y-87398571D01*
X144406904Y-87446190D01*
X144359285Y-87541428D01*
X144359285Y-87731904D01*
X144406904Y-87827142D01*
X144454523Y-87874761D01*
X144549761Y-87922380D01*
X144740238Y-87922380D01*
X144835476Y-87874761D01*
X144883095Y-87827142D01*
X144930714Y-87731904D01*
X144930714Y-87541428D01*
X144883095Y-87446190D01*
X144835476Y-87398571D01*
X144740238Y-87350952D01*
X143978333Y-84112380D02*
X143645000Y-83636190D01*
X143406904Y-84112380D02*
X143406904Y-83112380D01*
X143787857Y-83112380D01*
X143883095Y-83160000D01*
X143930714Y-83207619D01*
X143978333Y-83302857D01*
X143978333Y-83445714D01*
X143930714Y-83540952D01*
X143883095Y-83588571D01*
X143787857Y-83636190D01*
X143406904Y-83636190D01*
X144311666Y-83112380D02*
X144978333Y-83112380D01*
X144549761Y-84112380D01*
X143978333Y-86017380D02*
X143645000Y-85541190D01*
X143406904Y-86017380D02*
X143406904Y-85017380D01*
X143787857Y-85017380D01*
X143883095Y-85065000D01*
X143930714Y-85112619D01*
X143978333Y-85207857D01*
X143978333Y-85350714D01*
X143930714Y-85445952D01*
X143883095Y-85493571D01*
X143787857Y-85541190D01*
X143406904Y-85541190D01*
X144835476Y-85017380D02*
X144645000Y-85017380D01*
X144549761Y-85065000D01*
X144502142Y-85112619D01*
X144406904Y-85255476D01*
X144359285Y-85445952D01*
X144359285Y-85826904D01*
X144406904Y-85922142D01*
X144454523Y-85969761D01*
X144549761Y-86017380D01*
X144740238Y-86017380D01*
X144835476Y-85969761D01*
X144883095Y-85922142D01*
X144930714Y-85826904D01*
X144930714Y-85588809D01*
X144883095Y-85493571D01*
X144835476Y-85445952D01*
X144740238Y-85398333D01*
X144549761Y-85398333D01*
X144454523Y-85445952D01*
X144406904Y-85493571D01*
X144359285Y-85588809D01*
X158407380Y-63031666D02*
X157931190Y-63365000D01*
X158407380Y-63603095D02*
X157407380Y-63603095D01*
X157407380Y-63222142D01*
X157455000Y-63126904D01*
X157502619Y-63079285D01*
X157597857Y-63031666D01*
X157740714Y-63031666D01*
X157835952Y-63079285D01*
X157883571Y-63126904D01*
X157931190Y-63222142D01*
X157931190Y-63603095D01*
X157407380Y-62126904D02*
X157407380Y-62603095D01*
X157883571Y-62650714D01*
X157835952Y-62603095D01*
X157788333Y-62507857D01*
X157788333Y-62269761D01*
X157835952Y-62174523D01*
X157883571Y-62126904D01*
X157978809Y-62079285D01*
X158216904Y-62079285D01*
X158312142Y-62126904D01*
X158359761Y-62174523D01*
X158407380Y-62269761D01*
X158407380Y-62507857D01*
X158359761Y-62603095D01*
X158312142Y-62650714D01*
X160947380Y-63031666D02*
X160471190Y-63365000D01*
X160947380Y-63603095D02*
X159947380Y-63603095D01*
X159947380Y-63222142D01*
X159995000Y-63126904D01*
X160042619Y-63079285D01*
X160137857Y-63031666D01*
X160280714Y-63031666D01*
X160375952Y-63079285D01*
X160423571Y-63126904D01*
X160471190Y-63222142D01*
X160471190Y-63603095D01*
X160280714Y-62174523D02*
X160947380Y-62174523D01*
X159899761Y-62412619D02*
X160614047Y-62650714D01*
X160614047Y-62031666D01*
X152057380Y-87161666D02*
X151581190Y-87495000D01*
X152057380Y-87733095D02*
X151057380Y-87733095D01*
X151057380Y-87352142D01*
X151105000Y-87256904D01*
X151152619Y-87209285D01*
X151247857Y-87161666D01*
X151390714Y-87161666D01*
X151485952Y-87209285D01*
X151533571Y-87256904D01*
X151581190Y-87352142D01*
X151581190Y-87733095D01*
X151152619Y-86780714D02*
X151105000Y-86733095D01*
X151057380Y-86637857D01*
X151057380Y-86399761D01*
X151105000Y-86304523D01*
X151152619Y-86256904D01*
X151247857Y-86209285D01*
X151343095Y-86209285D01*
X151485952Y-86256904D01*
X152057380Y-86828333D01*
X152057380Y-86209285D01*
X150152380Y-87161666D02*
X149676190Y-87495000D01*
X150152380Y-87733095D02*
X149152380Y-87733095D01*
X149152380Y-87352142D01*
X149200000Y-87256904D01*
X149247619Y-87209285D01*
X149342857Y-87161666D01*
X149485714Y-87161666D01*
X149580952Y-87209285D01*
X149628571Y-87256904D01*
X149676190Y-87352142D01*
X149676190Y-87733095D01*
X150152380Y-86209285D02*
X150152380Y-86780714D01*
X150152380Y-86495000D02*
X149152380Y-86495000D01*
X149295238Y-86590238D01*
X149390476Y-86685476D01*
X149438095Y-86780714D01*
X201882619Y-95710238D02*
X201835000Y-95805476D01*
X201739761Y-95900714D01*
X201596904Y-96043571D01*
X201549285Y-96138809D01*
X201549285Y-96234047D01*
X201787380Y-96186428D02*
X201739761Y-96281666D01*
X201644523Y-96376904D01*
X201454047Y-96424523D01*
X201120714Y-96424523D01*
X200930238Y-96376904D01*
X200835000Y-96281666D01*
X200787380Y-96186428D01*
X200787380Y-95995952D01*
X200835000Y-95900714D01*
X200930238Y-95805476D01*
X201120714Y-95757857D01*
X201454047Y-95757857D01*
X201644523Y-95805476D01*
X201739761Y-95900714D01*
X201787380Y-95995952D01*
X201787380Y-96186428D01*
X200787380Y-94900714D02*
X200787380Y-95091190D01*
X200835000Y-95186428D01*
X200882619Y-95234047D01*
X201025476Y-95329285D01*
X201215952Y-95376904D01*
X201596904Y-95376904D01*
X201692142Y-95329285D01*
X201739761Y-95281666D01*
X201787380Y-95186428D01*
X201787380Y-94995952D01*
X201739761Y-94900714D01*
X201692142Y-94853095D01*
X201596904Y-94805476D01*
X201358809Y-94805476D01*
X201263571Y-94853095D01*
X201215952Y-94900714D01*
X201168333Y-94995952D01*
X201168333Y-95186428D01*
X201215952Y-95281666D01*
X201263571Y-95329285D01*
X201358809Y-95376904D01*
X201882619Y-91900238D02*
X201835000Y-91995476D01*
X201739761Y-92090714D01*
X201596904Y-92233571D01*
X201549285Y-92328809D01*
X201549285Y-92424047D01*
X201787380Y-92376428D02*
X201739761Y-92471666D01*
X201644523Y-92566904D01*
X201454047Y-92614523D01*
X201120714Y-92614523D01*
X200930238Y-92566904D01*
X200835000Y-92471666D01*
X200787380Y-92376428D01*
X200787380Y-92185952D01*
X200835000Y-92090714D01*
X200930238Y-91995476D01*
X201120714Y-91947857D01*
X201454047Y-91947857D01*
X201644523Y-91995476D01*
X201739761Y-92090714D01*
X201787380Y-92185952D01*
X201787380Y-92376428D01*
X200787380Y-91043095D02*
X200787380Y-91519285D01*
X201263571Y-91566904D01*
X201215952Y-91519285D01*
X201168333Y-91424047D01*
X201168333Y-91185952D01*
X201215952Y-91090714D01*
X201263571Y-91043095D01*
X201358809Y-90995476D01*
X201596904Y-90995476D01*
X201692142Y-91043095D01*
X201739761Y-91090714D01*
X201787380Y-91185952D01*
X201787380Y-91424047D01*
X201739761Y-91519285D01*
X201692142Y-91566904D01*
X201882619Y-88090238D02*
X201835000Y-88185476D01*
X201739761Y-88280714D01*
X201596904Y-88423571D01*
X201549285Y-88518809D01*
X201549285Y-88614047D01*
X201787380Y-88566428D02*
X201739761Y-88661666D01*
X201644523Y-88756904D01*
X201454047Y-88804523D01*
X201120714Y-88804523D01*
X200930238Y-88756904D01*
X200835000Y-88661666D01*
X200787380Y-88566428D01*
X200787380Y-88375952D01*
X200835000Y-88280714D01*
X200930238Y-88185476D01*
X201120714Y-88137857D01*
X201454047Y-88137857D01*
X201644523Y-88185476D01*
X201739761Y-88280714D01*
X201787380Y-88375952D01*
X201787380Y-88566428D01*
X201120714Y-87280714D02*
X201787380Y-87280714D01*
X200739761Y-87518809D02*
X201454047Y-87756904D01*
X201454047Y-87137857D01*
X201882619Y-84280238D02*
X201835000Y-84375476D01*
X201739761Y-84470714D01*
X201596904Y-84613571D01*
X201549285Y-84708809D01*
X201549285Y-84804047D01*
X201787380Y-84756428D02*
X201739761Y-84851666D01*
X201644523Y-84946904D01*
X201454047Y-84994523D01*
X201120714Y-84994523D01*
X200930238Y-84946904D01*
X200835000Y-84851666D01*
X200787380Y-84756428D01*
X200787380Y-84565952D01*
X200835000Y-84470714D01*
X200930238Y-84375476D01*
X201120714Y-84327857D01*
X201454047Y-84327857D01*
X201644523Y-84375476D01*
X201739761Y-84470714D01*
X201787380Y-84565952D01*
X201787380Y-84756428D01*
X200787380Y-83994523D02*
X200787380Y-83375476D01*
X201168333Y-83708809D01*
X201168333Y-83565952D01*
X201215952Y-83470714D01*
X201263571Y-83423095D01*
X201358809Y-83375476D01*
X201596904Y-83375476D01*
X201692142Y-83423095D01*
X201739761Y-83470714D01*
X201787380Y-83565952D01*
X201787380Y-83851666D01*
X201739761Y-83946904D01*
X201692142Y-83994523D01*
X201882619Y-78200238D02*
X201835000Y-78295476D01*
X201739761Y-78390714D01*
X201596904Y-78533571D01*
X201549285Y-78628809D01*
X201549285Y-78724047D01*
X201787380Y-78676428D02*
X201739761Y-78771666D01*
X201644523Y-78866904D01*
X201454047Y-78914523D01*
X201120714Y-78914523D01*
X200930238Y-78866904D01*
X200835000Y-78771666D01*
X200787380Y-78676428D01*
X200787380Y-78485952D01*
X200835000Y-78390714D01*
X200930238Y-78295476D01*
X201120714Y-78247857D01*
X201454047Y-78247857D01*
X201644523Y-78295476D01*
X201739761Y-78390714D01*
X201787380Y-78485952D01*
X201787380Y-78676428D01*
X200882619Y-77866904D02*
X200835000Y-77819285D01*
X200787380Y-77724047D01*
X200787380Y-77485952D01*
X200835000Y-77390714D01*
X200882619Y-77343095D01*
X200977857Y-77295476D01*
X201073095Y-77295476D01*
X201215952Y-77343095D01*
X201787380Y-77914523D01*
X201787380Y-77295476D01*
X201882619Y-74390238D02*
X201835000Y-74485476D01*
X201739761Y-74580714D01*
X201596904Y-74723571D01*
X201549285Y-74818809D01*
X201549285Y-74914047D01*
X201787380Y-74866428D02*
X201739761Y-74961666D01*
X201644523Y-75056904D01*
X201454047Y-75104523D01*
X201120714Y-75104523D01*
X200930238Y-75056904D01*
X200835000Y-74961666D01*
X200787380Y-74866428D01*
X200787380Y-74675952D01*
X200835000Y-74580714D01*
X200930238Y-74485476D01*
X201120714Y-74437857D01*
X201454047Y-74437857D01*
X201644523Y-74485476D01*
X201739761Y-74580714D01*
X201787380Y-74675952D01*
X201787380Y-74866428D01*
X201787380Y-73485476D02*
X201787380Y-74056904D01*
X201787380Y-73771190D02*
X200787380Y-73771190D01*
X200930238Y-73866428D01*
X201025476Y-73961666D01*
X201073095Y-74056904D01*
X145136904Y-56607380D02*
X145136904Y-55607380D01*
X145517857Y-55607380D01*
X145613095Y-55655000D01*
X145660714Y-55702619D01*
X145708333Y-55797857D01*
X145708333Y-55940714D01*
X145660714Y-56035952D01*
X145613095Y-56083571D01*
X145517857Y-56131190D01*
X145136904Y-56131190D01*
X146041666Y-55607380D02*
X146708333Y-55607380D01*
X146279761Y-56607380D01*
X139242380Y-77223095D02*
X138242380Y-77223095D01*
X138242380Y-76842142D01*
X138290000Y-76746904D01*
X138337619Y-76699285D01*
X138432857Y-76651666D01*
X138575714Y-76651666D01*
X138670952Y-76699285D01*
X138718571Y-76746904D01*
X138766190Y-76842142D01*
X138766190Y-77223095D01*
X139242380Y-75699285D02*
X139242380Y-76270714D01*
X139242380Y-75985000D02*
X138242380Y-75985000D01*
X138385238Y-76080238D01*
X138480476Y-76175476D01*
X138528095Y-76270714D01*
X166247380Y-59388333D02*
X166961666Y-59388333D01*
X167104523Y-59435952D01*
X167199761Y-59531190D01*
X167247380Y-59674047D01*
X167247380Y-59769285D01*
X167247380Y-58388333D02*
X167247380Y-58959761D01*
X167247380Y-58674047D02*
X166247380Y-58674047D01*
X166390238Y-58769285D01*
X166485476Y-58864523D01*
X166533095Y-58959761D01*
X195436904Y-56372380D02*
X195436904Y-55372380D01*
X195675000Y-55372380D01*
X195817857Y-55420000D01*
X195913095Y-55515238D01*
X195960714Y-55610476D01*
X196008333Y-55800952D01*
X196008333Y-55943809D01*
X195960714Y-56134285D01*
X195913095Y-56229523D01*
X195817857Y-56324761D01*
X195675000Y-56372380D01*
X195436904Y-56372380D01*
X196913095Y-55372380D02*
X196436904Y-55372380D01*
X196389285Y-55848571D01*
X196436904Y-55800952D01*
X196532142Y-55753333D01*
X196770238Y-55753333D01*
X196865476Y-55800952D01*
X196913095Y-55848571D01*
X196960714Y-55943809D01*
X196960714Y-56181904D01*
X196913095Y-56277142D01*
X196865476Y-56324761D01*
X196770238Y-56372380D01*
X196532142Y-56372380D01*
X196436904Y-56324761D01*
X196389285Y-56277142D01*
X201707380Y-68088095D02*
X200707380Y-68088095D01*
X200707380Y-67850000D01*
X200755000Y-67707142D01*
X200850238Y-67611904D01*
X200945476Y-67564285D01*
X201135952Y-67516666D01*
X201278809Y-67516666D01*
X201469285Y-67564285D01*
X201564523Y-67611904D01*
X201659761Y-67707142D01*
X201707380Y-67850000D01*
X201707380Y-68088095D01*
X201040714Y-66659523D02*
X201707380Y-66659523D01*
X200659761Y-66897619D02*
X201374047Y-67135714D01*
X201374047Y-66516666D01*
X140066904Y-90782380D02*
X140066904Y-89782380D01*
X140305000Y-89782380D01*
X140447857Y-89830000D01*
X140543095Y-89925238D01*
X140590714Y-90020476D01*
X140638333Y-90210952D01*
X140638333Y-90353809D01*
X140590714Y-90544285D01*
X140543095Y-90639523D01*
X140447857Y-90734761D01*
X140305000Y-90782380D01*
X140066904Y-90782380D01*
X140971666Y-89782380D02*
X141590714Y-89782380D01*
X141257380Y-90163333D01*
X141400238Y-90163333D01*
X141495476Y-90210952D01*
X141543095Y-90258571D01*
X141590714Y-90353809D01*
X141590714Y-90591904D01*
X141543095Y-90687142D01*
X141495476Y-90734761D01*
X141400238Y-90782380D01*
X141114523Y-90782380D01*
X141019285Y-90734761D01*
X140971666Y-90687142D01*
X140066904Y-86972380D02*
X140066904Y-85972380D01*
X140305000Y-85972380D01*
X140447857Y-86020000D01*
X140543095Y-86115238D01*
X140590714Y-86210476D01*
X140638333Y-86400952D01*
X140638333Y-86543809D01*
X140590714Y-86734285D01*
X140543095Y-86829523D01*
X140447857Y-86924761D01*
X140305000Y-86972380D01*
X140066904Y-86972380D01*
X141019285Y-86067619D02*
X141066904Y-86020000D01*
X141162142Y-85972380D01*
X141400238Y-85972380D01*
X141495476Y-86020000D01*
X141543095Y-86067619D01*
X141590714Y-86162857D01*
X141590714Y-86258095D01*
X141543095Y-86400952D01*
X140971666Y-86972380D01*
X141590714Y-86972380D01*
X140066904Y-88877380D02*
X140066904Y-87877380D01*
X140305000Y-87877380D01*
X140447857Y-87925000D01*
X140543095Y-88020238D01*
X140590714Y-88115476D01*
X140638333Y-88305952D01*
X140638333Y-88448809D01*
X140590714Y-88639285D01*
X140543095Y-88734523D01*
X140447857Y-88829761D01*
X140305000Y-88877380D01*
X140066904Y-88877380D01*
X141590714Y-88877380D02*
X141019285Y-88877380D01*
X141305000Y-88877380D02*
X141305000Y-87877380D01*
X141209761Y-88020238D01*
X141114523Y-88115476D01*
X141019285Y-88163095D01*
X147202142Y-68435357D02*
X147249761Y-68482976D01*
X147297380Y-68625833D01*
X147297380Y-68721071D01*
X147249761Y-68863928D01*
X147154523Y-68959166D01*
X147059285Y-69006785D01*
X146868809Y-69054404D01*
X146725952Y-69054404D01*
X146535476Y-69006785D01*
X146440238Y-68959166D01*
X146345000Y-68863928D01*
X146297380Y-68721071D01*
X146297380Y-68625833D01*
X146345000Y-68482976D01*
X146392619Y-68435357D01*
X146630714Y-67578214D02*
X147297380Y-67578214D01*
X146249761Y-67816309D02*
X146964047Y-68054404D01*
X146964047Y-67435357D01*
X146297380Y-66863928D02*
X146297380Y-66768690D01*
X146345000Y-66673452D01*
X146392619Y-66625833D01*
X146487857Y-66578214D01*
X146678333Y-66530595D01*
X146916428Y-66530595D01*
X147106904Y-66578214D01*
X147202142Y-66625833D01*
X147249761Y-66673452D01*
X147297380Y-66768690D01*
X147297380Y-66863928D01*
X147249761Y-66959166D01*
X147202142Y-67006785D01*
X147106904Y-67054404D01*
X146916428Y-67102023D01*
X146678333Y-67102023D01*
X146487857Y-67054404D01*
X146392619Y-67006785D01*
X146345000Y-66959166D01*
X146297380Y-66863928D01*
X149742142Y-68435357D02*
X149789761Y-68482976D01*
X149837380Y-68625833D01*
X149837380Y-68721071D01*
X149789761Y-68863928D01*
X149694523Y-68959166D01*
X149599285Y-69006785D01*
X149408809Y-69054404D01*
X149265952Y-69054404D01*
X149075476Y-69006785D01*
X148980238Y-68959166D01*
X148885000Y-68863928D01*
X148837380Y-68721071D01*
X148837380Y-68625833D01*
X148885000Y-68482976D01*
X148932619Y-68435357D01*
X148837380Y-68102023D02*
X148837380Y-67482976D01*
X149218333Y-67816309D01*
X149218333Y-67673452D01*
X149265952Y-67578214D01*
X149313571Y-67530595D01*
X149408809Y-67482976D01*
X149646904Y-67482976D01*
X149742142Y-67530595D01*
X149789761Y-67578214D01*
X149837380Y-67673452D01*
X149837380Y-67959166D01*
X149789761Y-68054404D01*
X149742142Y-68102023D01*
X149837380Y-67006785D02*
X149837380Y-66816309D01*
X149789761Y-66721071D01*
X149742142Y-66673452D01*
X149599285Y-66578214D01*
X149408809Y-66530595D01*
X149027857Y-66530595D01*
X148932619Y-66578214D01*
X148885000Y-66625833D01*
X148837380Y-66721071D01*
X148837380Y-66911547D01*
X148885000Y-67006785D01*
X148932619Y-67054404D01*
X149027857Y-67102023D01*
X149265952Y-67102023D01*
X149361190Y-67054404D01*
X149408809Y-67006785D01*
X149456428Y-66911547D01*
X149456428Y-66721071D01*
X149408809Y-66625833D01*
X149361190Y-66578214D01*
X149265952Y-66530595D01*
X160647142Y-74812142D02*
X160599523Y-74859761D01*
X160456666Y-74907380D01*
X160361428Y-74907380D01*
X160218571Y-74859761D01*
X160123333Y-74764523D01*
X160075714Y-74669285D01*
X160028095Y-74478809D01*
X160028095Y-74335952D01*
X160075714Y-74145476D01*
X160123333Y-74050238D01*
X160218571Y-73955000D01*
X160361428Y-73907380D01*
X160456666Y-73907380D01*
X160599523Y-73955000D01*
X160647142Y-74002619D01*
X160980476Y-73907380D02*
X161599523Y-73907380D01*
X161266190Y-74288333D01*
X161409047Y-74288333D01*
X161504285Y-74335952D01*
X161551904Y-74383571D01*
X161599523Y-74478809D01*
X161599523Y-74716904D01*
X161551904Y-74812142D01*
X161504285Y-74859761D01*
X161409047Y-74907380D01*
X161123333Y-74907380D01*
X161028095Y-74859761D01*
X160980476Y-74812142D01*
X162170952Y-74335952D02*
X162075714Y-74288333D01*
X162028095Y-74240714D01*
X161980476Y-74145476D01*
X161980476Y-74097857D01*
X162028095Y-74002619D01*
X162075714Y-73955000D01*
X162170952Y-73907380D01*
X162361428Y-73907380D01*
X162456666Y-73955000D01*
X162504285Y-74002619D01*
X162551904Y-74097857D01*
X162551904Y-74145476D01*
X162504285Y-74240714D01*
X162456666Y-74288333D01*
X162361428Y-74335952D01*
X162170952Y-74335952D01*
X162075714Y-74383571D01*
X162028095Y-74431190D01*
X161980476Y-74526428D01*
X161980476Y-74716904D01*
X162028095Y-74812142D01*
X162075714Y-74859761D01*
X162170952Y-74907380D01*
X162361428Y-74907380D01*
X162456666Y-74859761D01*
X162504285Y-74812142D01*
X162551904Y-74716904D01*
X162551904Y-74526428D01*
X162504285Y-74431190D01*
X162456666Y-74383571D01*
X162361428Y-74335952D01*
X158894642Y-84972142D02*
X158847023Y-85019761D01*
X158704166Y-85067380D01*
X158608928Y-85067380D01*
X158466071Y-85019761D01*
X158370833Y-84924523D01*
X158323214Y-84829285D01*
X158275595Y-84638809D01*
X158275595Y-84495952D01*
X158323214Y-84305476D01*
X158370833Y-84210238D01*
X158466071Y-84115000D01*
X158608928Y-84067380D01*
X158704166Y-84067380D01*
X158847023Y-84115000D01*
X158894642Y-84162619D01*
X159227976Y-84067380D02*
X159847023Y-84067380D01*
X159513690Y-84448333D01*
X159656547Y-84448333D01*
X159751785Y-84495952D01*
X159799404Y-84543571D01*
X159847023Y-84638809D01*
X159847023Y-84876904D01*
X159799404Y-84972142D01*
X159751785Y-85019761D01*
X159656547Y-85067380D01*
X159370833Y-85067380D01*
X159275595Y-85019761D01*
X159227976Y-84972142D01*
X160180357Y-84067380D02*
X160847023Y-84067380D01*
X160418452Y-85067380D01*
X148152142Y-87637857D02*
X148199761Y-87685476D01*
X148247380Y-87828333D01*
X148247380Y-87923571D01*
X148199761Y-88066428D01*
X148104523Y-88161666D01*
X148009285Y-88209285D01*
X147818809Y-88256904D01*
X147675952Y-88256904D01*
X147485476Y-88209285D01*
X147390238Y-88161666D01*
X147295000Y-88066428D01*
X147247380Y-87923571D01*
X147247380Y-87828333D01*
X147295000Y-87685476D01*
X147342619Y-87637857D01*
X147247380Y-87304523D02*
X147247380Y-86685476D01*
X147628333Y-87018809D01*
X147628333Y-86875952D01*
X147675952Y-86780714D01*
X147723571Y-86733095D01*
X147818809Y-86685476D01*
X148056904Y-86685476D01*
X148152142Y-86733095D01*
X148199761Y-86780714D01*
X148247380Y-86875952D01*
X148247380Y-87161666D01*
X148199761Y-87256904D01*
X148152142Y-87304523D01*
X147247380Y-85828333D02*
X147247380Y-86018809D01*
X147295000Y-86114047D01*
X147342619Y-86161666D01*
X147485476Y-86256904D01*
X147675952Y-86304523D01*
X148056904Y-86304523D01*
X148152142Y-86256904D01*
X148199761Y-86209285D01*
X148247380Y-86114047D01*
X148247380Y-85923571D01*
X148199761Y-85828333D01*
X148152142Y-85780714D01*
X148056904Y-85733095D01*
X147818809Y-85733095D01*
X147723571Y-85780714D01*
X147675952Y-85828333D01*
X147628333Y-85923571D01*
X147628333Y-86114047D01*
X147675952Y-86209285D01*
X147723571Y-86256904D01*
X147818809Y-86304523D01*
X141597142Y-77987142D02*
X141549523Y-78034761D01*
X141406666Y-78082380D01*
X141311428Y-78082380D01*
X141168571Y-78034761D01*
X141073333Y-77939523D01*
X141025714Y-77844285D01*
X140978095Y-77653809D01*
X140978095Y-77510952D01*
X141025714Y-77320476D01*
X141073333Y-77225238D01*
X141168571Y-77130000D01*
X141311428Y-77082380D01*
X141406666Y-77082380D01*
X141549523Y-77130000D01*
X141597142Y-77177619D01*
X141930476Y-77082380D02*
X142549523Y-77082380D01*
X142216190Y-77463333D01*
X142359047Y-77463333D01*
X142454285Y-77510952D01*
X142501904Y-77558571D01*
X142549523Y-77653809D01*
X142549523Y-77891904D01*
X142501904Y-77987142D01*
X142454285Y-78034761D01*
X142359047Y-78082380D01*
X142073333Y-78082380D01*
X141978095Y-78034761D01*
X141930476Y-77987142D01*
X143454285Y-77082380D02*
X142978095Y-77082380D01*
X142930476Y-77558571D01*
X142978095Y-77510952D01*
X143073333Y-77463333D01*
X143311428Y-77463333D01*
X143406666Y-77510952D01*
X143454285Y-77558571D01*
X143501904Y-77653809D01*
X143501904Y-77891904D01*
X143454285Y-77987142D01*
X143406666Y-78034761D01*
X143311428Y-78082380D01*
X143073333Y-78082380D01*
X142978095Y-78034761D01*
X142930476Y-77987142D01*
X141597142Y-80842142D02*
X141549523Y-80889761D01*
X141406666Y-80937380D01*
X141311428Y-80937380D01*
X141168571Y-80889761D01*
X141073333Y-80794523D01*
X141025714Y-80699285D01*
X140978095Y-80508809D01*
X140978095Y-80365952D01*
X141025714Y-80175476D01*
X141073333Y-80080238D01*
X141168571Y-79985000D01*
X141311428Y-79937380D01*
X141406666Y-79937380D01*
X141549523Y-79985000D01*
X141597142Y-80032619D01*
X141930476Y-79937380D02*
X142549523Y-79937380D01*
X142216190Y-80318333D01*
X142359047Y-80318333D01*
X142454285Y-80365952D01*
X142501904Y-80413571D01*
X142549523Y-80508809D01*
X142549523Y-80746904D01*
X142501904Y-80842142D01*
X142454285Y-80889761D01*
X142359047Y-80937380D01*
X142073333Y-80937380D01*
X141978095Y-80889761D01*
X141930476Y-80842142D01*
X143406666Y-80270714D02*
X143406666Y-80937380D01*
X143168571Y-79889761D02*
X142930476Y-80604047D01*
X143549523Y-80604047D01*
X141597142Y-77032142D02*
X141549523Y-77079761D01*
X141406666Y-77127380D01*
X141311428Y-77127380D01*
X141168571Y-77079761D01*
X141073333Y-76984523D01*
X141025714Y-76889285D01*
X140978095Y-76698809D01*
X140978095Y-76555952D01*
X141025714Y-76365476D01*
X141073333Y-76270238D01*
X141168571Y-76175000D01*
X141311428Y-76127380D01*
X141406666Y-76127380D01*
X141549523Y-76175000D01*
X141597142Y-76222619D01*
X141930476Y-76127380D02*
X142549523Y-76127380D01*
X142216190Y-76508333D01*
X142359047Y-76508333D01*
X142454285Y-76555952D01*
X142501904Y-76603571D01*
X142549523Y-76698809D01*
X142549523Y-76936904D01*
X142501904Y-77032142D01*
X142454285Y-77079761D01*
X142359047Y-77127380D01*
X142073333Y-77127380D01*
X141978095Y-77079761D01*
X141930476Y-77032142D01*
X142882857Y-76127380D02*
X143501904Y-76127380D01*
X143168571Y-76508333D01*
X143311428Y-76508333D01*
X143406666Y-76555952D01*
X143454285Y-76603571D01*
X143501904Y-76698809D01*
X143501904Y-76936904D01*
X143454285Y-77032142D01*
X143406666Y-77079761D01*
X143311428Y-77127380D01*
X143025714Y-77127380D01*
X142930476Y-77079761D01*
X142882857Y-77032142D01*
X141597142Y-78937142D02*
X141549523Y-78984761D01*
X141406666Y-79032380D01*
X141311428Y-79032380D01*
X141168571Y-78984761D01*
X141073333Y-78889523D01*
X141025714Y-78794285D01*
X140978095Y-78603809D01*
X140978095Y-78460952D01*
X141025714Y-78270476D01*
X141073333Y-78175238D01*
X141168571Y-78080000D01*
X141311428Y-78032380D01*
X141406666Y-78032380D01*
X141549523Y-78080000D01*
X141597142Y-78127619D01*
X141930476Y-78032380D02*
X142549523Y-78032380D01*
X142216190Y-78413333D01*
X142359047Y-78413333D01*
X142454285Y-78460952D01*
X142501904Y-78508571D01*
X142549523Y-78603809D01*
X142549523Y-78841904D01*
X142501904Y-78937142D01*
X142454285Y-78984761D01*
X142359047Y-79032380D01*
X142073333Y-79032380D01*
X141978095Y-78984761D01*
X141930476Y-78937142D01*
X142930476Y-78127619D02*
X142978095Y-78080000D01*
X143073333Y-78032380D01*
X143311428Y-78032380D01*
X143406666Y-78080000D01*
X143454285Y-78127619D01*
X143501904Y-78222857D01*
X143501904Y-78318095D01*
X143454285Y-78460952D01*
X142882857Y-79032380D01*
X143501904Y-79032380D01*
X160647142Y-73857142D02*
X160599523Y-73904761D01*
X160456666Y-73952380D01*
X160361428Y-73952380D01*
X160218571Y-73904761D01*
X160123333Y-73809523D01*
X160075714Y-73714285D01*
X160028095Y-73523809D01*
X160028095Y-73380952D01*
X160075714Y-73190476D01*
X160123333Y-73095238D01*
X160218571Y-73000000D01*
X160361428Y-72952380D01*
X160456666Y-72952380D01*
X160599523Y-73000000D01*
X160647142Y-73047619D01*
X160980476Y-72952380D02*
X161599523Y-72952380D01*
X161266190Y-73333333D01*
X161409047Y-73333333D01*
X161504285Y-73380952D01*
X161551904Y-73428571D01*
X161599523Y-73523809D01*
X161599523Y-73761904D01*
X161551904Y-73857142D01*
X161504285Y-73904761D01*
X161409047Y-73952380D01*
X161123333Y-73952380D01*
X161028095Y-73904761D01*
X160980476Y-73857142D01*
X162551904Y-73952380D02*
X161980476Y-73952380D01*
X162266190Y-73952380D02*
X162266190Y-72952380D01*
X162170952Y-73095238D01*
X162075714Y-73190476D01*
X161980476Y-73238095D01*
X158632142Y-87637857D02*
X158679761Y-87685476D01*
X158727380Y-87828333D01*
X158727380Y-87923571D01*
X158679761Y-88066428D01*
X158584523Y-88161666D01*
X158489285Y-88209285D01*
X158298809Y-88256904D01*
X158155952Y-88256904D01*
X157965476Y-88209285D01*
X157870238Y-88161666D01*
X157775000Y-88066428D01*
X157727380Y-87923571D01*
X157727380Y-87828333D01*
X157775000Y-87685476D01*
X157822619Y-87637857D01*
X157727380Y-87304523D02*
X157727380Y-86685476D01*
X158108333Y-87018809D01*
X158108333Y-86875952D01*
X158155952Y-86780714D01*
X158203571Y-86733095D01*
X158298809Y-86685476D01*
X158536904Y-86685476D01*
X158632142Y-86733095D01*
X158679761Y-86780714D01*
X158727380Y-86875952D01*
X158727380Y-87161666D01*
X158679761Y-87256904D01*
X158632142Y-87304523D01*
X157727380Y-86066428D02*
X157727380Y-85971190D01*
X157775000Y-85875952D01*
X157822619Y-85828333D01*
X157917857Y-85780714D01*
X158108333Y-85733095D01*
X158346428Y-85733095D01*
X158536904Y-85780714D01*
X158632142Y-85828333D01*
X158679761Y-85875952D01*
X158727380Y-85971190D01*
X158727380Y-86066428D01*
X158679761Y-86161666D01*
X158632142Y-86209285D01*
X158536904Y-86256904D01*
X158346428Y-86304523D01*
X158108333Y-86304523D01*
X157917857Y-86256904D01*
X157822619Y-86209285D01*
X157775000Y-86161666D01*
X157727380Y-86066428D01*
X141597142Y-67507142D02*
X141549523Y-67554761D01*
X141406666Y-67602380D01*
X141311428Y-67602380D01*
X141168571Y-67554761D01*
X141073333Y-67459523D01*
X141025714Y-67364285D01*
X140978095Y-67173809D01*
X140978095Y-67030952D01*
X141025714Y-66840476D01*
X141073333Y-66745238D01*
X141168571Y-66650000D01*
X141311428Y-66602380D01*
X141406666Y-66602380D01*
X141549523Y-66650000D01*
X141597142Y-66697619D01*
X141978095Y-66697619D02*
X142025714Y-66650000D01*
X142120952Y-66602380D01*
X142359047Y-66602380D01*
X142454285Y-66650000D01*
X142501904Y-66697619D01*
X142549523Y-66792857D01*
X142549523Y-66888095D01*
X142501904Y-67030952D01*
X141930476Y-67602380D01*
X142549523Y-67602380D01*
X143025714Y-67602380D02*
X143216190Y-67602380D01*
X143311428Y-67554761D01*
X143359047Y-67507142D01*
X143454285Y-67364285D01*
X143501904Y-67173809D01*
X143501904Y-66792857D01*
X143454285Y-66697619D01*
X143406666Y-66650000D01*
X143311428Y-66602380D01*
X143120952Y-66602380D01*
X143025714Y-66650000D01*
X142978095Y-66697619D01*
X142930476Y-66792857D01*
X142930476Y-67030952D01*
X142978095Y-67126190D01*
X143025714Y-67173809D01*
X143120952Y-67221428D01*
X143311428Y-67221428D01*
X143406666Y-67173809D01*
X143454285Y-67126190D01*
X143501904Y-67030952D01*
X186047142Y-92592142D02*
X185999523Y-92639761D01*
X185856666Y-92687380D01*
X185761428Y-92687380D01*
X185618571Y-92639761D01*
X185523333Y-92544523D01*
X185475714Y-92449285D01*
X185428095Y-92258809D01*
X185428095Y-92115952D01*
X185475714Y-91925476D01*
X185523333Y-91830238D01*
X185618571Y-91735000D01*
X185761428Y-91687380D01*
X185856666Y-91687380D01*
X185999523Y-91735000D01*
X186047142Y-91782619D01*
X186428095Y-91782619D02*
X186475714Y-91735000D01*
X186570952Y-91687380D01*
X186809047Y-91687380D01*
X186904285Y-91735000D01*
X186951904Y-91782619D01*
X186999523Y-91877857D01*
X186999523Y-91973095D01*
X186951904Y-92115952D01*
X186380476Y-92687380D01*
X186999523Y-92687380D01*
X187570952Y-92115952D02*
X187475714Y-92068333D01*
X187428095Y-92020714D01*
X187380476Y-91925476D01*
X187380476Y-91877857D01*
X187428095Y-91782619D01*
X187475714Y-91735000D01*
X187570952Y-91687380D01*
X187761428Y-91687380D01*
X187856666Y-91735000D01*
X187904285Y-91782619D01*
X187951904Y-91877857D01*
X187951904Y-91925476D01*
X187904285Y-92020714D01*
X187856666Y-92068333D01*
X187761428Y-92115952D01*
X187570952Y-92115952D01*
X187475714Y-92163571D01*
X187428095Y-92211190D01*
X187380476Y-92306428D01*
X187380476Y-92496904D01*
X187428095Y-92592142D01*
X187475714Y-92639761D01*
X187570952Y-92687380D01*
X187761428Y-92687380D01*
X187856666Y-92639761D01*
X187904285Y-92592142D01*
X187951904Y-92496904D01*
X187951904Y-92306428D01*
X187904285Y-92211190D01*
X187856666Y-92163571D01*
X187761428Y-92115952D01*
X189857142Y-92982142D02*
X189809523Y-93029761D01*
X189666666Y-93077380D01*
X189571428Y-93077380D01*
X189428571Y-93029761D01*
X189333333Y-92934523D01*
X189285714Y-92839285D01*
X189238095Y-92648809D01*
X189238095Y-92505952D01*
X189285714Y-92315476D01*
X189333333Y-92220238D01*
X189428571Y-92125000D01*
X189571428Y-92077380D01*
X189666666Y-92077380D01*
X189809523Y-92125000D01*
X189857142Y-92172619D01*
X190238095Y-92172619D02*
X190285714Y-92125000D01*
X190380952Y-92077380D01*
X190619047Y-92077380D01*
X190714285Y-92125000D01*
X190761904Y-92172619D01*
X190809523Y-92267857D01*
X190809523Y-92363095D01*
X190761904Y-92505952D01*
X190190476Y-93077380D01*
X190809523Y-93077380D01*
X191142857Y-92077380D02*
X191809523Y-92077380D01*
X191380952Y-93077380D01*
X189857142Y-89807142D02*
X189809523Y-89854761D01*
X189666666Y-89902380D01*
X189571428Y-89902380D01*
X189428571Y-89854761D01*
X189333333Y-89759523D01*
X189285714Y-89664285D01*
X189238095Y-89473809D01*
X189238095Y-89330952D01*
X189285714Y-89140476D01*
X189333333Y-89045238D01*
X189428571Y-88950000D01*
X189571428Y-88902380D01*
X189666666Y-88902380D01*
X189809523Y-88950000D01*
X189857142Y-88997619D01*
X190238095Y-88997619D02*
X190285714Y-88950000D01*
X190380952Y-88902380D01*
X190619047Y-88902380D01*
X190714285Y-88950000D01*
X190761904Y-88997619D01*
X190809523Y-89092857D01*
X190809523Y-89188095D01*
X190761904Y-89330952D01*
X190190476Y-89902380D01*
X190809523Y-89902380D01*
X191666666Y-88902380D02*
X191476190Y-88902380D01*
X191380952Y-88950000D01*
X191333333Y-88997619D01*
X191238095Y-89140476D01*
X191190476Y-89330952D01*
X191190476Y-89711904D01*
X191238095Y-89807142D01*
X191285714Y-89854761D01*
X191380952Y-89902380D01*
X191571428Y-89902380D01*
X191666666Y-89854761D01*
X191714285Y-89807142D01*
X191761904Y-89711904D01*
X191761904Y-89473809D01*
X191714285Y-89378571D01*
X191666666Y-89330952D01*
X191571428Y-89283333D01*
X191380952Y-89283333D01*
X191285714Y-89330952D01*
X191238095Y-89378571D01*
X191190476Y-89473809D01*
X204472142Y-58302142D02*
X204424523Y-58349761D01*
X204281666Y-58397380D01*
X204186428Y-58397380D01*
X204043571Y-58349761D01*
X203948333Y-58254523D01*
X203900714Y-58159285D01*
X203853095Y-57968809D01*
X203853095Y-57825952D01*
X203900714Y-57635476D01*
X203948333Y-57540238D01*
X204043571Y-57445000D01*
X204186428Y-57397380D01*
X204281666Y-57397380D01*
X204424523Y-57445000D01*
X204472142Y-57492619D01*
X204853095Y-57492619D02*
X204900714Y-57445000D01*
X204995952Y-57397380D01*
X205234047Y-57397380D01*
X205329285Y-57445000D01*
X205376904Y-57492619D01*
X205424523Y-57587857D01*
X205424523Y-57683095D01*
X205376904Y-57825952D01*
X204805476Y-58397380D01*
X205424523Y-58397380D01*
X206329285Y-57397380D02*
X205853095Y-57397380D01*
X205805476Y-57873571D01*
X205853095Y-57825952D01*
X205948333Y-57778333D01*
X206186428Y-57778333D01*
X206281666Y-57825952D01*
X206329285Y-57873571D01*
X206376904Y-57968809D01*
X206376904Y-58206904D01*
X206329285Y-58302142D01*
X206281666Y-58349761D01*
X206186428Y-58397380D01*
X205948333Y-58397380D01*
X205853095Y-58349761D01*
X205805476Y-58302142D01*
X203192142Y-65212142D02*
X203144523Y-65259761D01*
X203001666Y-65307380D01*
X202906428Y-65307380D01*
X202763571Y-65259761D01*
X202668333Y-65164523D01*
X202620714Y-65069285D01*
X202573095Y-64878809D01*
X202573095Y-64735952D01*
X202620714Y-64545476D01*
X202668333Y-64450238D01*
X202763571Y-64355000D01*
X202906428Y-64307380D01*
X203001666Y-64307380D01*
X203144523Y-64355000D01*
X203192142Y-64402619D01*
X203573095Y-64402619D02*
X203620714Y-64355000D01*
X203715952Y-64307380D01*
X203954047Y-64307380D01*
X204049285Y-64355000D01*
X204096904Y-64402619D01*
X204144523Y-64497857D01*
X204144523Y-64593095D01*
X204096904Y-64735952D01*
X203525476Y-65307380D01*
X204144523Y-65307380D01*
X205001666Y-64640714D02*
X205001666Y-65307380D01*
X204763571Y-64259761D02*
X204525476Y-64974047D01*
X205144523Y-64974047D01*
X203192142Y-68387142D02*
X203144523Y-68434761D01*
X203001666Y-68482380D01*
X202906428Y-68482380D01*
X202763571Y-68434761D01*
X202668333Y-68339523D01*
X202620714Y-68244285D01*
X202573095Y-68053809D01*
X202573095Y-67910952D01*
X202620714Y-67720476D01*
X202668333Y-67625238D01*
X202763571Y-67530000D01*
X202906428Y-67482380D01*
X203001666Y-67482380D01*
X203144523Y-67530000D01*
X203192142Y-67577619D01*
X203573095Y-67577619D02*
X203620714Y-67530000D01*
X203715952Y-67482380D01*
X203954047Y-67482380D01*
X204049285Y-67530000D01*
X204096904Y-67577619D01*
X204144523Y-67672857D01*
X204144523Y-67768095D01*
X204096904Y-67910952D01*
X203525476Y-68482380D01*
X204144523Y-68482380D01*
X204477857Y-67482380D02*
X205096904Y-67482380D01*
X204763571Y-67863333D01*
X204906428Y-67863333D01*
X205001666Y-67910952D01*
X205049285Y-67958571D01*
X205096904Y-68053809D01*
X205096904Y-68291904D01*
X205049285Y-68387142D01*
X205001666Y-68434761D01*
X204906428Y-68482380D01*
X204620714Y-68482380D01*
X204525476Y-68434761D01*
X204477857Y-68387142D01*
X186937142Y-63667142D02*
X186889523Y-63714761D01*
X186746666Y-63762380D01*
X186651428Y-63762380D01*
X186508571Y-63714761D01*
X186413333Y-63619523D01*
X186365714Y-63524285D01*
X186318095Y-63333809D01*
X186318095Y-63190952D01*
X186365714Y-63000476D01*
X186413333Y-62905238D01*
X186508571Y-62810000D01*
X186651428Y-62762380D01*
X186746666Y-62762380D01*
X186889523Y-62810000D01*
X186937142Y-62857619D01*
X187318095Y-62857619D02*
X187365714Y-62810000D01*
X187460952Y-62762380D01*
X187699047Y-62762380D01*
X187794285Y-62810000D01*
X187841904Y-62857619D01*
X187889523Y-62952857D01*
X187889523Y-63048095D01*
X187841904Y-63190952D01*
X187270476Y-63762380D01*
X187889523Y-63762380D01*
X188270476Y-62857619D02*
X188318095Y-62810000D01*
X188413333Y-62762380D01*
X188651428Y-62762380D01*
X188746666Y-62810000D01*
X188794285Y-62857619D01*
X188841904Y-62952857D01*
X188841904Y-63048095D01*
X188794285Y-63190952D01*
X188222857Y-63762380D01*
X188841904Y-63762380D01*
X188232142Y-66177857D02*
X188279761Y-66225476D01*
X188327380Y-66368333D01*
X188327380Y-66463571D01*
X188279761Y-66606428D01*
X188184523Y-66701666D01*
X188089285Y-66749285D01*
X187898809Y-66796904D01*
X187755952Y-66796904D01*
X187565476Y-66749285D01*
X187470238Y-66701666D01*
X187375000Y-66606428D01*
X187327380Y-66463571D01*
X187327380Y-66368333D01*
X187375000Y-66225476D01*
X187422619Y-66177857D01*
X187422619Y-65796904D02*
X187375000Y-65749285D01*
X187327380Y-65654047D01*
X187327380Y-65415952D01*
X187375000Y-65320714D01*
X187422619Y-65273095D01*
X187517857Y-65225476D01*
X187613095Y-65225476D01*
X187755952Y-65273095D01*
X188327380Y-65844523D01*
X188327380Y-65225476D01*
X188327380Y-64273095D02*
X188327380Y-64844523D01*
X188327380Y-64558809D02*
X187327380Y-64558809D01*
X187470238Y-64654047D01*
X187565476Y-64749285D01*
X187613095Y-64844523D01*
X171362142Y-60600357D02*
X171409761Y-60647976D01*
X171457380Y-60790833D01*
X171457380Y-60886071D01*
X171409761Y-61028928D01*
X171314523Y-61124166D01*
X171219285Y-61171785D01*
X171028809Y-61219404D01*
X170885952Y-61219404D01*
X170695476Y-61171785D01*
X170600238Y-61124166D01*
X170505000Y-61028928D01*
X170457380Y-60886071D01*
X170457380Y-60790833D01*
X170505000Y-60647976D01*
X170552619Y-60600357D01*
X170552619Y-60219404D02*
X170505000Y-60171785D01*
X170457380Y-60076547D01*
X170457380Y-59838452D01*
X170505000Y-59743214D01*
X170552619Y-59695595D01*
X170647857Y-59647976D01*
X170743095Y-59647976D01*
X170885952Y-59695595D01*
X171457380Y-60267023D01*
X171457380Y-59647976D01*
X170457380Y-59028928D02*
X170457380Y-58933690D01*
X170505000Y-58838452D01*
X170552619Y-58790833D01*
X170647857Y-58743214D01*
X170838333Y-58695595D01*
X171076428Y-58695595D01*
X171266904Y-58743214D01*
X171362142Y-58790833D01*
X171409761Y-58838452D01*
X171457380Y-58933690D01*
X171457380Y-59028928D01*
X171409761Y-59124166D01*
X171362142Y-59171785D01*
X171266904Y-59219404D01*
X171076428Y-59267023D01*
X170838333Y-59267023D01*
X170647857Y-59219404D01*
X170552619Y-59171785D01*
X170505000Y-59124166D01*
X170457380Y-59028928D01*
X169107142Y-61207857D02*
X169154761Y-61255476D01*
X169202380Y-61398333D01*
X169202380Y-61493571D01*
X169154761Y-61636428D01*
X169059523Y-61731666D01*
X168964285Y-61779285D01*
X168773809Y-61826904D01*
X168630952Y-61826904D01*
X168440476Y-61779285D01*
X168345238Y-61731666D01*
X168250000Y-61636428D01*
X168202380Y-61493571D01*
X168202380Y-61398333D01*
X168250000Y-61255476D01*
X168297619Y-61207857D01*
X169202380Y-60255476D02*
X169202380Y-60826904D01*
X169202380Y-60541190D02*
X168202380Y-60541190D01*
X168345238Y-60636428D01*
X168440476Y-60731666D01*
X168488095Y-60826904D01*
X169202380Y-59779285D02*
X169202380Y-59588809D01*
X169154761Y-59493571D01*
X169107142Y-59445952D01*
X168964285Y-59350714D01*
X168773809Y-59303095D01*
X168392857Y-59303095D01*
X168297619Y-59350714D01*
X168250000Y-59398333D01*
X168202380Y-59493571D01*
X168202380Y-59684047D01*
X168250000Y-59779285D01*
X168297619Y-59826904D01*
X168392857Y-59874523D01*
X168630952Y-59874523D01*
X168726190Y-59826904D01*
X168773809Y-59779285D01*
X168821428Y-59684047D01*
X168821428Y-59493571D01*
X168773809Y-59398333D01*
X168726190Y-59350714D01*
X168630952Y-59303095D01*
X177997142Y-85337857D02*
X178044761Y-85385476D01*
X178092380Y-85528333D01*
X178092380Y-85623571D01*
X178044761Y-85766428D01*
X177949523Y-85861666D01*
X177854285Y-85909285D01*
X177663809Y-85956904D01*
X177520952Y-85956904D01*
X177330476Y-85909285D01*
X177235238Y-85861666D01*
X177140000Y-85766428D01*
X177092380Y-85623571D01*
X177092380Y-85528333D01*
X177140000Y-85385476D01*
X177187619Y-85337857D01*
X178092380Y-84385476D02*
X178092380Y-84956904D01*
X178092380Y-84671190D02*
X177092380Y-84671190D01*
X177235238Y-84766428D01*
X177330476Y-84861666D01*
X177378095Y-84956904D01*
X177520952Y-83814047D02*
X177473333Y-83909285D01*
X177425714Y-83956904D01*
X177330476Y-84004523D01*
X177282857Y-84004523D01*
X177187619Y-83956904D01*
X177140000Y-83909285D01*
X177092380Y-83814047D01*
X177092380Y-83623571D01*
X177140000Y-83528333D01*
X177187619Y-83480714D01*
X177282857Y-83433095D01*
X177330476Y-83433095D01*
X177425714Y-83480714D01*
X177473333Y-83528333D01*
X177520952Y-83623571D01*
X177520952Y-83814047D01*
X177568571Y-83909285D01*
X177616190Y-83956904D01*
X177711428Y-84004523D01*
X177901904Y-84004523D01*
X177997142Y-83956904D01*
X178044761Y-83909285D01*
X178092380Y-83814047D01*
X178092380Y-83623571D01*
X178044761Y-83528333D01*
X177997142Y-83480714D01*
X177901904Y-83433095D01*
X177711428Y-83433095D01*
X177616190Y-83480714D01*
X177568571Y-83528333D01*
X177520952Y-83623571D01*
X189112142Y-83192857D02*
X189159761Y-83240476D01*
X189207380Y-83383333D01*
X189207380Y-83478571D01*
X189159761Y-83621428D01*
X189064523Y-83716666D01*
X188969285Y-83764285D01*
X188778809Y-83811904D01*
X188635952Y-83811904D01*
X188445476Y-83764285D01*
X188350238Y-83716666D01*
X188255000Y-83621428D01*
X188207380Y-83478571D01*
X188207380Y-83383333D01*
X188255000Y-83240476D01*
X188302619Y-83192857D01*
X189207380Y-82240476D02*
X189207380Y-82811904D01*
X189207380Y-82526190D02*
X188207380Y-82526190D01*
X188350238Y-82621428D01*
X188445476Y-82716666D01*
X188493095Y-82811904D01*
X188207380Y-81907142D02*
X188207380Y-81240476D01*
X189207380Y-81669047D01*
X188157142Y-79622857D02*
X188204761Y-79670476D01*
X188252380Y-79813333D01*
X188252380Y-79908571D01*
X188204761Y-80051428D01*
X188109523Y-80146666D01*
X188014285Y-80194285D01*
X187823809Y-80241904D01*
X187680952Y-80241904D01*
X187490476Y-80194285D01*
X187395238Y-80146666D01*
X187300000Y-80051428D01*
X187252380Y-79908571D01*
X187252380Y-79813333D01*
X187300000Y-79670476D01*
X187347619Y-79622857D01*
X188252380Y-78670476D02*
X188252380Y-79241904D01*
X188252380Y-78956190D02*
X187252380Y-78956190D01*
X187395238Y-79051428D01*
X187490476Y-79146666D01*
X187538095Y-79241904D01*
X187252380Y-77813333D02*
X187252380Y-78003809D01*
X187300000Y-78099047D01*
X187347619Y-78146666D01*
X187490476Y-78241904D01*
X187680952Y-78289523D01*
X188061904Y-78289523D01*
X188157142Y-78241904D01*
X188204761Y-78194285D01*
X188252380Y-78099047D01*
X188252380Y-77908571D01*
X188204761Y-77813333D01*
X188157142Y-77765714D01*
X188061904Y-77718095D01*
X187823809Y-77718095D01*
X187728571Y-77765714D01*
X187680952Y-77813333D01*
X187633333Y-77908571D01*
X187633333Y-78099047D01*
X187680952Y-78194285D01*
X187728571Y-78241904D01*
X187823809Y-78289523D01*
X188157142Y-75967857D02*
X188204761Y-76015476D01*
X188252380Y-76158333D01*
X188252380Y-76253571D01*
X188204761Y-76396428D01*
X188109523Y-76491666D01*
X188014285Y-76539285D01*
X187823809Y-76586904D01*
X187680952Y-76586904D01*
X187490476Y-76539285D01*
X187395238Y-76491666D01*
X187300000Y-76396428D01*
X187252380Y-76253571D01*
X187252380Y-76158333D01*
X187300000Y-76015476D01*
X187347619Y-75967857D01*
X188252380Y-75015476D02*
X188252380Y-75586904D01*
X188252380Y-75301190D02*
X187252380Y-75301190D01*
X187395238Y-75396428D01*
X187490476Y-75491666D01*
X187538095Y-75586904D01*
X187252380Y-74110714D02*
X187252380Y-74586904D01*
X187728571Y-74634523D01*
X187680952Y-74586904D01*
X187633333Y-74491666D01*
X187633333Y-74253571D01*
X187680952Y-74158333D01*
X187728571Y-74110714D01*
X187823809Y-74063095D01*
X188061904Y-74063095D01*
X188157142Y-74110714D01*
X188204761Y-74158333D01*
X188252380Y-74253571D01*
X188252380Y-74491666D01*
X188204761Y-74586904D01*
X188157142Y-74634523D01*
X186887142Y-70377857D02*
X186934761Y-70425476D01*
X186982380Y-70568333D01*
X186982380Y-70663571D01*
X186934761Y-70806428D01*
X186839523Y-70901666D01*
X186744285Y-70949285D01*
X186553809Y-70996904D01*
X186410952Y-70996904D01*
X186220476Y-70949285D01*
X186125238Y-70901666D01*
X186030000Y-70806428D01*
X185982380Y-70663571D01*
X185982380Y-70568333D01*
X186030000Y-70425476D01*
X186077619Y-70377857D01*
X186982380Y-69425476D02*
X186982380Y-69996904D01*
X186982380Y-69711190D02*
X185982380Y-69711190D01*
X186125238Y-69806428D01*
X186220476Y-69901666D01*
X186268095Y-69996904D01*
X185982380Y-69092142D02*
X185982380Y-68473095D01*
X186363333Y-68806428D01*
X186363333Y-68663571D01*
X186410952Y-68568333D01*
X186458571Y-68520714D01*
X186553809Y-68473095D01*
X186791904Y-68473095D01*
X186887142Y-68520714D01*
X186934761Y-68568333D01*
X186982380Y-68663571D01*
X186982380Y-68949285D01*
X186934761Y-69044523D01*
X186887142Y-69092142D01*
X183507142Y-92347142D02*
X183459523Y-92394761D01*
X183316666Y-92442380D01*
X183221428Y-92442380D01*
X183078571Y-92394761D01*
X182983333Y-92299523D01*
X182935714Y-92204285D01*
X182888095Y-92013809D01*
X182888095Y-91870952D01*
X182935714Y-91680476D01*
X182983333Y-91585238D01*
X183078571Y-91490000D01*
X183221428Y-91442380D01*
X183316666Y-91442380D01*
X183459523Y-91490000D01*
X183507142Y-91537619D01*
X184459523Y-92442380D02*
X183888095Y-92442380D01*
X184173809Y-92442380D02*
X184173809Y-91442380D01*
X184078571Y-91585238D01*
X183983333Y-91680476D01*
X183888095Y-91728095D01*
X184840476Y-91537619D02*
X184888095Y-91490000D01*
X184983333Y-91442380D01*
X185221428Y-91442380D01*
X185316666Y-91490000D01*
X185364285Y-91537619D01*
X185411904Y-91632857D01*
X185411904Y-91728095D01*
X185364285Y-91870952D01*
X184792857Y-92442380D01*
X185411904Y-92442380D01*
X183507142Y-89807142D02*
X183459523Y-89854761D01*
X183316666Y-89902380D01*
X183221428Y-89902380D01*
X183078571Y-89854761D01*
X182983333Y-89759523D01*
X182935714Y-89664285D01*
X182888095Y-89473809D01*
X182888095Y-89330952D01*
X182935714Y-89140476D01*
X182983333Y-89045238D01*
X183078571Y-88950000D01*
X183221428Y-88902380D01*
X183316666Y-88902380D01*
X183459523Y-88950000D01*
X183507142Y-88997619D01*
X184459523Y-89902380D02*
X183888095Y-89902380D01*
X184173809Y-89902380D02*
X184173809Y-88902380D01*
X184078571Y-89045238D01*
X183983333Y-89140476D01*
X183888095Y-89188095D01*
X185411904Y-89902380D02*
X184840476Y-89902380D01*
X185126190Y-89902380D02*
X185126190Y-88902380D01*
X185030952Y-89045238D01*
X184935714Y-89140476D01*
X184840476Y-89188095D01*
X183507142Y-87267142D02*
X183459523Y-87314761D01*
X183316666Y-87362380D01*
X183221428Y-87362380D01*
X183078571Y-87314761D01*
X182983333Y-87219523D01*
X182935714Y-87124285D01*
X182888095Y-86933809D01*
X182888095Y-86790952D01*
X182935714Y-86600476D01*
X182983333Y-86505238D01*
X183078571Y-86410000D01*
X183221428Y-86362380D01*
X183316666Y-86362380D01*
X183459523Y-86410000D01*
X183507142Y-86457619D01*
X184459523Y-87362380D02*
X183888095Y-87362380D01*
X184173809Y-87362380D02*
X184173809Y-86362380D01*
X184078571Y-86505238D01*
X183983333Y-86600476D01*
X183888095Y-86648095D01*
X185078571Y-86362380D02*
X185173809Y-86362380D01*
X185269047Y-86410000D01*
X185316666Y-86457619D01*
X185364285Y-86552857D01*
X185411904Y-86743333D01*
X185411904Y-86981428D01*
X185364285Y-87171904D01*
X185316666Y-87267142D01*
X185269047Y-87314761D01*
X185173809Y-87362380D01*
X185078571Y-87362380D01*
X184983333Y-87314761D01*
X184935714Y-87267142D01*
X184888095Y-87171904D01*
X184840476Y-86981428D01*
X184840476Y-86743333D01*
X184888095Y-86552857D01*
X184935714Y-86457619D01*
X184983333Y-86410000D01*
X185078571Y-86362380D01*
X174187142Y-84861666D02*
X174234761Y-84909285D01*
X174282380Y-85052142D01*
X174282380Y-85147380D01*
X174234761Y-85290238D01*
X174139523Y-85385476D01*
X174044285Y-85433095D01*
X173853809Y-85480714D01*
X173710952Y-85480714D01*
X173520476Y-85433095D01*
X173425238Y-85385476D01*
X173330000Y-85290238D01*
X173282380Y-85147380D01*
X173282380Y-85052142D01*
X173330000Y-84909285D01*
X173377619Y-84861666D01*
X174282380Y-84385476D02*
X174282380Y-84195000D01*
X174234761Y-84099761D01*
X174187142Y-84052142D01*
X174044285Y-83956904D01*
X173853809Y-83909285D01*
X173472857Y-83909285D01*
X173377619Y-83956904D01*
X173330000Y-84004523D01*
X173282380Y-84099761D01*
X173282380Y-84290238D01*
X173330000Y-84385476D01*
X173377619Y-84433095D01*
X173472857Y-84480714D01*
X173710952Y-84480714D01*
X173806190Y-84433095D01*
X173853809Y-84385476D01*
X173901428Y-84290238D01*
X173901428Y-84099761D01*
X173853809Y-84004523D01*
X173806190Y-83956904D01*
X173710952Y-83909285D01*
X170888333Y-76717142D02*
X170840714Y-76764761D01*
X170697857Y-76812380D01*
X170602619Y-76812380D01*
X170459761Y-76764761D01*
X170364523Y-76669523D01*
X170316904Y-76574285D01*
X170269285Y-76383809D01*
X170269285Y-76240952D01*
X170316904Y-76050476D01*
X170364523Y-75955238D01*
X170459761Y-75860000D01*
X170602619Y-75812380D01*
X170697857Y-75812380D01*
X170840714Y-75860000D01*
X170888333Y-75907619D01*
X171459761Y-76240952D02*
X171364523Y-76193333D01*
X171316904Y-76145714D01*
X171269285Y-76050476D01*
X171269285Y-76002857D01*
X171316904Y-75907619D01*
X171364523Y-75860000D01*
X171459761Y-75812380D01*
X171650238Y-75812380D01*
X171745476Y-75860000D01*
X171793095Y-75907619D01*
X171840714Y-76002857D01*
X171840714Y-76050476D01*
X171793095Y-76145714D01*
X171745476Y-76193333D01*
X171650238Y-76240952D01*
X171459761Y-76240952D01*
X171364523Y-76288571D01*
X171316904Y-76336190D01*
X171269285Y-76431428D01*
X171269285Y-76621904D01*
X171316904Y-76717142D01*
X171364523Y-76764761D01*
X171459761Y-76812380D01*
X171650238Y-76812380D01*
X171745476Y-76764761D01*
X171793095Y-76717142D01*
X171840714Y-76621904D01*
X171840714Y-76431428D01*
X171793095Y-76336190D01*
X171745476Y-76288571D01*
X171650238Y-76240952D01*
X172553333Y-65287142D02*
X172505714Y-65334761D01*
X172362857Y-65382380D01*
X172267619Y-65382380D01*
X172124761Y-65334761D01*
X172029523Y-65239523D01*
X171981904Y-65144285D01*
X171934285Y-64953809D01*
X171934285Y-64810952D01*
X171981904Y-64620476D01*
X172029523Y-64525238D01*
X172124761Y-64430000D01*
X172267619Y-64382380D01*
X172362857Y-64382380D01*
X172505714Y-64430000D01*
X172553333Y-64477619D01*
X172886666Y-64382380D02*
X173553333Y-64382380D01*
X173124761Y-65382380D01*
X171332142Y-71921666D02*
X171379761Y-71969285D01*
X171427380Y-72112142D01*
X171427380Y-72207380D01*
X171379761Y-72350238D01*
X171284523Y-72445476D01*
X171189285Y-72493095D01*
X170998809Y-72540714D01*
X170855952Y-72540714D01*
X170665476Y-72493095D01*
X170570238Y-72445476D01*
X170475000Y-72350238D01*
X170427380Y-72207380D01*
X170427380Y-72112142D01*
X170475000Y-71969285D01*
X170522619Y-71921666D01*
X170427380Y-71064523D02*
X170427380Y-71255000D01*
X170475000Y-71350238D01*
X170522619Y-71397857D01*
X170665476Y-71493095D01*
X170855952Y-71540714D01*
X171236904Y-71540714D01*
X171332142Y-71493095D01*
X171379761Y-71445476D01*
X171427380Y-71350238D01*
X171427380Y-71159761D01*
X171379761Y-71064523D01*
X171332142Y-71016904D01*
X171236904Y-70969285D01*
X170998809Y-70969285D01*
X170903571Y-71016904D01*
X170855952Y-71064523D01*
X170808333Y-71159761D01*
X170808333Y-71350238D01*
X170855952Y-71445476D01*
X170903571Y-71493095D01*
X170998809Y-71540714D01*
X169427142Y-71921666D02*
X169474761Y-71969285D01*
X169522380Y-72112142D01*
X169522380Y-72207380D01*
X169474761Y-72350238D01*
X169379523Y-72445476D01*
X169284285Y-72493095D01*
X169093809Y-72540714D01*
X168950952Y-72540714D01*
X168760476Y-72493095D01*
X168665238Y-72445476D01*
X168570000Y-72350238D01*
X168522380Y-72207380D01*
X168522380Y-72112142D01*
X168570000Y-71969285D01*
X168617619Y-71921666D01*
X168522380Y-71016904D02*
X168522380Y-71493095D01*
X168998571Y-71540714D01*
X168950952Y-71493095D01*
X168903333Y-71397857D01*
X168903333Y-71159761D01*
X168950952Y-71064523D01*
X168998571Y-71016904D01*
X169093809Y-70969285D01*
X169331904Y-70969285D01*
X169427142Y-71016904D01*
X169474761Y-71064523D01*
X169522380Y-71159761D01*
X169522380Y-71397857D01*
X169474761Y-71493095D01*
X169427142Y-71540714D01*
X175142142Y-66091666D02*
X175189761Y-66139285D01*
X175237380Y-66282142D01*
X175237380Y-66377380D01*
X175189761Y-66520238D01*
X175094523Y-66615476D01*
X174999285Y-66663095D01*
X174808809Y-66710714D01*
X174665952Y-66710714D01*
X174475476Y-66663095D01*
X174380238Y-66615476D01*
X174285000Y-66520238D01*
X174237380Y-66377380D01*
X174237380Y-66282142D01*
X174285000Y-66139285D01*
X174332619Y-66091666D01*
X174570714Y-65234523D02*
X175237380Y-65234523D01*
X174189761Y-65472619D02*
X174904047Y-65710714D01*
X174904047Y-65091666D01*
X162757142Y-71921666D02*
X162804761Y-71969285D01*
X162852380Y-72112142D01*
X162852380Y-72207380D01*
X162804761Y-72350238D01*
X162709523Y-72445476D01*
X162614285Y-72493095D01*
X162423809Y-72540714D01*
X162280952Y-72540714D01*
X162090476Y-72493095D01*
X161995238Y-72445476D01*
X161900000Y-72350238D01*
X161852380Y-72207380D01*
X161852380Y-72112142D01*
X161900000Y-71969285D01*
X161947619Y-71921666D01*
X161852380Y-71588333D02*
X161852380Y-70969285D01*
X162233333Y-71302619D01*
X162233333Y-71159761D01*
X162280952Y-71064523D01*
X162328571Y-71016904D01*
X162423809Y-70969285D01*
X162661904Y-70969285D01*
X162757142Y-71016904D01*
X162804761Y-71064523D01*
X162852380Y-71159761D01*
X162852380Y-71445476D01*
X162804761Y-71540714D01*
X162757142Y-71588333D01*
X164662142Y-71921666D02*
X164709761Y-71969285D01*
X164757380Y-72112142D01*
X164757380Y-72207380D01*
X164709761Y-72350238D01*
X164614523Y-72445476D01*
X164519285Y-72493095D01*
X164328809Y-72540714D01*
X164185952Y-72540714D01*
X163995476Y-72493095D01*
X163900238Y-72445476D01*
X163805000Y-72350238D01*
X163757380Y-72207380D01*
X163757380Y-72112142D01*
X163805000Y-71969285D01*
X163852619Y-71921666D01*
X163852619Y-71540714D02*
X163805000Y-71493095D01*
X163757380Y-71397857D01*
X163757380Y-71159761D01*
X163805000Y-71064523D01*
X163852619Y-71016904D01*
X163947857Y-70969285D01*
X164043095Y-70969285D01*
X164185952Y-71016904D01*
X164757380Y-71588333D01*
X164757380Y-70969285D01*
X153867142Y-87161666D02*
X153914761Y-87209285D01*
X153962380Y-87352142D01*
X153962380Y-87447380D01*
X153914761Y-87590238D01*
X153819523Y-87685476D01*
X153724285Y-87733095D01*
X153533809Y-87780714D01*
X153390952Y-87780714D01*
X153200476Y-87733095D01*
X153105238Y-87685476D01*
X153010000Y-87590238D01*
X152962380Y-87447380D01*
X152962380Y-87352142D01*
X153010000Y-87209285D01*
X153057619Y-87161666D01*
X153962380Y-86209285D02*
X153962380Y-86780714D01*
X153962380Y-86495000D02*
X152962380Y-86495000D01*
X153105238Y-86590238D01*
X153200476Y-86685476D01*
X153248095Y-86780714D01*
D14*
X209604428Y-91439857D02*
X208080428Y-91439857D01*
X208080428Y-90859285D01*
X208153000Y-90714142D01*
X208225571Y-90641571D01*
X208370714Y-90569000D01*
X208588428Y-90569000D01*
X208733571Y-90641571D01*
X208806142Y-90714142D01*
X208878714Y-90859285D01*
X208878714Y-91439857D01*
X208080428Y-89262714D02*
X208080428Y-89553000D01*
X208153000Y-89698142D01*
X208225571Y-89770714D01*
X208443285Y-89915857D01*
X208733571Y-89988428D01*
X209314142Y-89988428D01*
X209459285Y-89915857D01*
X209531857Y-89843285D01*
X209604428Y-89698142D01*
X209604428Y-89407857D01*
X209531857Y-89262714D01*
X209459285Y-89190142D01*
X209314142Y-89117571D01*
X208951285Y-89117571D01*
X208806142Y-89190142D01*
X208733571Y-89262714D01*
X208661000Y-89407857D01*
X208661000Y-89698142D01*
X208733571Y-89843285D01*
X208806142Y-89915857D01*
X208951285Y-89988428D01*
X209604428Y-82549857D02*
X208080428Y-82549857D01*
X208080428Y-81969285D01*
X208153000Y-81824142D01*
X208225571Y-81751571D01*
X208370714Y-81679000D01*
X208588428Y-81679000D01*
X208733571Y-81751571D01*
X208806142Y-81824142D01*
X208878714Y-81969285D01*
X208878714Y-82549857D01*
X208080428Y-80300142D02*
X208080428Y-81025857D01*
X208806142Y-81098428D01*
X208733571Y-81025857D01*
X208661000Y-80880714D01*
X208661000Y-80517857D01*
X208733571Y-80372714D01*
X208806142Y-80300142D01*
X208951285Y-80227571D01*
X209314142Y-80227571D01*
X209459285Y-80300142D01*
X209531857Y-80372714D01*
X209604428Y-80517857D01*
X209604428Y-80880714D01*
X209531857Y-81025857D01*
X209459285Y-81098428D01*
X209604428Y-73659857D02*
X208080428Y-73659857D01*
X208080428Y-73079285D01*
X208153000Y-72934142D01*
X208225571Y-72861571D01*
X208370714Y-72789000D01*
X208588428Y-72789000D01*
X208733571Y-72861571D01*
X208806142Y-72934142D01*
X208878714Y-73079285D01*
X208878714Y-73659857D01*
X208588428Y-71482714D02*
X209604428Y-71482714D01*
X208007857Y-71845571D02*
X209096428Y-72208428D01*
X209096428Y-71265000D01*
X140389428Y-92074857D02*
X138865428Y-92074857D01*
X138865428Y-91494285D01*
X138938000Y-91349142D01*
X139010571Y-91276571D01*
X139155714Y-91204000D01*
X139373428Y-91204000D01*
X139518571Y-91276571D01*
X139591142Y-91349142D01*
X139663714Y-91494285D01*
X139663714Y-92074857D01*
X138865428Y-90696000D02*
X138865428Y-89752571D01*
X139446000Y-90260571D01*
X139446000Y-90042857D01*
X139518571Y-89897714D01*
X139591142Y-89825142D01*
X139736285Y-89752571D01*
X140099142Y-89752571D01*
X140244285Y-89825142D01*
X140316857Y-89897714D01*
X140389428Y-90042857D01*
X140389428Y-90478285D01*
X140316857Y-90623428D01*
X140244285Y-90696000D01*
X158169428Y-92074857D02*
X156645428Y-92074857D01*
X156645428Y-91494285D01*
X156718000Y-91349142D01*
X156790571Y-91276571D01*
X156935714Y-91204000D01*
X157153428Y-91204000D01*
X157298571Y-91276571D01*
X157371142Y-91349142D01*
X157443714Y-91494285D01*
X157443714Y-92074857D01*
X156790571Y-90623428D02*
X156718000Y-90550857D01*
X156645428Y-90405714D01*
X156645428Y-90042857D01*
X156718000Y-89897714D01*
X156790571Y-89825142D01*
X156935714Y-89752571D01*
X157080857Y-89752571D01*
X157298571Y-89825142D01*
X158169428Y-90696000D01*
X158169428Y-89752571D01*
X188230328Y-67564000D02*
X188230328Y-68289714D01*
X186706328Y-68289714D01*
X188230328Y-66257714D02*
X188230328Y-67128571D01*
X188230328Y-66693142D02*
X186706328Y-66693142D01*
X186924042Y-66838285D01*
X187069185Y-66983428D01*
X187141757Y-67128571D01*
X197849671Y-69160571D02*
X197777100Y-69088000D01*
X197704528Y-68942857D01*
X197704528Y-68580000D01*
X197777100Y-68434857D01*
X197849671Y-68362285D01*
X197994814Y-68289714D01*
X198139957Y-68289714D01*
X198357671Y-68362285D01*
X199228528Y-69233142D01*
X199228528Y-68289714D01*
X197849671Y-67709142D02*
X197777100Y-67636571D01*
X197704528Y-67491428D01*
X197704528Y-67128571D01*
X197777100Y-66983428D01*
X197849671Y-66910857D01*
X197994814Y-66838285D01*
X198139957Y-66838285D01*
X198357671Y-66910857D01*
X199228528Y-67781714D01*
X199228528Y-66838285D01*
X198212528Y-65532000D02*
X199228528Y-65532000D01*
X198212528Y-66185142D02*
X199010814Y-66185142D01*
X199155957Y-66112571D01*
X199228528Y-65967428D01*
X199228528Y-65749714D01*
X199155957Y-65604571D01*
X199083385Y-65532000D01*
D10*
X199743333Y-81207380D02*
X199410000Y-80731190D01*
X199171904Y-81207380D02*
X199171904Y-80207380D01*
X199552857Y-80207380D01*
X199648095Y-80255000D01*
X199695714Y-80302619D01*
X199743333Y-80397857D01*
X199743333Y-80540714D01*
X199695714Y-80635952D01*
X199648095Y-80683571D01*
X199552857Y-80731190D01*
X199171904Y-80731190D01*
X200219523Y-81207380D02*
X200410000Y-81207380D01*
X200505238Y-81159761D01*
X200552857Y-81112142D01*
X200648095Y-80969285D01*
X200695714Y-80778809D01*
X200695714Y-80397857D01*
X200648095Y-80302619D01*
X200600476Y-80255000D01*
X200505238Y-80207380D01*
X200314761Y-80207380D01*
X200219523Y-80255000D01*
X200171904Y-80302619D01*
X200124285Y-80397857D01*
X200124285Y-80635952D01*
X200171904Y-80731190D01*
X200219523Y-80778809D01*
X200314761Y-80826428D01*
X200505238Y-80826428D01*
X200600476Y-80778809D01*
X200648095Y-80731190D01*
X200695714Y-80635952D01*
X199497142Y-98987380D02*
X199163809Y-98511190D01*
X198925714Y-98987380D02*
X198925714Y-97987380D01*
X199306666Y-97987380D01*
X199401904Y-98035000D01*
X199449523Y-98082619D01*
X199497142Y-98177857D01*
X199497142Y-98320714D01*
X199449523Y-98415952D01*
X199401904Y-98463571D01*
X199306666Y-98511190D01*
X198925714Y-98511190D01*
X200449523Y-98987380D02*
X199878095Y-98987380D01*
X200163809Y-98987380D02*
X200163809Y-97987380D01*
X200068571Y-98130238D01*
X199973333Y-98225476D01*
X199878095Y-98273095D01*
X201068571Y-97987380D02*
X201163809Y-97987380D01*
X201259047Y-98035000D01*
X201306666Y-98082619D01*
X201354285Y-98177857D01*
X201401904Y-98368333D01*
X201401904Y-98606428D01*
X201354285Y-98796904D01*
X201306666Y-98892142D01*
X201259047Y-98939761D01*
X201163809Y-98987380D01*
X201068571Y-98987380D01*
X200973333Y-98939761D01*
X200925714Y-98892142D01*
X200878095Y-98796904D01*
X200830476Y-98606428D01*
X200830476Y-98368333D01*
X200878095Y-98177857D01*
X200925714Y-98082619D01*
X200973333Y-98035000D01*
X201068571Y-97987380D01*
M02*
