M48
; DRILL file {KiCad (5.1.4)-1} date 08.11.2019 14:44:40
; FORMAT={-:-/ absolute / inch / decimal}
; #@! TF.CreationDate,2019-11-08T14:44:40+01:00
; #@! TF.GenerationSoftware,Kicad,Pcbnew,(5.1.4)-1
FMAT,2
INCH
T1C0.0118
T2C0.0295
T3C0.0394
%
G90
G05
T1
X5.475Y-3.025
X5.675Y-3.225
X5.75Y-3.225
X5.75Y-3.35
X5.75Y-3.425
X5.75Y-3.5
X5.8Y-3.3
X5.8Y-3.475
X5.825Y-3.375
X5.85Y-3.125
X5.85Y-3.175
X5.875Y-2.7
X5.875Y-3.1
X5.9Y-3.175
X5.9Y-3.325
X5.95Y-3.175
X5.95Y-3.325
X5.975Y-3.35
X5.9786Y-3.0786
X5.9786Y-3.175
X6.0Y-3.325
X6.025Y-3.175
X6.025Y-3.35
X6.05Y-2.9
X6.05Y-3.3
X6.075Y-2.6
X6.075Y-3.05
X6.075Y-3.35
X6.1Y-2.925
X6.125Y-3.075
X6.15Y-3.275
X6.2028Y-3.2222
X6.25Y-2.9214
X6.25Y-2.95
X6.25Y-3.225
X6.275Y-3.1
X6.275Y-3.175
X6.275Y-3.4
X6.3Y-2.825
X6.3Y-3.125
X6.425Y-2.95
X6.425Y-3.65
X6.55Y-2.425
X6.6Y-2.425
X6.6Y-3.475
X6.65Y-2.425
X6.725Y-2.525
X6.725Y-2.7
X6.75Y-3.95
X6.775Y-3.275
X6.8Y-3.95
X6.825Y-2.9009
X6.825Y-3.0193
X6.825Y-3.0579
X6.825Y-3.175
X6.85Y-3.95
X6.8512Y-2.9792
X6.875Y-2.825
X6.875Y-2.875
X6.875Y-3.125
X6.8767Y-2.7796
X6.9Y-3.95
X6.922Y-3.628
X6.925Y-3.25
X6.95Y-2.325
X6.95Y-3.95
X6.975Y-3.625
X7.0Y-3.25
X7.0Y-3.95
X7.05Y-3.95
X7.075Y-2.95
X7.075Y-3.625
X7.1Y-3.95
X7.15Y-3.95
X7.1739Y-2.9297
X7.175Y-2.9
X7.175Y-3.0
X7.3Y-2.7
X7.3Y-2.825
X7.35Y-2.7
X7.35Y-3.45
X7.55Y-2.45
X7.6Y-3.85
X7.775Y-3.2
X7.8Y-3.5
X7.85Y-3.3
X7.85Y-3.35
X7.925Y-3.55
X7.95Y-3.15
X7.95Y-3.85
X8.025Y-2.85
X8.075Y-3.275
X8.075Y-3.575
X8.125Y-3.075
X8.125Y-3.9
X8.175Y-3.5
X8.175Y-3.9
T2
X5.5463Y-2.325
X5.625Y-2.325
X5.7037Y-2.325
X5.7825Y-2.325
X5.8612Y-2.325
X5.94Y-2.325
X5.35Y-2.775
X5.35Y-2.8537
X5.35Y-2.9325
X5.35Y-3.0112
X5.35Y-3.09
X5.35Y-3.1687
X5.35Y-3.2474
T3
X6.175Y-2.325
X6.275Y-2.325
X6.375Y-2.325
X6.475Y-2.325
T0
M30
