M48
; DRILL file {KiCad (5.1.4)-1} date 13.03.2020 09:19:59
; FORMAT={-:-/ absolute / inch / decimal}
; #@! TF.CreationDate,2020-03-13T09:19:59+01:00
; #@! TF.GenerationSoftware,Kicad,Pcbnew,(5.1.4)-1
FMAT,2
INCH
T1C0.0118
T2C0.0295
T3C0.0394
%
G90
G05
T1
X5.3285Y-2.2933
X5.3285Y-2.3183
X5.3285Y-2.3433
X5.3285Y-2.3683
X5.3285Y-2.3933
X5.3535Y-2.2933
X5.3535Y-2.3183
X5.3535Y-2.3433
X5.3535Y-2.3683
X5.3535Y-2.3933
X5.3679Y-3.9087
X5.3679Y-3.9337
X5.3679Y-3.9587
X5.3679Y-3.9837
X5.3679Y-4.0087
X5.3785Y-2.2933
X5.3785Y-2.3183
X5.3785Y-2.3433
X5.3785Y-2.3683
X5.3785Y-2.3933
X5.3929Y-3.9087
X5.3929Y-3.9337
X5.3929Y-3.9587
X5.3929Y-3.9837
X5.3929Y-4.0087
X5.4035Y-2.2933
X5.4035Y-2.3183
X5.4035Y-2.3433
X5.4035Y-2.3683
X5.4035Y-2.3933
X5.4179Y-3.9087
X5.4179Y-3.9337
X5.4179Y-3.9587
X5.4179Y-3.9837
X5.4179Y-4.0087
X5.4285Y-2.2933
X5.4285Y-2.3183
X5.4285Y-2.3433
X5.4285Y-2.3683
X5.4285Y-2.3933
X5.4429Y-3.9087
X5.4429Y-3.9337
X5.4429Y-3.9587
X5.4429Y-3.9837
X5.4429Y-4.0087
X5.4455Y-3.2711
X5.4535Y-2.2933
X5.4535Y-2.3183
X5.4535Y-2.3433
X5.4535Y-2.3683
X5.4535Y-2.3933
X5.4679Y-3.9087
X5.4679Y-3.9337
X5.4679Y-3.9587
X5.4679Y-3.9837
X5.4679Y-4.0087
X5.4785Y-2.2933
X5.4785Y-2.3183
X5.4785Y-2.3433
X5.4785Y-2.3683
X5.4785Y-2.3933
X5.4929Y-3.9087
X5.4929Y-3.9337
X5.4929Y-3.9587
X5.4929Y-3.9837
X5.4929Y-4.0087
X5.5179Y-3.9087
X5.5179Y-3.9337
X5.5179Y-3.9587
X5.5179Y-3.9837
X5.5179Y-4.0087
X5.563Y-3.665
X5.563Y-3.74
X5.563Y-3.815
X5.6004Y-2.9134
X5.6455Y-3.4711
X5.6791Y-3.0315
X5.7105Y-3.0261
X5.7677Y-3.4711
X5.7705Y-3.5461
X5.7705Y-3.68
X5.7805Y-3.3461
X5.7955Y-3.6211
X5.8455Y-2.9461
X5.8481Y-3.0987
X5.8705Y-3.1661
X5.8705Y-3.4211
X5.8705Y-3.5711
X5.8837Y-2.9528
X5.9049Y-3.1207
X5.9055Y-2.9134
X5.9205Y-3.4211
X5.9205Y-3.5711
X5.9455Y-3.5961
X5.9491Y-3.3247
X5.9491Y-3.4211
X5.9547Y-2.9823
X5.9547Y-3.1398
X5.9646Y-3.7598
X5.9843Y-2.9823
X5.9955Y-3.4211
X5.9955Y-3.5961
X6.0138Y-2.9823
X6.0205Y-3.5461
X6.0211Y-3.5811
X6.0236Y-3.435
X6.0455Y-3.5961
X6.063Y-3.1988
X6.0955Y-3.3211
X6.1024Y-3.1791
X6.1205Y-3.5211
X6.1733Y-3.4683
X6.2205Y-3.4711
X6.2402Y-3.435
X6.2697Y-3.3563
X6.2705Y-3.0711
X6.2795Y-2.8642
X6.2894Y-3.4252
X6.2992Y-3.3858
X6.3583Y-2.9823
X6.3583Y-3.0118
X6.3878Y-2.9823
X6.3878Y-3.0118
X6.4173Y-2.8937
X6.4173Y-2.9232
X6.4173Y-2.9823
X6.4173Y-3.0118
X6.4469Y-2.8937
X6.4469Y-2.9232
X6.4469Y-2.9823
X6.4764Y-2.8937
X6.4764Y-2.9232
X6.4764Y-2.9823
X6.5059Y-2.5
X6.5059Y-2.5295
X6.5059Y-2.5591
X6.5059Y-2.5886
X6.5059Y-2.8937
X6.5059Y-2.9232
X6.5354Y-2.5
X6.5354Y-2.5295
X6.5354Y-2.5591
X6.5354Y-2.5886
X6.565Y-2.5
X6.565Y-2.5295
X6.565Y-2.5591
X6.565Y-2.5886
X6.5945Y-2.5
X6.5945Y-2.5295
X6.5945Y-2.5591
X6.5945Y-2.5886
X6.624Y-2.5
X6.624Y-2.5295
X6.624Y-2.5591
X6.624Y-2.5886
X6.624Y-2.8937
X6.6535Y-3.0336
X6.6634Y-2.8445
X6.7126Y-2.7362
X6.7224Y-3.1004
X6.7618Y-3.8976
X6.7618Y-3.9272
X6.7618Y-3.9567
X6.7618Y-3.9862
X6.7618Y-4.0157
X6.7913Y-3.248
X6.7913Y-3.8976
X6.7913Y-3.9272
X6.7913Y-3.9567
X6.7913Y-3.9862
X6.7913Y-4.0157
X6.8307Y-3.1299
X6.8307Y-3.1693
X6.8504Y-3.7992
X6.8504Y-3.8287
X6.8504Y-4.0846
X6.8504Y-4.1142
X6.8701Y-2.7756
X6.875Y-2.8417
X6.875Y-2.875
X6.875Y-3.125
X6.8799Y-3.7992
X6.8799Y-3.8287
X6.8799Y-4.0846
X6.8799Y-4.1142
X6.9094Y-3.7992
X6.9094Y-3.8287
X6.9094Y-4.0846
X6.9094Y-4.1142
X6.9291Y-3.563
X6.939Y-3.7992
X6.939Y-3.8287
X6.939Y-4.0846
X6.939Y-4.1142
X6.9488Y-2.2638
X6.9488Y-2.2933
X6.9488Y-2.3228
X6.9488Y-2.3524
X6.9685Y-3.7992
X6.9685Y-3.8287
X6.9685Y-4.0846
X6.9685Y-4.1142
X7.0Y-3.25
X7.01Y-2.85
X7.01Y-2.88
X7.01Y-2.91
X7.01Y-2.94
X7.01Y-2.97
X7.01Y-3.0
X7.01Y-3.03
X7.01Y-3.06
X7.0276Y-3.6319
X7.04Y-2.85
X7.04Y-2.88
X7.04Y-2.91
X7.04Y-2.94
X7.04Y-2.97
X7.04Y-3.0
X7.04Y-3.03
X7.0472Y-3.8976
X7.0472Y-3.9272
X7.0472Y-3.9567
X7.0472Y-3.9862
X7.0472Y-4.0157
X7.07Y-2.85
X7.07Y-2.88
X7.07Y-2.91
X7.07Y-2.94
X7.07Y-2.97
X7.07Y-3.0
X7.0768Y-3.8976
X7.0768Y-3.9272
X7.0768Y-3.9567
X7.0768Y-3.9862
X7.0768Y-4.0157
X7.08Y-3.06
X7.1Y-2.85
X7.1Y-2.88
X7.1Y-2.91
X7.1Y-2.94
X7.1Y-2.97
X7.1063Y-3.8976
X7.1063Y-3.9272
X7.1063Y-3.9567
X7.1063Y-3.9862
X7.1063Y-4.0157
X7.11Y-3.03
X7.11Y-3.06
X7.13Y-2.85
X7.13Y-2.88
X7.13Y-2.91
X7.13Y-2.94
X7.1358Y-3.8976
X7.1358Y-3.9272
X7.1358Y-3.9567
X7.1358Y-3.9862
X7.1358Y-4.0157
X7.14Y-3.0
X7.14Y-3.03
X7.14Y-3.06
X7.1654Y-3.9272
X7.1654Y-3.9567
X7.1654Y-3.9862
X7.1654Y-4.0157
X7.1739Y-2.9297
X7.175Y-2.9
X7.175Y-3.0
X7.185Y-3.622
X7.1949Y-3.9567
X7.1949Y-3.9862
X7.1949Y-4.0157
X7.2244Y-3.9862
X7.2244Y-4.0157
X7.2539Y-4.0157
X7.3Y-2.7
X7.3Y-2.825
X7.35Y-2.7
X7.35Y-3.35
X7.35Y-3.45
X7.35Y-3.55
X7.4Y-3.45
X7.4Y-3.575
X7.525Y-3.775
X7.55Y-2.45
X7.59Y-2.93
X7.62Y-2.93
X7.65Y-2.93
X7.68Y-2.93
X7.69Y-3.68
X7.71Y-2.93
X7.71Y-3.7
X7.73Y-2.95
X7.73Y-3.72
X7.75Y-2.97
X7.75Y-3.74
X7.76Y-3.52
X7.77Y-2.99
X7.77Y-3.76
X7.775Y-3.2
X7.78Y-3.54
X7.79Y-3.78
X7.8Y-3.5
X7.8Y-3.56
X7.825Y-3.585
X7.85Y-3.3
X7.85Y-3.35
X7.88Y-3.59
X7.9035Y-2.4213
X7.9035Y-2.4508
X7.9035Y-2.4803
X7.9035Y-2.6181
X7.9035Y-2.6476
X7.9035Y-2.6772
X7.9035Y-2.7461
X7.9035Y-2.7756
X7.9035Y-2.8051
X7.91Y-3.59
X7.925Y-3.5415
X7.95Y-3.15
X7.95Y-3.85
X8.025Y-2.85
X8.0475Y-2.8275
X8.0725Y-2.8025
X8.075Y-3.275
X8.075Y-3.575
X8.095Y-3.255
X8.125Y-2.625
X8.125Y-2.75
X8.125Y-3.075
X8.125Y-3.9
X8.15Y-3.5
X8.17Y-3.21
X8.175Y-2.95
X8.175Y-2.975
X8.175Y-3.0
X8.175Y-3.025
X8.175Y-3.05
X8.175Y-3.075
X8.175Y-3.1
X8.175Y-3.3
X8.175Y-3.325
X8.175Y-3.35
X8.175Y-3.375
X8.175Y-3.4
X8.175Y-3.425
X8.175Y-3.45
X8.175Y-3.575
X8.175Y-3.65
X8.175Y-3.675
X8.175Y-3.7
X8.175Y-3.725
X8.175Y-3.75
X8.175Y-3.775
X8.175Y-3.8
X8.175Y-3.9
X8.1758Y-2.5492
X8.2Y-2.95
X8.2Y-2.975
X8.2Y-3.0
X8.2Y-3.025
X8.2Y-3.05
X8.2Y-3.075
X8.2Y-3.1
X8.2Y-3.21
X8.2Y-3.3
X8.2Y-3.325
X8.2Y-3.35
X8.2Y-3.375
X8.2Y-3.4
X8.2Y-3.425
X8.2Y-3.45
X8.2Y-3.65
X8.2Y-3.675
X8.2Y-3.7
X8.2Y-3.725
X8.2Y-3.75
X8.2Y-3.775
X8.2Y-3.8
X8.205Y-3.575
X8.225Y-2.95
X8.225Y-2.975
X8.225Y-3.0
X8.225Y-3.025
X8.225Y-3.05
X8.225Y-3.075
X8.225Y-3.1
X8.225Y-3.3
X8.225Y-3.325
X8.225Y-3.35
X8.225Y-3.375
X8.225Y-3.4
X8.225Y-3.425
X8.225Y-3.45
X8.225Y-3.65
X8.225Y-3.675
X8.225Y-3.7
X8.225Y-3.725
X8.225Y-3.75
X8.225Y-3.775
X8.225Y-3.8
X8.225Y-3.8
X8.235Y-3.575
X8.25Y-2.95
X8.25Y-2.975
X8.25Y-3.0
X8.25Y-3.025
X8.25Y-3.05
X8.25Y-3.075
X8.25Y-3.1
X8.25Y-3.3
X8.25Y-3.325
X8.25Y-3.35
X8.25Y-3.375
X8.25Y-3.4
X8.25Y-3.425
X8.25Y-3.45
X8.25Y-3.65
X8.25Y-3.675
X8.25Y-3.7
X8.25Y-3.725
X8.25Y-3.75
X8.25Y-3.775
X8.25Y-3.8
X8.275Y-2.95
X8.275Y-2.975
X8.275Y-3.0
X8.275Y-3.025
X8.275Y-3.05
X8.275Y-3.075
X8.275Y-3.1
X8.275Y-3.3
X8.275Y-3.325
X8.275Y-3.35
X8.275Y-3.375
X8.275Y-3.4
X8.275Y-3.425
X8.275Y-3.45
X8.275Y-3.65
X8.275Y-3.675
X8.275Y-3.7
X8.275Y-3.725
X8.275Y-3.75
X8.275Y-3.775
X8.275Y-3.8
T2
X5.4134Y-2.628
X5.4921Y-2.628
X5.5709Y-2.628
X5.6496Y-2.628
X5.7283Y-2.628
X5.8071Y-2.628
X5.3205Y-3.0211
X5.3205Y-3.0998
X5.3205Y-3.1785
X5.3205Y-3.2573
X5.3205Y-3.336
X5.3205Y-3.4148
X5.3205Y-3.4935
T3
X5.988Y-2.6104
X6.088Y-2.6104
X6.188Y-2.6104
X6.288Y-2.6104
T0
M30
