G04 #@! TF.GenerationSoftware,KiCad,Pcbnew,(5.1.4)-1*
G04 #@! TF.CreationDate,2019-11-08T14:44:36+01:00*
G04 #@! TF.ProjectId,BLDC_4,424c4443-5f34-42e6-9b69-6361645f7063,rev?*
G04 #@! TF.SameCoordinates,Original*
G04 #@! TF.FileFunction,Soldermask,Bot*
G04 #@! TF.FilePolarity,Negative*
%FSLAX46Y46*%
G04 Gerber Fmt 4.6, Leading zero omitted, Abs format (unit mm)*
G04 Created by KiCad (PCBNEW (5.1.4)-1) date 2019-11-08 14:44:36*
%MOMM*%
%LPD*%
G04 APERTURE LIST*
%ADD10C,0.100000*%
G04 APERTURE END LIST*
D10*
G36*
X136282621Y-81893682D02*
G01*
X136395721Y-81927990D01*
X136499955Y-81983704D01*
X136591317Y-82058683D01*
X136666296Y-82150045D01*
X136722010Y-82254279D01*
X136756318Y-82367379D01*
X136767903Y-82485000D01*
X136756318Y-82602621D01*
X136722010Y-82715721D01*
X136666296Y-82819955D01*
X136591317Y-82911317D01*
X136499955Y-82986296D01*
X136395721Y-83042010D01*
X136282621Y-83076318D01*
X136194474Y-83085000D01*
X135585526Y-83085000D01*
X135497379Y-83076318D01*
X135384279Y-83042010D01*
X135280045Y-82986296D01*
X135188683Y-82911317D01*
X135113704Y-82819955D01*
X135057990Y-82715721D01*
X135023682Y-82602621D01*
X135012097Y-82485000D01*
X135023682Y-82367379D01*
X135057990Y-82254279D01*
X135113704Y-82150045D01*
X135188683Y-82058683D01*
X135280045Y-81983704D01*
X135384279Y-81927990D01*
X135497379Y-81893682D01*
X135585526Y-81885000D01*
X136194474Y-81885000D01*
X136282621Y-81893682D01*
X136282621Y-81893682D01*
G37*
G36*
X136282621Y-79893682D02*
G01*
X136395721Y-79927990D01*
X136499955Y-79983704D01*
X136591317Y-80058683D01*
X136666296Y-80150045D01*
X136722010Y-80254279D01*
X136756318Y-80367379D01*
X136767903Y-80485000D01*
X136756318Y-80602621D01*
X136722010Y-80715721D01*
X136666296Y-80819955D01*
X136591317Y-80911317D01*
X136499955Y-80986296D01*
X136395721Y-81042010D01*
X136282621Y-81076318D01*
X136194474Y-81085000D01*
X135585526Y-81085000D01*
X135497379Y-81076318D01*
X135384279Y-81042010D01*
X135280045Y-80986296D01*
X135188683Y-80911317D01*
X135113704Y-80819955D01*
X135057990Y-80715721D01*
X135023682Y-80602621D01*
X135012097Y-80485000D01*
X135023682Y-80367379D01*
X135057990Y-80254279D01*
X135113704Y-80150045D01*
X135188683Y-80058683D01*
X135280045Y-79983704D01*
X135384279Y-79927990D01*
X135497379Y-79893682D01*
X135585526Y-79885000D01*
X136194474Y-79885000D01*
X136282621Y-79893682D01*
X136282621Y-79893682D01*
G37*
G36*
X136282621Y-77893682D02*
G01*
X136395721Y-77927990D01*
X136499955Y-77983704D01*
X136591317Y-78058683D01*
X136666296Y-78150045D01*
X136722010Y-78254279D01*
X136756318Y-78367379D01*
X136767903Y-78485000D01*
X136756318Y-78602621D01*
X136722010Y-78715721D01*
X136666296Y-78819955D01*
X136591317Y-78911317D01*
X136499955Y-78986296D01*
X136395721Y-79042010D01*
X136282621Y-79076318D01*
X136194474Y-79085000D01*
X135585526Y-79085000D01*
X135497379Y-79076318D01*
X135384279Y-79042010D01*
X135280045Y-78986296D01*
X135188683Y-78911317D01*
X135113704Y-78819955D01*
X135057990Y-78715721D01*
X135023682Y-78602621D01*
X135012097Y-78485000D01*
X135023682Y-78367379D01*
X135057990Y-78254279D01*
X135113704Y-78150045D01*
X135188683Y-78058683D01*
X135280045Y-77983704D01*
X135384279Y-77927990D01*
X135497379Y-77893682D01*
X135585526Y-77885000D01*
X136194474Y-77885000D01*
X136282621Y-77893682D01*
X136282621Y-77893682D01*
G37*
G36*
X136282621Y-75893682D02*
G01*
X136395721Y-75927990D01*
X136499955Y-75983704D01*
X136591317Y-76058683D01*
X136666296Y-76150045D01*
X136722010Y-76254279D01*
X136756318Y-76367379D01*
X136767903Y-76485000D01*
X136756318Y-76602621D01*
X136722010Y-76715721D01*
X136666296Y-76819955D01*
X136591317Y-76911317D01*
X136499955Y-76986296D01*
X136395721Y-77042010D01*
X136282621Y-77076318D01*
X136194474Y-77085000D01*
X135585526Y-77085000D01*
X135497379Y-77076318D01*
X135384279Y-77042010D01*
X135280045Y-76986296D01*
X135188683Y-76911317D01*
X135113704Y-76819955D01*
X135057990Y-76715721D01*
X135023682Y-76602621D01*
X135012097Y-76485000D01*
X135023682Y-76367379D01*
X135057990Y-76254279D01*
X135113704Y-76150045D01*
X135188683Y-76058683D01*
X135280045Y-75983704D01*
X135384279Y-75927990D01*
X135497379Y-75893682D01*
X135585526Y-75885000D01*
X136194474Y-75885000D01*
X136282621Y-75893682D01*
X136282621Y-75893682D01*
G37*
G36*
X136282621Y-73893682D02*
G01*
X136395721Y-73927990D01*
X136499955Y-73983704D01*
X136591317Y-74058683D01*
X136666296Y-74150045D01*
X136722010Y-74254279D01*
X136756318Y-74367379D01*
X136767903Y-74485000D01*
X136756318Y-74602621D01*
X136722010Y-74715721D01*
X136666296Y-74819955D01*
X136591317Y-74911317D01*
X136499955Y-74986296D01*
X136395721Y-75042010D01*
X136282621Y-75076318D01*
X136194474Y-75085000D01*
X135585526Y-75085000D01*
X135497379Y-75076318D01*
X135384279Y-75042010D01*
X135280045Y-74986296D01*
X135188683Y-74911317D01*
X135113704Y-74819955D01*
X135057990Y-74715721D01*
X135023682Y-74602621D01*
X135012097Y-74485000D01*
X135023682Y-74367379D01*
X135057990Y-74254279D01*
X135113704Y-74150045D01*
X135188683Y-74058683D01*
X135280045Y-73983704D01*
X135384279Y-73927990D01*
X135497379Y-73893682D01*
X135585526Y-73885000D01*
X136194474Y-73885000D01*
X136282621Y-73893682D01*
X136282621Y-73893682D01*
G37*
G36*
X136282621Y-71893682D02*
G01*
X136395721Y-71927990D01*
X136499955Y-71983704D01*
X136591317Y-72058683D01*
X136666296Y-72150045D01*
X136722010Y-72254279D01*
X136756318Y-72367379D01*
X136767903Y-72485000D01*
X136756318Y-72602621D01*
X136722010Y-72715721D01*
X136666296Y-72819955D01*
X136591317Y-72911317D01*
X136499955Y-72986296D01*
X136395721Y-73042010D01*
X136282621Y-73076318D01*
X136194474Y-73085000D01*
X135585526Y-73085000D01*
X135497379Y-73076318D01*
X135384279Y-73042010D01*
X135280045Y-72986296D01*
X135188683Y-72911317D01*
X135113704Y-72819955D01*
X135057990Y-72715721D01*
X135023682Y-72602621D01*
X135012097Y-72485000D01*
X135023682Y-72367379D01*
X135057990Y-72254279D01*
X135113704Y-72150045D01*
X135188683Y-72058683D01*
X135280045Y-71983704D01*
X135384279Y-71927990D01*
X135497379Y-71893682D01*
X135585526Y-71885000D01*
X136194474Y-71885000D01*
X136282621Y-71893682D01*
X136282621Y-71893682D01*
G37*
G36*
X136622345Y-69888995D02*
G01*
X136655451Y-69899038D01*
X136685964Y-69915347D01*
X136712706Y-69937294D01*
X136734653Y-69964036D01*
X136750962Y-69994549D01*
X136761005Y-70027655D01*
X136765000Y-70068221D01*
X136765000Y-70901779D01*
X136761005Y-70942345D01*
X136750962Y-70975451D01*
X136734653Y-71005964D01*
X136712706Y-71032706D01*
X136685964Y-71054653D01*
X136655451Y-71070962D01*
X136622345Y-71081005D01*
X136581779Y-71085000D01*
X135198221Y-71085000D01*
X135157655Y-71081005D01*
X135124549Y-71070962D01*
X135094036Y-71054653D01*
X135067294Y-71032706D01*
X135045347Y-71005964D01*
X135029038Y-70975451D01*
X135018995Y-70942345D01*
X135015000Y-70901779D01*
X135015000Y-70068221D01*
X135018995Y-70027655D01*
X135029038Y-69994549D01*
X135045347Y-69964036D01*
X135067294Y-69937294D01*
X135094036Y-69915347D01*
X135124549Y-69899038D01*
X135157655Y-69888995D01*
X135198221Y-69885000D01*
X136581779Y-69885000D01*
X136622345Y-69888995D01*
X136622345Y-69888995D01*
G37*
G36*
X144992620Y-58188682D02*
G01*
X145105720Y-58222990D01*
X145209954Y-58278704D01*
X145301317Y-58353683D01*
X145376296Y-58445045D01*
X145432010Y-58549279D01*
X145466318Y-58662379D01*
X145475000Y-58750526D01*
X145475000Y-59359474D01*
X145466318Y-59447621D01*
X145432010Y-59560721D01*
X145376296Y-59664955D01*
X145301317Y-59756317D01*
X145209955Y-59831296D01*
X145105721Y-59887010D01*
X144992621Y-59921318D01*
X144875000Y-59932903D01*
X144757380Y-59921318D01*
X144644280Y-59887010D01*
X144540046Y-59831296D01*
X144448684Y-59756317D01*
X144373705Y-59664955D01*
X144317990Y-59560721D01*
X144283682Y-59447621D01*
X144275000Y-59359474D01*
X144275000Y-58750527D01*
X144283682Y-58662380D01*
X144317990Y-58549280D01*
X144373704Y-58445046D01*
X144448683Y-58353683D01*
X144540045Y-58278704D01*
X144644279Y-58222990D01*
X144757379Y-58188682D01*
X144875000Y-58177097D01*
X144992620Y-58188682D01*
X144992620Y-58188682D01*
G37*
G36*
X148992620Y-58188682D02*
G01*
X149105720Y-58222990D01*
X149209954Y-58278704D01*
X149301317Y-58353683D01*
X149376296Y-58445045D01*
X149432010Y-58549279D01*
X149466318Y-58662379D01*
X149475000Y-58750526D01*
X149475000Y-59359474D01*
X149466318Y-59447621D01*
X149432010Y-59560721D01*
X149376296Y-59664955D01*
X149301317Y-59756317D01*
X149209955Y-59831296D01*
X149105721Y-59887010D01*
X148992621Y-59921318D01*
X148875000Y-59932903D01*
X148757380Y-59921318D01*
X148644280Y-59887010D01*
X148540046Y-59831296D01*
X148448684Y-59756317D01*
X148373705Y-59664955D01*
X148317990Y-59560721D01*
X148283682Y-59447621D01*
X148275000Y-59359474D01*
X148275000Y-58750527D01*
X148283682Y-58662380D01*
X148317990Y-58549280D01*
X148373704Y-58445046D01*
X148448683Y-58353683D01*
X148540045Y-58278704D01*
X148644279Y-58222990D01*
X148757379Y-58188682D01*
X148875000Y-58177097D01*
X148992620Y-58188682D01*
X148992620Y-58188682D01*
G37*
G36*
X150992620Y-58188682D02*
G01*
X151105720Y-58222990D01*
X151209954Y-58278704D01*
X151301317Y-58353683D01*
X151376296Y-58445045D01*
X151432010Y-58549279D01*
X151466318Y-58662379D01*
X151475000Y-58750526D01*
X151475000Y-59359474D01*
X151466318Y-59447621D01*
X151432010Y-59560721D01*
X151376296Y-59664955D01*
X151301317Y-59756317D01*
X151209955Y-59831296D01*
X151105721Y-59887010D01*
X150992621Y-59921318D01*
X150875000Y-59932903D01*
X150757380Y-59921318D01*
X150644280Y-59887010D01*
X150540046Y-59831296D01*
X150448684Y-59756317D01*
X150373705Y-59664955D01*
X150317990Y-59560721D01*
X150283682Y-59447621D01*
X150275000Y-59359474D01*
X150275000Y-58750527D01*
X150283682Y-58662380D01*
X150317990Y-58549280D01*
X150373704Y-58445046D01*
X150448683Y-58353683D01*
X150540045Y-58278704D01*
X150644279Y-58222990D01*
X150757379Y-58188682D01*
X150875000Y-58177097D01*
X150992620Y-58188682D01*
X150992620Y-58188682D01*
G37*
G36*
X146992620Y-58188682D02*
G01*
X147105720Y-58222990D01*
X147209954Y-58278704D01*
X147301317Y-58353683D01*
X147376296Y-58445045D01*
X147432010Y-58549279D01*
X147466318Y-58662379D01*
X147475000Y-58750526D01*
X147475000Y-59359474D01*
X147466318Y-59447621D01*
X147432010Y-59560721D01*
X147376296Y-59664955D01*
X147301317Y-59756317D01*
X147209955Y-59831296D01*
X147105721Y-59887010D01*
X146992621Y-59921318D01*
X146875000Y-59932903D01*
X146757380Y-59921318D01*
X146644280Y-59887010D01*
X146540046Y-59831296D01*
X146448684Y-59756317D01*
X146373705Y-59664955D01*
X146317990Y-59560721D01*
X146283682Y-59447621D01*
X146275000Y-59359474D01*
X146275000Y-58750527D01*
X146283682Y-58662380D01*
X146317990Y-58549280D01*
X146373704Y-58445046D01*
X146448683Y-58353683D01*
X146540045Y-58278704D01*
X146644279Y-58222990D01*
X146757379Y-58188682D01*
X146875000Y-58177097D01*
X146992620Y-58188682D01*
X146992620Y-58188682D01*
G37*
G36*
X142992620Y-58188682D02*
G01*
X143105720Y-58222990D01*
X143209954Y-58278704D01*
X143301317Y-58353683D01*
X143376296Y-58445045D01*
X143432010Y-58549279D01*
X143466318Y-58662379D01*
X143475000Y-58750526D01*
X143475000Y-59359474D01*
X143466318Y-59447621D01*
X143432010Y-59560721D01*
X143376296Y-59664955D01*
X143301317Y-59756317D01*
X143209955Y-59831296D01*
X143105721Y-59887010D01*
X142992621Y-59921318D01*
X142875000Y-59932903D01*
X142757380Y-59921318D01*
X142644280Y-59887010D01*
X142540046Y-59831296D01*
X142448684Y-59756317D01*
X142373705Y-59664955D01*
X142317990Y-59560721D01*
X142283682Y-59447621D01*
X142275000Y-59359474D01*
X142275000Y-58750527D01*
X142283682Y-58662380D01*
X142317990Y-58549280D01*
X142373704Y-58445046D01*
X142448683Y-58353683D01*
X142540045Y-58278704D01*
X142644279Y-58222990D01*
X142757379Y-58188682D01*
X142875000Y-58177097D01*
X142992620Y-58188682D01*
X142992620Y-58188682D01*
G37*
G36*
X141332345Y-58183995D02*
G01*
X141365451Y-58194038D01*
X141395964Y-58210347D01*
X141422706Y-58232294D01*
X141444653Y-58259036D01*
X141460962Y-58289549D01*
X141471005Y-58322655D01*
X141475000Y-58363221D01*
X141475000Y-59746779D01*
X141471005Y-59787345D01*
X141460962Y-59820451D01*
X141444653Y-59850964D01*
X141422706Y-59877706D01*
X141395964Y-59899653D01*
X141365451Y-59915962D01*
X141332345Y-59926005D01*
X141291779Y-59930000D01*
X140458221Y-59930000D01*
X140417655Y-59926005D01*
X140384549Y-59915962D01*
X140354036Y-59899653D01*
X140327294Y-59877706D01*
X140305347Y-59850964D01*
X140289038Y-59820451D01*
X140278995Y-59787345D01*
X140275000Y-59746779D01*
X140275000Y-58363221D01*
X140278995Y-58322655D01*
X140289038Y-58289549D01*
X140305347Y-58259036D01*
X140327294Y-58232294D01*
X140354036Y-58210347D01*
X140384549Y-58194038D01*
X140417655Y-58183995D01*
X140458221Y-58180000D01*
X141291779Y-58180000D01*
X141332345Y-58183995D01*
X141332345Y-58183995D01*
G37*
G36*
X157011627Y-58217299D02*
G01*
X157061059Y-58232294D01*
X157171855Y-58265903D01*
X157171857Y-58265904D01*
X157319518Y-58344831D01*
X157448949Y-58451051D01*
X157555169Y-58580482D01*
X157634096Y-58728143D01*
X157682701Y-58888373D01*
X157699112Y-59055000D01*
X157682701Y-59221627D01*
X157634096Y-59381857D01*
X157555169Y-59529518D01*
X157448949Y-59658949D01*
X157319518Y-59765169D01*
X157219008Y-59818893D01*
X157171855Y-59844097D01*
X157091742Y-59868398D01*
X157011627Y-59892701D01*
X156886752Y-59905000D01*
X156803248Y-59905000D01*
X156678373Y-59892701D01*
X156598258Y-59868398D01*
X156518145Y-59844097D01*
X156470992Y-59818893D01*
X156370482Y-59765169D01*
X156241051Y-59658949D01*
X156134831Y-59529518D01*
X156055904Y-59381857D01*
X156007299Y-59221627D01*
X155990888Y-59055000D01*
X156007299Y-58888373D01*
X156055904Y-58728143D01*
X156134831Y-58580482D01*
X156241051Y-58451051D01*
X156370482Y-58344831D01*
X156518143Y-58265904D01*
X156518145Y-58265903D01*
X156628941Y-58232294D01*
X156678373Y-58217299D01*
X156803248Y-58205000D01*
X156886752Y-58205000D01*
X157011627Y-58217299D01*
X157011627Y-58217299D01*
G37*
G36*
X159551627Y-58217299D02*
G01*
X159601059Y-58232294D01*
X159711855Y-58265903D01*
X159711857Y-58265904D01*
X159859518Y-58344831D01*
X159988949Y-58451051D01*
X160095169Y-58580482D01*
X160174096Y-58728143D01*
X160222701Y-58888373D01*
X160239112Y-59055000D01*
X160222701Y-59221627D01*
X160174096Y-59381857D01*
X160095169Y-59529518D01*
X159988949Y-59658949D01*
X159859518Y-59765169D01*
X159759008Y-59818893D01*
X159711855Y-59844097D01*
X159631742Y-59868398D01*
X159551627Y-59892701D01*
X159426752Y-59905000D01*
X159343248Y-59905000D01*
X159218373Y-59892701D01*
X159138258Y-59868398D01*
X159058145Y-59844097D01*
X159010992Y-59818893D01*
X158910482Y-59765169D01*
X158781051Y-59658949D01*
X158674831Y-59529518D01*
X158595904Y-59381857D01*
X158547299Y-59221627D01*
X158530888Y-59055000D01*
X158547299Y-58888373D01*
X158595904Y-58728143D01*
X158674831Y-58580482D01*
X158781051Y-58451051D01*
X158910482Y-58344831D01*
X159058143Y-58265904D01*
X159058145Y-58265903D01*
X159168941Y-58232294D01*
X159218373Y-58217299D01*
X159343248Y-58205000D01*
X159426752Y-58205000D01*
X159551627Y-58217299D01*
X159551627Y-58217299D01*
G37*
G36*
X162091627Y-58217299D02*
G01*
X162141059Y-58232294D01*
X162251855Y-58265903D01*
X162251857Y-58265904D01*
X162399518Y-58344831D01*
X162528949Y-58451051D01*
X162635169Y-58580482D01*
X162714096Y-58728143D01*
X162762701Y-58888373D01*
X162779112Y-59055000D01*
X162762701Y-59221627D01*
X162714096Y-59381857D01*
X162635169Y-59529518D01*
X162528949Y-59658949D01*
X162399518Y-59765169D01*
X162299008Y-59818893D01*
X162251855Y-59844097D01*
X162171742Y-59868398D01*
X162091627Y-59892701D01*
X161966752Y-59905000D01*
X161883248Y-59905000D01*
X161758373Y-59892701D01*
X161678258Y-59868398D01*
X161598145Y-59844097D01*
X161550992Y-59818893D01*
X161450482Y-59765169D01*
X161321051Y-59658949D01*
X161214831Y-59529518D01*
X161135904Y-59381857D01*
X161087299Y-59221627D01*
X161070888Y-59055000D01*
X161087299Y-58888373D01*
X161135904Y-58728143D01*
X161214831Y-58580482D01*
X161321051Y-58451051D01*
X161450482Y-58344831D01*
X161598143Y-58265904D01*
X161598145Y-58265903D01*
X161708941Y-58232294D01*
X161758373Y-58217299D01*
X161883248Y-58205000D01*
X161966752Y-58205000D01*
X162091627Y-58217299D01*
X162091627Y-58217299D01*
G37*
G36*
X165315000Y-59905000D02*
G01*
X163615000Y-59905000D01*
X163615000Y-58205000D01*
X165315000Y-58205000D01*
X165315000Y-59905000D01*
X165315000Y-59905000D01*
G37*
M02*
