<?xml version="1.0" standalone="no"?>
 <!DOCTYPE svg PUBLIC "-//W3C//DTD SVG 1.1//EN" 
 "http://www.w3.org/Graphics/SVG/1.1/DTD/svg11.dtd"> 
<svg xmlns="http://www.w3.org/2000/svg" version="1.1" 
    width="29.7002cm" height="21.0007cm" viewBox="0 0 116930 82680 ">
<title>SVG Picture created as BLDC_4-F_SilkS.svg date 2019/11/15 08:40:03 </title>
  <desc>Picture generated by PCBNEW </desc>
<g style="fill:#000000; fill-opacity:1;stroke:#000000; stroke-opacity:1;
stroke-linecap:round; stroke-linejoin:round; "
 transform="translate(0 0) scale(1 1)">
</g>
<g style="fill:#000000; fill-opacity:0.0; 
stroke:#000000; stroke-width:-0.000393701; stroke-opacity:1; 
stroke-linecap:round; stroke-linejoin:round;">
</g>
<g style="fill:#000000; fill-opacity:0.0; 
stroke:#000000; stroke-width:59.0551; stroke-opacity:1; 
stroke-linecap:round; stroke-linejoin:round;">
<path d="M61465 39221
L61521 39240
L61540 39259
L61559 39296
L61559 39353
L61540 39390
L61521 39409
L61484 39428
L61334 39428
L61334 39034
L61465 39034
L61503 39053
L61521 39071
L61540 39109
L61540 39146
L61521 39184
L61503 39203
L61465 39221
L61334 39221
" />
<path d="M61709 39315
L61896 39315
" />
<path d="M61671 39428
L61803 39034
L61934 39428
" />
<path d="M62009 39034
L62234 39034
" />
<path d="M62121 39428
L62121 39034
" />
<path d="M62365 39278
L62665 39278
" />
<path d="M62515 39428
L62515 39128
" />
</g>
<g style="fill:#000000; fill-opacity:0.0; 
stroke:#000000; stroke-width:78.7402; stroke-opacity:1; 
stroke-linecap:round; stroke-linejoin:round;">
<path d="M54700 39053
L54662 39034
L54606 39034
L54550 39053
L54512 39090
L54493 39128
L54475 39203
L54475 39259
L54493 39334
L54512 39371
L54550 39409
L54606 39428
L54643 39428
L54700 39409
L54718 39390
L54718 39259
L54643 39259
" />
<path d="M54887 39428
L54887 39034
L55112 39428
L55112 39034
" />
<path d="M55299 39428
L55299 39034
L55393 39034
L55449 39053
L55487 39090
L55506 39128
L55524 39203
L55524 39259
L55506 39334
L55487 39371
L55449 39409
L55393 39428
L55299 39428
" />
</g>
<g style="fill:#000000; fill-opacity:0.0; 
stroke:#000000; stroke-width:47.2441; stroke-opacity:1; 
stroke-linecap:round; stroke-linejoin:round;">
<path d="M57738 28612
L57210 28612
" />
<path d="M57738 28238
L57738 28612
" />
<path d="M58112 28238
L57738 28238
" />
<path d="M61761 28238
L61761 28612
" />
<path d="M61387 28238
L61761 28238
" />
<path d="M57738 32261
L57738 31887
" />
<path d="M58112 32261
L57738 32261
" />
<path d="M61761 32261
L61761 31887
" />
<path d="M61387 32261
L61761 32261
" />
<path d="M64950 24685
L64950 24814
" />
<path d="M64549 24685
L64549 24814
" />
<path d="M73299 28911
L73299 28777
" />
<path d="M73700 28911
L73700 28777
" />
<path d="M56728 27456
L55271 27456
" />
<path d="M55271 27456
L55271 29543
" />
<path d="M72342 22885
L72342 25251
" />
<path d="M69657 23771
L69657 25251
" />
<path d="M72342 25251
L71846 25251
" />
<path d="M69657 25251
L70153 25251
" />
</g>
<g style="fill:#000000; fill-opacity:0.0; 
stroke:#000000; stroke-width:59.0551; stroke-opacity:1; 
stroke-linecap:round; stroke-linejoin:round;">
<path d="M69500 32305
L72000 32305
" />
<path d="M69076 26665
L72000 26665
" />
<path d="M69500 32305
L69500 32302
" />
<path d="M72000 32305
L72000 32302
" />
<path d="M72000 26694
L72000 26697
" />
</g>
<g style="fill:#000000; fill-opacity:0.0; 
stroke:#000000; stroke-width:47.2441; stroke-opacity:1; 
stroke-linecap:round; stroke-linejoin:round;">
<path d="M70549 35435
L70549 35564
" />
<path d="M70950 35435
L70950 35564
" />
<path d="M80799 39685
L80799 39814
" />
<path d="M81200 39685
L81200 39814
" />
<path d="M69549 35435
L69549 35564
" />
<path d="M69950 35435
L69950 35564
" />
<path d="M81549 39685
L81549 39814
" />
<path d="M81950 39685
L81950 39814
" />
<path d="M68549 35435
L68549 35564
" />
<path d="M68950 35435
L68950 35564
" />
<path d="M82299 39685
L82299 39814
" />
<path d="M82700 39685
L82700 39814
" />
<path d="M71450 33374
L71450 33245
" />
<path d="M71049 33374
L71049 33245
" />
<path d="M69549 33245
L69549 33374
" />
<path d="M69950 33245
L69950 33374
" />
<path d="M75314 33700
L75185 33700
" />
<path d="M75314 33299
L75185 33299
" />
<path d="M75314 32549
L75185 32549
" />
<path d="M75314 32950
L75185 32950
" />
<path d="M76624 24049
L76495 24049
" />
<path d="M76624 24450
L76495 24450
" />
<path d="M68703 25890
L68703 26018
" />
<path d="M69105 25890
L69105 26018
" />
<path d="M67700 25875
L67700 26004
" />
<path d="M67299 25875
L67299 26004
" />
<path d="M68064 28700
L67935 28700
" />
<path d="M68064 28299
L67935 28299
" />
<path d="M68064 27950
L67935 27950
" />
<path d="M68064 27549
L67935 27549
" />
<path d="M67875 26799
L68004 26799
" />
<path d="M67875 27200
L68004 27200
" />
<path d="M80374 38549
L80245 38549
" />
<path d="M80374 38950
L80245 38950
" />
<path d="M78874 38799
L78745 38799
" />
<path d="M78874 39200
L78745 39200
" />
<path d="M78874 36299
L78745 36299
" />
<path d="M78874 36700
L78745 36700
" />
<path d="M78799 33185
L78799 33314
" />
<path d="M79200 33185
L79200 33314
" />
<path d="M79004 34799
L78875 34799
" />
<path d="M79004 35200
L78875 35200
" />
<path d="M79004 34049
L78875 34049
" />
<path d="M79004 34450
L78875 34450
" />
<path d="M80374 31950
L80245 31950
" />
<path d="M80374 31549
L80245 31549
" />
<path d="M78754 32200
L78625 32200
" />
<path d="M78754 31799
L78625 31799
" />
<path d="M78814 29700
L78685 29700
" />
<path d="M78814 29299
L78685 29299
" />
<path d="M56685 35200
L56814 35200
" />
<path d="M56685 34799
L56814 34799
" />
<path d="M56685 33700
L56814 33700
" />
<path d="M56685 33299
L56814 33299
" />
<path d="M56685 34450
L56814 34450
" />
<path d="M56685 34049
L56814 34049
" />
<path d="M62549 24814
L62549 24685
" />
<path d="M62950 24814
L62950 24685
" />
<path d="M63549 24814
L63549 24685
" />
<path d="M63950 24814
L63950 24685
" />
<path d="M60049 34314
L60049 34185
" />
<path d="M60450 34314
L60450 34185
" />
<path d="M59299 34314
L59299 34185
" />
<path d="M59700 34314
L59700 34185
" />
<path d="M80872 37344
L80872 37919
" />
<path d="M79627 37344
L79627 38194
" />
<path d="M79627 37344
L79994 37344
" />
<path d="M80872 37344
L80505 37344
" />
<path d="M80872 35844
L80872 36419
" />
<path d="M79627 35844
L79627 36694
" />
<path d="M79627 35844
L79994 35844
" />
<path d="M80872 35844
L80505 35844
" />
<path d="M80872 34344
L80872 34919
" />
<path d="M79627 34344
L79627 35194
" />
<path d="M79627 34344
L79994 34344
" />
<path d="M80872 34344
L80505 34344
" />
<path d="M80872 32844
L80872 33419
" />
<path d="M79627 32844
L79627 33694
" />
<path d="M79627 32844
L79994 32844
" />
<path d="M80872 32844
L80505 32844
" />
<path d="M80872 30450
L80505 30450
" />
<path d="M79627 30450
L79994 30450
" />
<path d="M79627 30450
L79627 31301
" />
<path d="M80872 30450
L80872 31025
" />
<path d="M80872 28950
L80505 28950
" />
<path d="M79627 28950
L79994 28950
" />
<path d="M79627 28950
L79627 29801
" />
<path d="M80872 28950
L80872 29525
" />
<path d="M54533 22419
L54533 22911
" />
<path d="M55025 22419
L54533 22419
" />
<path d="M59005 24155
L59005 23958
" />
<path d="M59045 23958
L59045 24155
" />
<path d="M58966 23958
L59045 23958
" />
<path d="M58966 24155
L58966 23958
" />
<path d="M58218 24155
L58218 23958
" />
<path d="M58257 23958
L58257 24155
" />
<path d="M58179 23958
L58257 23958
" />
<path d="M58179 24155
L58179 23958
" />
<path d="M57431 24155
L57431 23958
" />
<path d="M57470 23958
L57470 24155
" />
<path d="M57391 23958
L57470 23958
" />
<path d="M57391 24155
L57391 23958
" />
<path d="M56643 24155
L56643 23958
" />
<path d="M56683 23958
L56683 24155
" />
<path d="M56604 23958
L56683 23958
" />
<path d="M56604 24155
L56604 23958
" />
<path d="M55856 24155
L55856 23958
" />
<path d="M55895 23958
L55895 24155
" />
<path d="M55816 23958
L55895 23958
" />
<path d="M55816 24155
L55816 23958
" />
<path d="M60210 23564
L59970 23564
" />
<path d="M60210 23053
L59970 23053
" />
<path d="M54651 23564
L54891 23564
" />
<path d="M54651 23053
L54891 23053
" />
<path d="M59202 22777
L59202 22537
" />
<path d="M59970 22777
L59202 22777
" />
<path d="M59970 24155
L59970 22777
" />
<path d="M54891 24155
L59970 24155
" />
<path d="M54891 22777
L54891 24155
" />
<path d="M55659 22777
L54891 22777
" />
<path d="M55659 22537
L55659 22777
" />
<path d="M55344 22498
L55226 22498
" />
<path d="M55226 22458
L55226 22537
" />
<path d="M55344 22458
L55226 22458
" />
<path d="M55344 22537
L55344 22458
" />
<path d="M60210 22537
L54651 22537
" />
<path d="M60210 24395
L60210 22537
" />
<path d="M54651 24395
L60210 24395
" />
<path d="M54651 22537
L54651 24395
" />
<path d="M54330 26820
L53838 26820
" />
<path d="M54330 27312
L54330 26820
" />
<path d="M52594 32080
L52791 32080
" />
<path d="M52791 32120
L52594 32120
" />
<path d="M52791 32041
L52791 32120
" />
<path d="M52594 32041
L52791 32041
" />
<path d="M52594 31293
L52791 31293
" />
<path d="M52791 31332
L52594 31332
" />
<path d="M52791 31253
L52791 31332
" />
<path d="M52594 31253
L52791 31253
" />
<path d="M52594 30505
L52791 30505
" />
<path d="M52791 30545
L52594 30545
" />
<path d="M52791 30466
L52791 30545
" />
<path d="M52594 30466
L52791 30466
" />
<path d="M52594 29718
L52791 29718
" />
<path d="M52791 29757
L52594 29757
" />
<path d="M52791 29679
L52791 29757
" />
<path d="M52594 29679
L52791 29679
" />
<path d="M52594 28931
L52791 28931
" />
<path d="M52791 28970
L52594 28970
" />
<path d="M52791 28891
L52791 28970
" />
<path d="M52594 28891
L52791 28891
" />
<path d="M52594 28143
L52791 28143
" />
<path d="M52791 28183
L52594 28183
" />
<path d="M52791 28104
L52791 28183
" />
<path d="M52594 28104
L52791 28104
" />
<path d="M53185 33285
L53185 33045
" />
<path d="M53696 33285
L53696 33045
" />
<path d="M53185 26938
L53185 27179
" />
<path d="M53696 26938
L53696 27179
" />
<path d="M53972 32277
L54212 32277
" />
<path d="M53972 33045
L53972 32277
" />
<path d="M52594 33045
L53972 33045
" />
<path d="M52594 27179
L52594 33045
" />
<path d="M53972 27179
L52594 27179
" />
<path d="M53972 27946
L53972 27179
" />
<path d="M54212 27946
L53972 27946
" />
<path d="M54251 27631
L54251 27513
" />
<path d="M54291 27513
L54212 27513
" />
<path d="M54291 27631
L54291 27513
" />
<path d="M54212 27631
L54291 27631
" />
<path d="M54212 33285
L54212 26938
" />
<path d="M52354 33285
L54212 33285
" />
<path d="M52354 26938
L52354 33285
" />
<path d="M54212 26938
L52354 26938
" />
<path d="M61226 22726
L61226 23773
" />
<path d="M64250 22726
L61226 22726
" />
<path d="M64250 23773
L61226 23773
" />
<path d="M64250 22726
L64250 23773
" />
<path d="M64750 22726
L65273 22726
" />
<path d="M65273 22726
L65273 23250
" />
<path d="M75501 22350
L78218 22350
" />
<path d="M75501 23649
L78218 23649
" />
<path d="M75501 22350
L75501 23649
" />
<path d="M78899 24783
L78899 27500
" />
<path d="M77600 24783
L77600 27500
" />
<path d="M78899 24783
L77600 24783
" />
<path d="M56019 34710
L55120 34710
" />
<path d="M56019 35289
L56019 34710
" />
<path d="M55120 35289
L56019 35289
" />
<path d="M56019 33210
L55120 33210
" />
<path d="M56019 33789
L56019 33210
" />
<path d="M55120 33789
L56019 33789
" />
<path d="M56019 33960
L55120 33960
" />
<path d="M56019 34539
L56019 33960
" />
<path d="M55120 34539
L56019 34539
" />
<path d="M57049 26625
L57049 26754
" />
<path d="M57450 26625
L57450 26754
" />
<path d="M58049 26625
L58049 26754
" />
<path d="M58450 26625
L58450 26754
" />
<path d="M63564 28549
L63435 28549
" />
<path d="M63564 28950
L63435 28950
" />
<path d="M62874 32549
L62745 32549
" />
<path d="M62874 32950
L62745 32950
" />
<path d="M58950 34314
L58950 34185
" />
<path d="M58549 34314
L58549 34185
" />
<path d="M56064 30200
L55935 30200
" />
<path d="M56064 29799
L55935 29799
" />
<path d="M55935 32450
L56064 32450
" />
<path d="M55935 32049
L56064 32049
" />
<path d="M55935 30950
L56064 30950
" />
<path d="M55935 30549
L56064 30549
" />
<path d="M55935 31700
L56064 31700
" />
<path d="M55935 31299
L56064 31299
" />
<path d="M63435 29700
L63564 29700
" />
<path d="M63435 29299
L63564 29299
" />
<path d="M61549 34185
L61549 34314
" />
<path d="M61950 34185
L61950 34314
" />
<path d="M55935 26799
L56064 26799
" />
<path d="M55935 27200
L56064 27200
" />
<path d="M72942 38777
L74057 38777
" />
<path d="M72942 36722
L74057 36722
" />
<path d="M75237 35391
L74762 35391
" />
<path d="M75237 36108
L74762 36108
" />
<path d="M75237 34141
L74762 34141
" />
<path d="M75237 34858
L74762 34858
" />
<path d="M80196 25277
L81311 25277
" />
<path d="M80196 23222
L81311 23222
" />
<path d="M80012 26608
L80487 26608
" />
<path d="M80012 25891
L80487 25891
" />
<path d="M80012 27858
L80487 27858
" />
<path d="M80012 27141
L80487 27141
" />
<path d="M74818 23405
L73161 23405
" />
<path d="M74818 24594
L74818 23405
" />
<path d="M73161 24594
L74818 24594
" />
<path d="M72891 25564
L72891 26038
" />
<path d="M73608 25564
L73608 26038
" />
<path d="M68844 24573
L68844 22916
" />
<path d="M67655 24573
L68844 24573
" />
<path d="M67655 22916
L67655 24573
" />
<path d="M67200 23911
L67200 23777
" />
<path d="M66799 23911
L66799 23777
" />
<path d="M70700 33411
L70700 33277
" />
<path d="M70299 33411
L70299 33277
" />
<path d="M73549 32432
L73549 32567
" />
<path d="M73950 32432
L73950 32567
" />
<path d="M74299 31161
L74299 31027
" />
<path d="M74700 31161
L74700 31027
" />
<path d="M74299 29722
L74299 29588
" />
<path d="M74700 29722
L74700 29588
" />
<path d="M74200 27522
L74200 27387
" />
<path d="M73799 27522
L73799 27387
" />
<path d="M72737 35141
L72262 35141
" />
<path d="M72737 35858
L72262 35858
" />
<path d="M72737 34141
L72262 34141
" />
<path d="M72737 34858
L72262 34858
" />
<path d="M72737 33141
L72262 33141
" />
<path d="M72737 33858
L72262 33858
" />
<path d="M69200 33411
L69200 33277
" />
<path d="M68799 33411
L68799 33277
" />
<path d="M67411 29299
L67277 29299
" />
<path d="M67411 29700
L67277 29700
" />
<path d="M68067 24799
L67932 24799
" />
<path d="M68067 25200
L67932 25200
" />
<path d="M66549 28182
L66549 28317
" />
<path d="M66950 28182
L66950 28317
" />
<path d="M65799 28182
L65799 28317
" />
<path d="M66200 28182
L66200 28317
" />
<path d="M68049 25887
L68049 26022
" />
<path d="M68450 25887
L68450 26022
" />
<path d="M64700 28317
L64700 28182
" />
<path d="M64299 28317
L64299 28182
" />
<path d="M65450 28317
L65450 28182
" />
<path d="M65049 28317
L65049 28182
" />
<path d="M60799 34317
L60799 34182
" />
<path d="M61200 34317
L61200 34182
" />
</g>
<g style="fill:#000000; fill-opacity:0.0; 
stroke:#000000; stroke-width:59.0551; stroke-opacity:1; 
stroke-linecap:round; stroke-linejoin:round;">
<path d="M81344 38352
L81344 36147
" />
<path d="M83155 38352
L81344 38352
" />
<path d="M83155 36147
L83155 38352
" />
<path d="M81344 36147
L83155 36147
" />
<path d="M81344 34852
L81344 32647
" />
<path d="M83155 34852
L81344 34852
" />
<path d="M83155 32647
L83155 34852
" />
<path d="M81344 32647
L83155 32647
" />
<path d="M81344 29147
L83155 29147
" />
<path d="M83155 29147
L83155 31352
" />
<path d="M83155 31352
L81344 31352
" />
<path d="M81344 31352
L81344 29147
" />
<path d="M54094 38602
L54094 36397
" />
<path d="M55905 38602
L54094 38602
" />
<path d="M55905 36397
L55905 38602
" />
<path d="M54094 36397
L55905 36397
" />
<path d="M61094 38602
L61094 36397
" />
<path d="M62905 38602
L61094 38602
" />
<path d="M62905 36397
L62905 38602
" />
<path d="M61094 36397
L62905 36397
" />
</g>
<g style="fill:#000000; fill-opacity:0.0; 
stroke:#000000; stroke-width:150; stroke-opacity:1; 
stroke-linecap:round; stroke-linejoin:round;">
<circle cx="76000" cy="26500" r="1575" /> 
<path d="M74740 27406
L77260 27406
" />
<path d="M77260 25594
L74740 25594
" />
<circle cx="76000" cy="26500" r="1181" /> 
</g>
<g style="fill:#000000; fill-opacity:0.0; 
stroke:#000000; stroke-width:47.2441; stroke-opacity:1; 
stroke-linecap:round; stroke-linejoin:round;">
<path d="M78776 30076
L78632 30076
" />
<path d="M78776 31423
L78632 31423
" />
<path d="M78867 37076
L78723 37076
" />
<path d="M78867 38423
L78723 38423
" />
</g>
<g style="fill:#000000; fill-opacity:0.0; 
stroke:#000000; stroke-width:59.0551; stroke-opacity:1; 
stroke-linecap:round; stroke-linejoin:round;">
<path d="M59450 27121
L59450 27439
L59468 27477
L59487 27495
L59525 27514
L59600 27514
L59637 27495
L59656 27477
L59675 27439
L59675 27121
" />
<path d="M59824 27121
L60068 27121
L59937 27270
L59993 27270
L60031 27289
L60049 27308
L60068 27345
L60068 27439
L60049 27477
L60031 27495
L59993 27514
L59881 27514
L59843 27495
L59824 27477
" />
<path d="M65491 24815
L65303 24946
" />
<path d="M65491 25040
L65097 25040
L65097 24890
L65116 24853
L65134 24834
L65172 24815
L65228 24815
L65266 24834
L65284 24853
L65303 24890
L65303 25040
" />
<path d="M65097 24684
L65097 24440
L65247 24571
L65247 24515
L65266 24478
L65284 24459
L65322 24440
L65416 24440
L65453 24459
L65472 24478
L65491 24515
L65491 24628
L65472 24665
L65453 24684
" />
<path d="M73077 29097
L73096 29116
L73115 29172
L73115 29210
L73096 29266
L73058 29303
L73021 29322
L72946 29341
L72890 29341
L72815 29322
L72777 29303
L72740 29266
L72721 29210
L72721 29172
L72740 29116
L72758 29097
" />
<path d="M73115 28722
L73115 28947
" />
<path d="M73115 28835
L72721 28835
L72777 28872
L72815 28910
L72833 28947
" />
<path d="M72852 28385
L73115 28385
" />
<path d="M72702 28478
L72983 28572
L72983 28328
" />
<path d="M56886 28818
L57280 28556
" />
<path d="M56886 28556
L57280 28818
" />
<path d="M57280 28200
L57280 28425
" />
<path d="M57280 28312
L56886 28312
L56943 28350
L56980 28387
L56999 28425
" />
<path d="M72556 24799
L72874 24799
L72912 24781
L72931 24762
L72949 24724
L72949 24649
L72931 24612
L72912 24593
L72874 24574
L72556 24574
" />
<path d="M72593 24406
L72574 24387
L72556 24350
L72556 24256
L72574 24218
L72593 24200
L72631 24181
L72668 24181
L72724 24200
L72949 24425
L72949 24181
" />
<path d="M70450 26115
L70450 26433
L70468 26471
L70487 26490
L70525 26508
L70600 26508
L70637 26490
L70656 26471
L70675 26433
L70675 26115
" />
<path d="M71068 26508
L70843 26508
" />
<path d="M70956 26508
L70956 26115
L70918 26171
L70881 26208
L70843 26227
" />
<path d="M71491 35753
L71303 35884
" />
<path d="M71491 35978
L71097 35978
L71097 35828
L71116 35790
L71134 35771
L71172 35753
L71228 35753
L71266 35771
L71284 35790
L71303 35828
L71303 35978
" />
<path d="M71097 35621
L71097 35378
L71247 35509
L71247 35453
L71266 35415
L71284 35396
L71322 35378
L71416 35378
L71453 35396
L71472 35415
L71491 35453
L71491 35565
L71472 35603
L71453 35621
" />
<path d="M71097 35021
L71097 35209
L71284 35228
L71266 35209
L71247 35171
L71247 35078
L71266 35040
L71284 35021
L71322 35003
L71416 35003
L71453 35021
L71472 35040
L71491 35078
L71491 35171
L71472 35209
L71453 35228
" />
<path d="M81741 40003
L81553 40134
" />
<path d="M81741 40228
L81347 40228
L81347 40078
L81366 40040
L81384 40021
L81422 40003
L81478 40003
L81516 40021
L81534 40040
L81553 40078
L81553 40228
" />
<path d="M81347 39871
L81347 39628
L81497 39759
L81497 39703
L81516 39665
L81534 39646
L81572 39628
L81666 39628
L81703 39646
L81722 39665
L81741 39703
L81741 39815
L81722 39853
L81703 39871
" />
<path d="M81478 39290
L81741 39290
" />
<path d="M81328 39384
L81609 39478
L81609 39234
" />
<path d="M70491 35753
L70303 35884
" />
<path d="M70491 35978
L70097 35978
L70097 35828
L70116 35790
L70134 35771
L70172 35753
L70228 35753
L70266 35771
L70284 35790
L70303 35828
L70303 35978
" />
<path d="M70097 35621
L70097 35378
L70247 35509
L70247 35453
L70266 35415
L70284 35396
L70322 35378
L70416 35378
L70453 35396
L70472 35415
L70491 35453
L70491 35565
L70472 35603
L70453 35621
" />
<path d="M70097 35246
L70097 35003
L70247 35134
L70247 35078
L70266 35040
L70284 35021
L70322 35003
L70416 35003
L70453 35021
L70472 35040
L70491 35078
L70491 35190
L70472 35228
L70453 35246
" />
<path d="M82491 40003
L82303 40134
" />
<path d="M82491 40228
L82097 40228
L82097 40078
L82116 40040
L82134 40021
L82172 40003
L82228 40003
L82266 40021
L82284 40040
L82303 40078
L82303 40228
" />
<path d="M82097 39871
L82097 39628
L82247 39759
L82247 39703
L82266 39665
L82284 39646
L82322 39628
L82416 39628
L82453 39646
L82472 39665
L82491 39703
L82491 39815
L82472 39853
L82453 39871
" />
<path d="M82134 39478
L82116 39459
L82097 39421
L82097 39328
L82116 39290
L82134 39271
L82172 39253
L82209 39253
L82266 39271
L82491 39496
L82491 39253
" />
<path d="M69491 35753
L69303 35884
" />
<path d="M69491 35978
L69097 35978
L69097 35828
L69116 35790
L69134 35771
L69172 35753
L69228 35753
L69266 35771
L69284 35790
L69303 35828
L69303 35978
" />
<path d="M69097 35621
L69097 35378
L69247 35509
L69247 35453
L69266 35415
L69284 35396
L69322 35378
L69416 35378
L69453 35396
L69472 35415
L69491 35453
L69491 35565
L69472 35603
L69453 35621
" />
<path d="M69491 35003
L69491 35228
" />
<path d="M69491 35115
L69097 35115
L69153 35153
L69191 35190
L69209 35228
" />
<path d="M83241 40003
L83053 40134
" />
<path d="M83241 40228
L82847 40228
L82847 40078
L82866 40040
L82884 40021
L82922 40003
L82978 40003
L83016 40021
L83034 40040
L83053 40078
L83053 40228
" />
<path d="M82847 39871
L82847 39628
L82997 39759
L82997 39703
L83016 39665
L83034 39646
L83072 39628
L83166 39628
L83203 39646
L83222 39665
L83241 39703
L83241 39815
L83222 39853
L83203 39871
" />
<path d="M82847 39384
L82847 39346
L82866 39309
L82884 39290
L82922 39271
L82997 39253
L83091 39253
L83166 39271
L83203 39290
L83222 39309
L83241 39346
L83241 39384
L83222 39421
L83203 39440
L83166 39459
L83091 39478
L82997 39478
L82922 39459
L82884 39440
L82866 39421
L82847 39384
" />
<path d="M70865 33563
L70677 33694
" />
<path d="M70865 33788
L70471 33788
L70471 33638
L70490 33600
L70508 33581
L70546 33563
L70602 33563
L70640 33581
L70658 33600
L70677 33638
L70677 33788
" />
<path d="M70508 33413
L70490 33394
L70471 33356
L70471 33263
L70490 33225
L70508 33206
L70546 33188
L70583 33188
L70640 33206
L70865 33431
L70865 33188
" />
<path d="M70865 33000
L70865 32925
L70846 32888
L70827 32869
L70771 32831
L70696 32813
L70546 32813
L70508 32831
L70490 32850
L70471 32888
L70471 32963
L70490 33000
L70508 33019
L70546 33038
L70640 33038
L70677 33019
L70696 33000
L70715 32963
L70715 32888
L70696 32850
L70677 32831
L70640 32813
" />
<path d="M70491 33563
L70303 33694
" />
<path d="M70491 33788
L70097 33788
L70097 33638
L70116 33600
L70134 33581
L70172 33563
L70228 33563
L70266 33581
L70284 33600
L70303 33638
L70303 33788
" />
<path d="M70134 33413
L70116 33394
L70097 33356
L70097 33263
L70116 33225
L70134 33206
L70172 33188
L70209 33188
L70266 33206
L70491 33431
L70491 33188
" />
<path d="M70266 32963
L70247 33000
L70228 33019
L70191 33038
L70172 33038
L70134 33019
L70116 33000
L70097 32963
L70097 32888
L70116 32850
L70134 32831
L70172 32813
L70191 32813
L70228 32831
L70247 32850
L70266 32888
L70266 32963
L70284 33000
L70303 33019
L70341 33038
L70416 33038
L70453 33019
L70472 33000
L70491 32963
L70491 32888
L70472 32850
L70453 32831
L70416 32813
L70341 32813
L70303 32831
L70284 32850
L70266 32888
" />
<path d="M74996 34241
L74865 34053
" />
<path d="M74771 34241
L74771 33847
L74921 33847
L74959 33866
L74978 33884
L74996 33922
L74996 33978
L74978 34016
L74959 34034
L74921 34053
L74771 34053
" />
<path d="M75146 33884
L75165 33866
L75203 33847
L75296 33847
L75334 33866
L75353 33884
L75371 33922
L75371 33959
L75353 34016
L75128 34241
L75371 34241
" />
<path d="M75503 33847
L75765 33847
L75596 34241
" />
<path d="M74996 33491
L74865 33303
" />
<path d="M74771 33491
L74771 33097
L74921 33097
L74959 33116
L74978 33134
L74996 33172
L74996 33228
L74978 33266
L74959 33284
L74921 33303
L74771 33303
" />
<path d="M75146 33134
L75165 33116
L75203 33097
L75296 33097
L75334 33116
L75353 33134
L75371 33172
L75371 33209
L75353 33266
L75128 33491
L75371 33491
" />
<path d="M75709 33097
L75634 33097
L75596 33116
L75578 33134
L75540 33191
L75521 33266
L75521 33416
L75540 33453
L75559 33472
L75596 33491
L75671 33491
L75709 33472
L75728 33453
L75746 33416
L75746 33322
L75728 33284
L75709 33266
L75671 33247
L75596 33247
L75559 33266
L75540 33284
L75521 33322
" />
<path d="M76306 24991
L76175 24803
" />
<path d="M76081 24991
L76081 24597
L76231 24597
L76269 24616
L76288 24634
L76306 24672
L76306 24728
L76288 24766
L76269 24784
L76231 24803
L76081 24803
" />
<path d="M76456 24634
L76475 24616
L76513 24597
L76606 24597
L76644 24616
L76663 24634
L76681 24672
L76681 24709
L76663 24766
L76438 24991
L76681 24991
" />
<path d="M77038 24597
L76850 24597
L76831 24784
L76850 24766
L76888 24747
L76981 24747
L77019 24766
L77038 24784
L77056 24822
L77056 24916
L77038 24953
L77019 24972
L76981 24991
L76888 24991
L76850 24972
L76831 24953
" />
<path d="M69645 26207
L69458 26339
" />
<path d="M69645 26432
L69252 26432
L69252 26282
L69270 26245
L69289 26226
L69327 26207
L69383 26207
L69420 26226
L69439 26245
L69458 26282
L69458 26432
" />
<path d="M69289 26057
L69270 26039
L69252 26001
L69252 25907
L69270 25870
L69289 25851
L69327 25832
L69364 25832
L69420 25851
L69645 26076
L69645 25832
" />
<path d="M69383 25495
L69645 25495
" />
<path d="M69233 25589
L69514 25682
L69514 25439
" />
<path d="M68241 26193
L68053 26324
" />
<path d="M68241 26418
L67847 26418
L67847 26268
L67866 26230
L67884 26211
L67922 26193
L67978 26193
L68016 26211
L68034 26230
L68053 26268
L68053 26418
" />
<path d="M67884 26043
L67866 26024
L67847 25986
L67847 25893
L67866 25855
L67884 25836
L67922 25818
L67959 25818
L68016 25836
L68241 26061
L68241 25818
" />
<path d="M67847 25686
L67847 25443
L67997 25574
L67997 25518
L68016 25480
L68034 25461
L68072 25443
L68166 25443
L68203 25461
L68222 25480
L68241 25518
L68241 25630
L68222 25668
L68203 25686
" />
<path d="M67746 29241
L67615 29053
" />
<path d="M67521 29241
L67521 28847
L67671 28847
L67709 28866
L67728 28884
L67746 28922
L67746 28978
L67728 29016
L67709 29034
L67671 29053
L67521 29053
" />
<path d="M67896 28884
L67915 28866
L67953 28847
L68046 28847
L68084 28866
L68103 28884
L68121 28922
L68121 28959
L68103 29016
L67878 29241
L68121 29241
" />
<path d="M68271 28884
L68290 28866
L68328 28847
L68421 28847
L68459 28866
L68478 28884
L68496 28922
L68496 28959
L68478 29016
L68253 29241
L68496 29241
" />
<path d="M67746 28491
L67615 28303
" />
<path d="M67521 28491
L67521 28097
L67671 28097
L67709 28116
L67728 28134
L67746 28172
L67746 28228
L67728 28266
L67709 28284
L67671 28303
L67521 28303
" />
<path d="M67896 28134
L67915 28116
L67953 28097
L68046 28097
L68084 28116
L68103 28134
L68121 28172
L68121 28209
L68103 28266
L67878 28491
L68121 28491
" />
<path d="M68496 28491
L68271 28491
" />
<path d="M68384 28491
L68384 28097
L68346 28153
L68309 28191
L68271 28209
" />
<path d="M67686 26615
L67555 26427
" />
<path d="M67461 26615
L67461 26221
L67611 26221
L67649 26240
L67668 26258
L67686 26296
L67686 26352
L67668 26390
L67649 26408
L67611 26427
L67461 26427
" />
<path d="M67836 26258
L67855 26240
L67893 26221
L67986 26221
L68024 26240
L68043 26258
L68061 26296
L68061 26333
L68043 26390
L67818 26615
L68061 26615
" />
<path d="M68305 26221
L68343 26221
L68380 26240
L68399 26258
L68418 26296
L68436 26371
L68436 26465
L68418 26540
L68399 26577
L68380 26596
L68343 26615
L68305 26615
L68268 26596
L68249 26577
L68230 26540
L68211 26465
L68211 26371
L68230 26296
L68249 26258
L68268 26240
L68305 26221
" />
<path d="M80056 39491
L79925 39303
" />
<path d="M79831 39491
L79831 39097
L79981 39097
L80019 39116
L80038 39134
L80056 39172
L80056 39228
L80038 39266
L80019 39284
L79981 39303
L79831 39303
" />
<path d="M80431 39491
L80206 39491
" />
<path d="M80319 39491
L80319 39097
L80281 39153
L80244 39191
L80206 39209
" />
<path d="M80619 39491
L80694 39491
L80731 39472
L80750 39453
L80788 39397
L80806 39322
L80806 39172
L80788 39134
L80769 39116
L80731 39097
L80656 39097
L80619 39116
L80600 39134
L80581 39172
L80581 39266
L80600 39303
L80619 39322
L80656 39341
L80731 39341
L80769 39322
L80788 39303
L80806 39266
" />
<path d="M78556 39741
L78425 39553
" />
<path d="M78331 39741
L78331 39347
L78481 39347
L78519 39366
L78538 39384
L78556 39422
L78556 39478
L78538 39516
L78519 39534
L78481 39553
L78331 39553
" />
<path d="M78931 39741
L78706 39741
" />
<path d="M78819 39741
L78819 39347
L78781 39403
L78744 39441
L78706 39459
" />
<path d="M79156 39516
L79119 39497
L79100 39478
L79081 39441
L79081 39422
L79100 39384
L79119 39366
L79156 39347
L79231 39347
L79269 39366
L79288 39384
L79306 39422
L79306 39441
L79288 39478
L79269 39497
L79231 39516
L79156 39516
L79119 39534
L79100 39553
L79081 39591
L79081 39666
L79100 39703
L79119 39722
L79156 39741
L79231 39741
L79269 39722
L79288 39703
L79306 39666
L79306 39591
L79288 39553
L79269 39534
L79231 39516
" />
<path d="M78556 37241
L78425 37053
" />
<path d="M78331 37241
L78331 36847
L78481 36847
L78519 36866
L78538 36884
L78556 36922
L78556 36978
L78538 37016
L78519 37034
L78481 37053
L78331 37053
" />
<path d="M78931 37241
L78706 37241
" />
<path d="M78819 37241
L78819 36847
L78781 36903
L78744 36941
L78706 36959
" />
<path d="M79063 36847
L79325 36847
L79156 37241
" />
<path d="M79741 33503
L79553 33634
" />
<path d="M79741 33728
L79347 33728
L79347 33578
L79366 33540
L79384 33521
L79422 33503
L79478 33503
L79516 33521
L79534 33540
L79553 33578
L79553 33728
" />
<path d="M79741 33128
L79741 33353
" />
<path d="M79741 33240
L79347 33240
L79403 33278
L79441 33315
L79459 33353
" />
<path d="M79347 32790
L79347 32865
L79366 32903
L79384 32921
L79441 32959
L79516 32978
L79666 32978
L79703 32959
L79722 32940
L79741 32903
L79741 32828
L79722 32790
L79703 32771
L79666 32753
L79572 32753
L79534 32771
L79516 32790
L79497 32828
L79497 32903
L79516 32940
L79534 32959
L79572 32978
" />
<path d="M78686 35741
L78555 35553
" />
<path d="M78461 35741
L78461 35347
L78611 35347
L78649 35366
L78668 35384
L78686 35422
L78686 35478
L78668 35516
L78649 35534
L78611 35553
L78461 35553
" />
<path d="M79061 35741
L78836 35741
" />
<path d="M78949 35741
L78949 35347
L78911 35403
L78874 35441
L78836 35459
" />
<path d="M79418 35347
L79230 35347
L79211 35534
L79230 35516
L79268 35497
L79361 35497
L79399 35516
L79418 35534
L79436 35572
L79436 35666
L79418 35703
L79399 35722
L79361 35741
L79268 35741
L79230 35722
L79211 35703
" />
<path d="M78686 34991
L78555 34803
" />
<path d="M78461 34991
L78461 34597
L78611 34597
L78649 34616
L78668 34634
L78686 34672
L78686 34728
L78668 34766
L78649 34784
L78611 34803
L78461 34803
" />
<path d="M79061 34991
L78836 34991
" />
<path d="M78949 34991
L78949 34597
L78911 34653
L78874 34691
L78836 34709
" />
<path d="M79399 34728
L79399 34991
" />
<path d="M79305 34578
L79211 34859
L79455 34859
" />
<path d="M80056 32491
L79925 32303
" />
<path d="M79831 32491
L79831 32097
L79981 32097
L80019 32116
L80038 32134
L80056 32172
L80056 32228
L80038 32266
L80019 32284
L79981 32303
L79831 32303
" />
<path d="M80431 32491
L80206 32491
" />
<path d="M80319 32491
L80319 32097
L80281 32153
L80244 32191
L80206 32209
" />
<path d="M80563 32097
L80806 32097
L80675 32247
L80731 32247
L80769 32266
L80788 32284
L80806 32322
L80806 32416
L80788 32453
L80769 32472
L80731 32491
L80619 32491
L80581 32472
L80563 32453
" />
<path d="M78436 32741
L78305 32553
" />
<path d="M78211 32741
L78211 32347
L78361 32347
L78399 32366
L78418 32384
L78436 32422
L78436 32478
L78418 32516
L78399 32534
L78361 32553
L78211 32553
" />
<path d="M78811 32741
L78586 32741
" />
<path d="M78699 32741
L78699 32347
L78661 32403
L78624 32441
L78586 32459
" />
<path d="M78961 32384
L78980 32366
L79018 32347
L79111 32347
L79149 32366
L79168 32384
L79186 32422
L79186 32459
L79168 32516
L78943 32741
L79186 32741
" />
<path d="M78496 30241
L78365 30053
" />
<path d="M78271 30241
L78271 29847
L78421 29847
L78459 29866
L78478 29884
L78496 29922
L78496 29978
L78478 30016
L78459 30034
L78421 30053
L78271 30053
" />
<path d="M78871 30241
L78646 30241
" />
<path d="M78759 30241
L78759 29847
L78721 29903
L78684 29941
L78646 29959
" />
<path d="M79246 30241
L79021 30241
" />
<path d="M79134 30241
L79134 29847
L79096 29903
L79059 29941
L79021 29959
" />
<path d="M56684 34615
L56553 34427
" />
<path d="M56459 34615
L56459 34221
L56609 34221
L56646 34240
L56665 34258
L56684 34296
L56684 34352
L56665 34390
L56646 34408
L56609 34427
L56459 34427
" />
<path d="M56909 34390
L56871 34371
L56853 34352
L56834 34315
L56834 34296
L56853 34258
L56871 34240
L56909 34221
L56984 34221
L57021 34240
L57040 34258
L57059 34296
L57059 34315
L57040 34352
L57021 34371
L56984 34390
L56909 34390
L56871 34408
L56853 34427
L56834 34465
L56834 34540
L56853 34577
L56871 34596
L56909 34615
L56984 34615
L57021 34596
L57040 34577
L57059 34540
L57059 34465
L57040 34427
L57021 34408
L56984 34390
" />
<path d="M56684 33115
L56553 32927
" />
<path d="M56459 33115
L56459 32721
L56609 32721
L56646 32740
L56665 32758
L56684 32796
L56684 32852
L56665 32890
L56646 32908
L56609 32927
L56459 32927
" />
<path d="M56815 32721
L57078 32721
L56909 33115
" />
<path d="M56684 33865
L56553 33677
" />
<path d="M56459 33865
L56459 33471
L56609 33471
L56646 33490
L56665 33508
L56684 33546
L56684 33602
L56665 33640
L56646 33658
L56609 33677
L56459 33677
" />
<path d="M57021 33471
L56946 33471
L56909 33490
L56890 33508
L56853 33565
L56834 33640
L56834 33790
L56853 33827
L56871 33846
L56909 33865
L56984 33865
L57021 33846
L57040 33827
L57059 33790
L57059 33696
L57040 33658
L57021 33640
L56984 33621
L56909 33621
L56871 33640
L56853 33658
L56834 33696
" />
<path d="M62365 24815
L62177 24946
" />
<path d="M62365 25040
L61971 25040
L61971 24890
L61990 24853
L62008 24834
L62046 24815
L62102 24815
L62140 24834
L62158 24853
L62177 24890
L62177 25040
" />
<path d="M61971 24459
L61971 24646
L62158 24665
L62140 24646
L62121 24609
L62121 24515
L62140 24478
L62158 24459
L62196 24440
L62290 24440
L62327 24459
L62346 24478
L62365 24515
L62365 24609
L62346 24646
L62327 24665
" />
<path d="M63365 24815
L63177 24946
" />
<path d="M63365 25040
L62971 25040
L62971 24890
L62990 24853
L63008 24834
L63046 24815
L63102 24815
L63140 24834
L63158 24853
L63177 24890
L63177 25040
" />
<path d="M63102 24478
L63365 24478
" />
<path d="M62952 24571
L63233 24665
L63233 24421
" />
<path d="M59865 34315
L59677 34446
" />
<path d="M59865 34540
L59471 34540
L59471 34390
L59490 34353
L59508 34334
L59546 34315
L59602 34315
L59640 34334
L59658 34353
L59677 34390
L59677 34540
" />
<path d="M59508 34165
L59490 34146
L59471 34109
L59471 34015
L59490 33978
L59508 33959
L59546 33940
L59583 33940
L59640 33959
L59865 34184
L59865 33940
" />
<path d="M59115 34315
L58927 34446
" />
<path d="M59115 34540
L58721 34540
L58721 34390
L58740 34353
L58758 34334
L58796 34315
L58852 34315
L58890 34334
L58908 34353
L58927 34390
L58927 34540
" />
<path d="M59115 33940
L59115 34165
" />
<path d="M59115 34053
L58721 34053
L58777 34090
L58815 34128
L58833 34165
" />
<path d="M79481 37681
L79462 37718
L79425 37756
L79368 37812
L79350 37849
L79350 37887
" />
<path d="M79443 37868
L79425 37906
L79387 37943
L79312 37962
L79181 37962
L79106 37943
L79068 37906
L79050 37868
L79050 37793
L79068 37756
L79106 37718
L79181 37699
L79312 37699
L79387 37718
L79425 37756
L79443 37793
L79443 37868
" />
<path d="M79050 37362
L79050 37437
L79068 37474
L79087 37493
L79143 37531
L79218 37549
L79368 37549
L79406 37531
L79425 37512
L79443 37474
L79443 37399
L79425 37362
L79406 37343
L79368 37324
L79275 37324
L79237 37343
L79218 37362
L79200 37399
L79200 37474
L79218 37512
L79237 37531
L79275 37549
" />
<path d="M79481 36181
L79462 36218
L79425 36256
L79368 36312
L79350 36349
L79350 36387
" />
<path d="M79443 36368
L79425 36406
L79387 36443
L79312 36462
L79181 36462
L79106 36443
L79068 36406
L79050 36368
L79050 36293
L79068 36256
L79106 36218
L79181 36199
L79312 36199
L79387 36218
L79425 36256
L79443 36293
L79443 36368
" />
<path d="M79050 35843
L79050 36031
L79237 36049
L79218 36031
L79200 35993
L79200 35899
L79218 35862
L79237 35843
L79275 35824
L79368 35824
L79406 35843
L79425 35862
L79443 35899
L79443 35993
L79425 36031
L79406 36049
" />
<path d="M79481 34681
L79462 34718
L79425 34756
L79368 34812
L79350 34849
L79350 34887
" />
<path d="M79443 34868
L79425 34906
L79387 34943
L79312 34962
L79181 34962
L79106 34943
L79068 34906
L79050 34868
L79050 34793
L79068 34756
L79106 34718
L79181 34699
L79312 34699
L79387 34718
L79425 34756
L79443 34793
L79443 34868
" />
<path d="M79181 34362
L79443 34362
" />
<path d="M79031 34456
L79312 34549
L79312 34306
" />
<path d="M79481 33181
L79462 33218
L79425 33256
L79368 33312
L79350 33349
L79350 33387
" />
<path d="M79443 33368
L79425 33406
L79387 33443
L79312 33462
L79181 33462
L79106 33443
L79068 33406
L79050 33368
L79050 33293
L79068 33256
L79106 33218
L79181 33199
L79312 33199
L79387 33218
L79425 33256
L79443 33293
L79443 33368
" />
<path d="M79050 33068
L79050 32824
L79200 32956
L79200 32899
L79218 32862
L79237 32843
L79275 32824
L79368 32824
L79406 32843
L79425 32862
L79443 32899
L79443 33012
L79425 33049
L79406 33068
" />
<path d="M79481 30787
L79462 30824
L79425 30862
L79368 30918
L79350 30956
L79350 30993
" />
<path d="M79443 30974
L79425 31012
L79387 31049
L79312 31068
L79181 31068
L79106 31049
L79068 31012
L79050 30974
L79050 30899
L79068 30862
L79106 30824
L79181 30806
L79312 30806
L79387 30824
L79425 30862
L79443 30899
L79443 30974
" />
<path d="M79087 30656
L79068 30637
L79050 30600
L79050 30506
L79068 30468
L79087 30450
L79125 30431
L79162 30431
L79218 30450
L79443 30675
L79443 30431
" />
<path d="M79481 29287
L79462 29324
L79425 29362
L79368 29418
L79350 29456
L79350 29493
" />
<path d="M79443 29474
L79425 29512
L79387 29549
L79312 29568
L79181 29568
L79106 29549
L79068 29512
L79050 29474
L79050 29399
L79068 29362
L79106 29324
L79181 29306
L79312 29306
L79387 29324
L79425 29362
L79443 29399
L79443 29474
" />
<path d="M79443 28931
L79443 29156
" />
<path d="M79443 29043
L79050 29043
L79106 29081
L79143 29118
L79162 29156
" />
<path d="M57140 22286
L57140 21892
L57290 21892
L57327 21911
L57346 21930
L57365 21967
L57365 22023
L57346 22061
L57327 22080
L57290 22098
L57140 22098
" />
<path d="M57496 21892
L57759 21892
L57590 22286
" />
<path d="M54819 30402
L54426 30402
L54426 30252
L54444 30215
L54463 30196
L54501 30177
L54557 30177
L54594 30196
L54613 30215
L54632 30252
L54632 30402
" />
<path d="M54819 29802
L54819 30027
" />
<path d="M54819 29915
L54426 29915
L54482 29952
L54519 29990
L54538 30027
" />
<path d="M65451 23381
L65732 23381
L65789 23399
L65826 23437
L65845 23493
L65845 23531
" />
<path d="M65845 22987
L65845 23212
" />
<path d="M65845 23100
L65451 23100
L65507 23137
L65545 23175
L65564 23212
" />
<path d="M76943 22193
L76943 21800
L77037 21800
L77093 21818
L77131 21856
L77149 21893
L77168 21968
L77168 22025
L77149 22100
L77131 22137
L77093 22175
L77037 22193
L76943 22193
" />
<path d="M77524 21800
L77337 21800
L77318 21987
L77337 21968
L77374 21950
L77468 21950
L77506 21968
L77524 21987
L77543 22025
L77543 22118
L77524 22156
L77506 22175
L77468 22193
L77374 22193
L77337 22175
L77318 22156
" />
<path d="M79412 26806
L79018 26806
L79018 26712
L79037 26656
L79074 26618
L79112 26600
L79187 26581
L79243 26581
L79318 26600
L79356 26618
L79393 26656
L79412 26712
L79412 26806
" />
<path d="M79149 26243
L79412 26243
" />
<path d="M78999 26337
L79281 26431
L79281 26187
" />
<path d="M55144 35741
L55144 35347
L55238 35347
L55294 35366
L55331 35403
L55350 35441
L55369 35516
L55369 35572
L55350 35647
L55331 35684
L55294 35722
L55238 35741
L55144 35741
" />
<path d="M55500 35347
L55744 35347
L55613 35497
L55669 35497
L55706 35516
L55725 35534
L55744 35572
L55744 35666
L55725 35703
L55706 35722
L55669 35741
L55556 35741
L55519 35722
L55500 35703
" />
<path d="M55144 34241
L55144 33847
L55238 33847
L55294 33866
L55331 33903
L55350 33941
L55369 34016
L55369 34072
L55350 34147
L55331 34184
L55294 34222
L55238 34241
L55144 34241
" />
<path d="M55519 33884
L55538 33866
L55575 33847
L55669 33847
L55706 33866
L55725 33884
L55744 33922
L55744 33959
L55725 34016
L55500 34241
L55744 34241
" />
<path d="M55144 34991
L55144 34597
L55238 34597
L55294 34616
L55331 34653
L55350 34691
L55369 34766
L55369 34822
L55350 34897
L55331 34934
L55294 34972
L55238 34991
L55144 34991
" />
<path d="M55744 34991
L55519 34991
" />
<path d="M55631 34991
L55631 34597
L55594 34653
L55556 34691
L55519 34709
" />
<path d="M57953 26943
L57972 26961
L57991 27018
L57991 27055
L57972 27111
L57934 27149
L57897 27168
L57822 27186
L57766 27186
L57691 27168
L57653 27149
L57616 27111
L57597 27055
L57597 27018
L57616 26961
L57634 26943
" />
<path d="M57728 26605
L57991 26605
" />
<path d="M57578 26699
L57859 26793
L57859 26549
" />
<path d="M57597 26324
L57597 26286
L57616 26249
L57634 26230
L57672 26211
L57747 26193
L57841 26193
L57916 26211
L57953 26230
L57972 26249
L57991 26286
L57991 26324
L57972 26361
L57953 26380
L57916 26399
L57841 26418
L57747 26418
L57672 26399
L57634 26380
L57616 26361
L57597 26324
" />
<path d="M58953 26943
L58972 26961
L58991 27018
L58991 27055
L58972 27111
L58934 27149
L58897 27168
L58822 27186
L58766 27186
L58691 27168
L58653 27149
L58616 27111
L58597 27055
L58597 27018
L58616 26961
L58634 26943
" />
<path d="M58597 26811
L58597 26568
L58747 26699
L58747 26643
L58766 26605
L58784 26586
L58822 26568
L58916 26568
L58953 26586
L58972 26605
L58991 26643
L58991 26755
L58972 26793
L58953 26811
" />
<path d="M58991 26380
L58991 26305
L58972 26268
L58953 26249
L58897 26211
L58822 26193
L58672 26193
L58634 26211
L58616 26230
L58597 26268
L58597 26343
L58616 26380
L58634 26399
L58672 26418
L58766 26418
L58803 26399
L58822 26380
L58841 26343
L58841 26268
L58822 26230
L58803 26211
L58766 26193
" />
<path d="M63246 29453
L63228 29472
L63171 29491
L63134 29491
L63078 29472
L63040 29434
L63021 29397
L63003 29322
L63003 29266
L63021 29191
L63040 29153
L63078 29116
L63134 29097
L63171 29097
L63228 29116
L63246 29134
" />
<path d="M63378 29097
L63621 29097
L63490 29247
L63546 29247
L63584 29266
L63603 29284
L63621 29322
L63621 29416
L63603 29453
L63584 29472
L63546 29491
L63434 29491
L63396 29472
L63378 29453
" />
<path d="M63846 29266
L63809 29247
L63790 29228
L63771 29191
L63771 29172
L63790 29134
L63809 29116
L63846 29097
L63921 29097
L63959 29116
L63978 29134
L63996 29172
L63996 29191
L63978 29228
L63959 29247
L63921 29266
L63846 29266
L63809 29284
L63790 29303
L63771 29341
L63771 29416
L63790 29453
L63809 29472
L63846 29491
L63921 29491
L63959 29472
L63978 29453
L63996 29416
L63996 29341
L63978 29303
L63959 29284
L63921 29266
" />
<path d="M62556 33453
L62538 33472
L62481 33491
L62444 33491
L62388 33472
L62350 33434
L62331 33397
L62313 33322
L62313 33266
L62331 33191
L62350 33153
L62388 33116
L62444 33097
L62481 33097
L62538 33116
L62556 33134
" />
<path d="M62688 33097
L62931 33097
L62800 33247
L62856 33247
L62894 33266
L62913 33284
L62931 33322
L62931 33416
L62913 33453
L62894 33472
L62856 33491
L62744 33491
L62706 33472
L62688 33453
" />
<path d="M63063 33097
L63325 33097
L63156 33491
" />
<path d="M58327 34503
L58346 34521
L58365 34578
L58365 34615
L58346 34671
L58308 34709
L58271 34728
L58196 34746
L58140 34746
L58065 34728
L58027 34709
L57990 34671
L57971 34615
L57971 34578
L57990 34521
L58008 34503
" />
<path d="M57971 34371
L57971 34128
L58121 34259
L58121 34203
L58140 34165
L58158 34146
L58196 34128
L58290 34128
L58327 34146
L58346 34165
L58365 34203
L58365 34315
L58346 34353
L58327 34371
" />
<path d="M57971 33790
L57971 33865
L57990 33903
L58008 33921
L58065 33959
L58140 33978
L58290 33978
L58327 33959
L58346 33940
L58365 33903
L58365 33828
L58346 33790
L58327 33771
L58290 33753
L58196 33753
L58158 33771
L58140 33790
L58121 33828
L58121 33903
L58140 33940
L58158 33959
L58196 33978
" />
<path d="M55746 30703
L55728 30722
L55671 30741
L55634 30741
L55578 30722
L55540 30684
L55521 30647
L55503 30572
L55503 30516
L55521 30441
L55540 30403
L55578 30366
L55634 30347
L55671 30347
L55728 30366
L55746 30384
" />
<path d="M55878 30347
L56121 30347
L55990 30497
L56046 30497
L56084 30516
L56103 30534
L56121 30572
L56121 30666
L56103 30703
L56084 30722
L56046 30741
L55934 30741
L55896 30722
L55878 30703
" />
<path d="M56478 30347
L56290 30347
L56271 30534
L56290 30516
L56328 30497
L56421 30497
L56459 30516
L56478 30534
L56496 30572
L56496 30666
L56478 30703
L56459 30722
L56421 30741
L56328 30741
L56290 30722
L56271 30703
" />
<path d="M55746 31827
L55728 31846
L55671 31865
L55634 31865
L55578 31846
L55540 31808
L55521 31771
L55503 31696
L55503 31640
L55521 31565
L55540 31527
L55578 31490
L55634 31471
L55671 31471
L55728 31490
L55746 31508
" />
<path d="M55878 31471
L56121 31471
L55990 31621
L56046 31621
L56084 31640
L56103 31658
L56121 31696
L56121 31790
L56103 31827
L56084 31846
L56046 31865
L55934 31865
L55896 31846
L55878 31827
" />
<path d="M56459 31602
L56459 31865
" />
<path d="M56365 31452
L56271 31733
L56515 31733
" />
<path d="M55746 30327
L55728 30346
L55671 30365
L55634 30365
L55578 30346
L55540 30308
L55521 30271
L55503 30196
L55503 30140
L55521 30065
L55540 30027
L55578 29990
L55634 29971
L55671 29971
L55728 29990
L55746 30008
" />
<path d="M55878 29971
L56121 29971
L55990 30121
L56046 30121
L56084 30140
L56103 30158
L56121 30196
L56121 30290
L56103 30327
L56084 30346
L56046 30365
L55934 30365
L55896 30346
L55878 30327
" />
<path d="M56253 29971
L56496 29971
L56365 30121
L56421 30121
L56459 30140
L56478 30158
L56496 30196
L56496 30290
L56478 30327
L56459 30346
L56421 30365
L56309 30365
L56271 30346
L56253 30327
" />
<path d="M55746 31077
L55728 31096
L55671 31115
L55634 31115
L55578 31096
L55540 31058
L55521 31021
L55503 30946
L55503 30890
L55521 30815
L55540 30777
L55578 30740
L55634 30721
L55671 30721
L55728 30740
L55746 30758
" />
<path d="M55878 30721
L56121 30721
L55990 30871
L56046 30871
L56084 30890
L56103 30908
L56121 30946
L56121 31040
L56103 31077
L56084 31096
L56046 31115
L55934 31115
L55896 31096
L55878 31077
" />
<path d="M56271 30758
L56290 30740
L56328 30721
L56421 30721
L56459 30740
L56478 30758
L56496 30796
L56496 30833
L56478 30890
L56253 31115
L56496 31115
" />
<path d="M63246 29077
L63228 29096
L63171 29115
L63134 29115
L63078 29096
L63040 29058
L63021 29021
L63003 28946
L63003 28890
L63021 28815
L63040 28777
L63078 28740
L63134 28721
L63171 28721
L63228 28740
L63246 28758
" />
<path d="M63378 28721
L63621 28721
L63490 28871
L63546 28871
L63584 28890
L63603 28908
L63621 28946
L63621 29040
L63603 29077
L63584 29096
L63546 29115
L63434 29115
L63396 29096
L63378 29077
" />
<path d="M63996 29115
L63771 29115
" />
<path d="M63884 29115
L63884 28721
L63846 28777
L63809 28815
L63771 28833
" />
<path d="M62453 34503
L62472 34521
L62491 34578
L62491 34615
L62472 34671
L62434 34709
L62397 34728
L62322 34746
L62266 34746
L62191 34728
L62153 34709
L62116 34671
L62097 34615
L62097 34578
L62116 34521
L62134 34503
" />
<path d="M62097 34371
L62097 34128
L62247 34259
L62247 34203
L62266 34165
L62284 34146
L62322 34128
L62416 34128
L62453 34146
L62472 34165
L62491 34203
L62491 34315
L62472 34353
L62453 34371
" />
<path d="M62097 33884
L62097 33846
L62116 33809
L62134 33790
L62172 33771
L62247 33753
L62341 33753
L62416 33771
L62453 33790
L62472 33809
L62491 33846
L62491 33884
L62472 33921
L62453 33940
L62416 33959
L62341 33978
L62247 33978
L62172 33959
L62134 33940
L62116 33921
L62097 33884
" />
<path d="M55746 26577
L55728 26596
L55671 26615
L55634 26615
L55578 26596
L55540 26558
L55521 26521
L55503 26446
L55503 26390
L55521 26315
L55540 26277
L55578 26240
L55634 26221
L55671 26221
L55728 26240
L55746 26258
" />
<path d="M55896 26258
L55915 26240
L55953 26221
L56046 26221
L56084 26240
L56103 26258
L56121 26296
L56121 26333
L56103 26390
L55878 26615
L56121 26615
" />
<path d="M56309 26615
L56384 26615
L56421 26596
L56440 26577
L56478 26521
L56496 26446
L56496 26296
L56478 26258
L56459 26240
L56421 26221
L56346 26221
L56309 26240
L56290 26258
L56271 26296
L56271 26390
L56290 26427
L56309 26446
L56346 26465
L56421 26465
L56459 26446
L56478 26427
L56496 26390
" />
<path d="M73246 36453
L73228 36472
L73171 36491
L73134 36491
L73078 36472
L73040 36434
L73021 36397
L73003 36322
L73003 36266
L73021 36191
L73040 36153
L73078 36116
L73134 36097
L73171 36097
L73228 36116
L73246 36134
" />
<path d="M73396 36134
L73415 36116
L73453 36097
L73546 36097
L73584 36116
L73603 36134
L73621 36172
L73621 36209
L73603 36266
L73378 36491
L73621 36491
" />
<path d="M73846 36266
L73809 36247
L73790 36228
L73771 36191
L73771 36172
L73790 36134
L73809 36116
L73846 36097
L73921 36097
L73959 36116
L73978 36134
L73996 36172
L73996 36191
L73978 36228
L73959 36247
L73921 36266
L73846 36266
L73809 36284
L73790 36303
L73771 36341
L73771 36416
L73790 36453
L73809 36472
L73846 36491
L73921 36491
L73959 36472
L73978 36453
L73996 36416
L73996 36341
L73978 36303
L73959 36284
L73921 36266
" />
<path d="M74746 36607
L74728 36625
L74671 36644
L74634 36644
L74578 36625
L74540 36588
L74521 36550
L74503 36475
L74503 36419
L74521 36344
L74540 36307
L74578 36269
L74634 36250
L74671 36250
L74728 36269
L74746 36288
" />
<path d="M74896 36288
L74915 36269
L74953 36250
L75046 36250
L75084 36269
L75103 36288
L75121 36325
L75121 36363
L75103 36419
L74878 36644
L75121 36644
" />
<path d="M75253 36250
L75515 36250
L75346 36644
" />
<path d="M74746 35357
L74728 35375
L74671 35394
L74634 35394
L74578 35375
L74540 35338
L74521 35300
L74503 35225
L74503 35169
L74521 35094
L74540 35057
L74578 35019
L74634 35000
L74671 35000
L74728 35019
L74746 35038
" />
<path d="M74896 35038
L74915 35019
L74953 35000
L75046 35000
L75084 35019
L75103 35038
L75121 35075
L75121 35113
L75103 35169
L74878 35394
L75121 35394
" />
<path d="M75459 35000
L75384 35000
L75346 35019
L75328 35038
L75290 35094
L75271 35169
L75271 35319
L75290 35357
L75309 35375
L75346 35394
L75421 35394
L75459 35375
L75478 35357
L75496 35319
L75496 35225
L75478 35188
L75459 35169
L75421 35150
L75346 35150
L75309 35169
L75290 35188
L75271 35225
" />
<path d="M80500 22953
L80482 22972
L80425 22991
L80388 22991
L80332 22972
L80294 22934
L80275 22897
L80257 22822
L80257 22766
L80275 22691
L80294 22653
L80332 22616
L80388 22597
L80425 22597
L80482 22616
L80500 22634
" />
<path d="M80650 22634
L80669 22616
L80707 22597
L80800 22597
L80838 22616
L80857 22634
L80875 22672
L80875 22709
L80857 22766
L80632 22991
L80875 22991
" />
<path d="M81232 22597
L81044 22597
L81025 22784
L81044 22766
L81082 22747
L81175 22747
L81213 22766
L81232 22784
L81250 22822
L81250 22916
L81232 22953
L81213 22972
L81175 22991
L81082 22991
L81044 22972
L81025 22953
" />
<path d="M79996 25674
L79978 25692
L79921 25711
L79884 25711
L79828 25692
L79790 25655
L79771 25617
L79753 25542
L79753 25486
L79771 25411
L79790 25374
L79828 25336
L79884 25317
L79921 25317
L79978 25336
L79996 25355
" />
<path d="M80146 25355
L80165 25336
L80203 25317
L80296 25317
L80334 25336
L80353 25355
L80371 25392
L80371 25430
L80353 25486
L80128 25711
L80371 25711
" />
<path d="M80709 25449
L80709 25711
" />
<path d="M80615 25299
L80521 25580
L80765 25580
" />
<path d="M79996 26924
L79978 26942
L79921 26961
L79884 26961
L79828 26942
L79790 26905
L79771 26867
L79753 26792
L79753 26736
L79771 26661
L79790 26624
L79828 26586
L79884 26567
L79921 26567
L79978 26586
L79996 26605
" />
<path d="M80146 26605
L80165 26586
L80203 26567
L80296 26567
L80334 26586
L80353 26605
L80371 26642
L80371 26680
L80353 26736
L80128 26961
L80371 26961
" />
<path d="M80503 26567
L80746 26567
L80615 26717
L80671 26717
L80709 26736
L80728 26755
L80746 26792
L80746 26886
L80728 26924
L80709 26942
L80671 26961
L80559 26961
L80521 26942
L80503 26924
" />
<path d="M73597 25065
L73578 25084
L73522 25103
L73484 25103
L73428 25084
L73391 25047
L73372 25009
L73353 24934
L73353 24878
L73372 24803
L73391 24765
L73428 24728
L73484 24709
L73522 24709
L73578 24728
L73597 24747
" />
<path d="M73747 24747
L73766 24728
L73803 24709
L73897 24709
L73934 24728
L73953 24747
L73972 24784
L73972 24822
L73953 24878
L73728 25103
L73972 25103
" />
<path d="M74122 24747
L74140 24728
L74178 24709
L74272 24709
L74309 24728
L74328 24747
L74347 24784
L74347 24822
L74328 24878
L74103 25103
L74347 25103
" />
<path d="M74107 26054
L74125 26073
L74144 26129
L74144 26166
L74125 26223
L74088 26260
L74050 26279
L73975 26297
L73919 26297
L73844 26279
L73807 26260
L73769 26223
L73750 26166
L73750 26129
L73769 26073
L73788 26054
" />
<path d="M73788 25904
L73769 25885
L73750 25848
L73750 25754
L73769 25716
L73788 25698
L73825 25679
L73863 25679
L73919 25698
L74144 25923
L74144 25679
" />
<path d="M74144 25304
L74144 25529
" />
<path d="M74144 25416
L73750 25416
L73807 25454
L73844 25491
L73863 25529
" />
<path d="M67465 23858
L67484 23877
L67502 23933
L67502 23970
L67484 24027
L67446 24064
L67409 24083
L67334 24102
L67277 24102
L67202 24083
L67165 24064
L67127 24027
L67109 23970
L67109 23933
L67127 23877
L67146 23858
" />
<path d="M67146 23708
L67127 23689
L67109 23652
L67109 23558
L67127 23520
L67146 23502
L67184 23483
L67221 23483
L67277 23502
L67502 23727
L67502 23483
" />
<path d="M67109 23239
L67109 23202
L67127 23164
L67146 23145
L67184 23127
L67259 23108
L67352 23108
L67427 23127
L67465 23145
L67484 23164
L67502 23202
L67502 23239
L67484 23277
L67465 23295
L67427 23314
L67352 23333
L67259 23333
L67184 23314
L67146 23295
L67127 23277
L67109 23239
" />
<path d="M66577 24097
L66596 24116
L66615 24172
L66615 24210
L66596 24266
L66558 24303
L66521 24322
L66446 24341
L66390 24341
L66315 24322
L66277 24303
L66240 24266
L66221 24210
L66221 24172
L66240 24116
L66258 24097
" />
<path d="M66615 23722
L66615 23947
" />
<path d="M66615 23835
L66221 23835
L66277 23872
L66315 23910
L66333 23947
" />
<path d="M66615 23535
L66615 23460
L66596 23422
L66577 23403
L66521 23366
L66446 23347
L66296 23347
L66258 23366
L66240 23385
L66221 23422
L66221 23497
L66240 23535
L66258 23553
L66296 23572
L66390 23572
L66427 23553
L66446 23535
L66465 23497
L66465 23422
L66446 23385
L66427 23366
L66390 23347
" />
<path d="M70077 33597
L70096 33616
L70115 33672
L70115 33710
L70096 33766
L70058 33803
L70021 33822
L69946 33841
L69890 33841
L69815 33822
L69777 33803
L69740 33766
L69721 33710
L69721 33672
L69740 33616
L69758 33597
" />
<path d="M70115 33222
L70115 33447
" />
<path d="M70115 33335
L69721 33335
L69777 33372
L69815 33410
L69833 33447
" />
<path d="M69890 32997
L69871 33035
L69852 33053
L69815 33072
L69796 33072
L69758 33053
L69740 33035
L69721 32997
L69721 32922
L69740 32885
L69758 32866
L69796 32847
L69815 32847
L69852 32866
L69871 32885
L69890 32922
L69890 32997
L69908 33035
L69927 33053
L69965 33072
L70040 33072
L70077 33053
L70096 33035
L70115 32997
L70115 32922
L70096 32885
L70077 32866
L70040 32847
L69965 32847
L69927 32866
L69908 32885
L69890 32922
" />
<path d="M74453 32753
L74472 32771
L74491 32828
L74491 32865
L74472 32921
L74434 32959
L74397 32978
L74322 32996
L74266 32996
L74191 32978
L74153 32959
L74116 32921
L74097 32865
L74097 32828
L74116 32771
L74134 32753
" />
<path d="M74491 32378
L74491 32603
" />
<path d="M74491 32490
L74097 32490
L74153 32528
L74191 32565
L74209 32603
" />
<path d="M74097 32246
L74097 31984
L74491 32153
" />
<path d="M74077 31347
L74096 31366
L74115 31422
L74115 31460
L74096 31516
L74058 31553
L74021 31572
L73946 31591
L73890 31591
L73815 31572
L73777 31553
L73740 31516
L73721 31460
L73721 31422
L73740 31366
L73758 31347
" />
<path d="M74115 30972
L74115 31197
" />
<path d="M74115 31085
L73721 31085
L73777 31122
L73815 31160
L73833 31197
" />
<path d="M73721 30635
L73721 30710
L73740 30747
L73758 30766
L73815 30803
L73890 30822
L74040 30822
L74077 30803
L74096 30785
L74115 30747
L74115 30672
L74096 30635
L74077 30616
L74040 30597
L73946 30597
L73908 30616
L73890 30635
L73871 30672
L73871 30747
L73890 30785
L73908 30803
L73946 30822
" />
<path d="M74077 29908
L74096 29927
L74115 29983
L74115 30021
L74096 30077
L74058 30114
L74021 30133
L73946 30152
L73890 30152
L73815 30133
L73777 30114
L73740 30077
L73721 30021
L73721 29983
L73740 29927
L73758 29908
" />
<path d="M74115 29533
L74115 29758
" />
<path d="M74115 29646
L73721 29646
L73777 29683
L73815 29721
L73833 29758
" />
<path d="M73721 29177
L73721 29364
L73908 29383
L73890 29364
L73871 29327
L73871 29233
L73890 29196
L73908 29177
L73946 29158
L74040 29158
L74077 29177
L74096 29196
L74115 29233
L74115 29327
L74096 29364
L74077 29383
" />
<path d="M73577 27707
L73596 27726
L73615 27782
L73615 27820
L73596 27876
L73558 27914
L73521 27932
L73446 27951
L73390 27951
L73315 27932
L73277 27914
L73240 27876
L73221 27820
L73221 27782
L73240 27726
L73258 27707
" />
<path d="M73615 27332
L73615 27557
" />
<path d="M73615 27445
L73221 27445
L73277 27482
L73315 27520
L73333 27557
" />
<path d="M73221 27201
L73221 26957
L73371 27089
L73371 27032
L73390 26995
L73408 26976
L73446 26957
L73540 26957
L73577 26976
L73596 26995
L73615 27032
L73615 27145
L73596 27182
L73577 27201
" />
<path d="M72246 36357
L72228 36375
L72171 36394
L72134 36394
L72078 36375
L72040 36338
L72021 36300
L72003 36225
L72003 36169
L72021 36094
L72040 36057
L72078 36019
L72134 36000
L72171 36000
L72228 36019
L72246 36038
" />
<path d="M72621 36394
L72396 36394
" />
<path d="M72509 36394
L72509 36000
L72471 36057
L72434 36094
L72396 36113
" />
<path d="M72771 36038
L72790 36019
L72828 36000
L72921 36000
L72959 36019
L72978 36038
L72996 36075
L72996 36113
L72978 36169
L72753 36394
L72996 36394
" />
<path d="M72246 35357
L72228 35375
L72171 35394
L72134 35394
L72078 35375
L72040 35338
L72021 35300
L72003 35225
L72003 35169
L72021 35094
L72040 35057
L72078 35019
L72134 35000
L72171 35000
L72228 35019
L72246 35038
" />
<path d="M72621 35394
L72396 35394
" />
<path d="M72509 35394
L72509 35000
L72471 35057
L72434 35094
L72396 35113
" />
<path d="M72996 35394
L72771 35394
" />
<path d="M72884 35394
L72884 35000
L72846 35057
L72809 35094
L72771 35113
" />
<path d="M72246 34357
L72228 34375
L72171 34394
L72134 34394
L72078 34375
L72040 34338
L72021 34300
L72003 34225
L72003 34169
L72021 34094
L72040 34057
L72078 34019
L72134 34000
L72171 34000
L72228 34019
L72246 34038
" />
<path d="M72621 34394
L72396 34394
" />
<path d="M72509 34394
L72509 34000
L72471 34057
L72434 34094
L72396 34113
" />
<path d="M72865 34000
L72903 34000
L72940 34019
L72959 34038
L72978 34075
L72996 34150
L72996 34244
L72978 34319
L72959 34357
L72940 34375
L72903 34394
L72865 34394
L72828 34375
L72809 34357
L72790 34319
L72771 34244
L72771 34150
L72790 34075
L72809 34038
L72828 34019
L72865 34000
" />
<path d="M68577 33410
L68596 33428
L68615 33485
L68615 33522
L68596 33578
L68558 33616
L68521 33635
L68446 33653
L68390 33653
L68315 33635
L68277 33616
L68240 33578
L68221 33522
L68221 33485
L68240 33428
L68258 33410
" />
<path d="M68615 33222
L68615 33147
L68596 33110
L68577 33091
L68521 33053
L68446 33035
L68296 33035
L68258 33053
L68240 33072
L68221 33110
L68221 33185
L68240 33222
L68258 33241
L68296 33260
L68390 33260
L68427 33241
L68446 33222
L68465 33185
L68465 33110
L68446 33072
L68427 33053
L68390 33035
" />
<path d="M67278 30203
L67260 30222
L67203 30241
L67166 30241
L67110 30222
L67072 30184
L67053 30147
L67035 30072
L67035 30016
L67053 29941
L67072 29903
L67110 29866
L67166 29847
L67203 29847
L67260 29866
L67278 29884
" />
<path d="M67503 30016
L67466 29997
L67447 29978
L67428 29941
L67428 29922
L67447 29884
L67466 29866
L67503 29847
L67578 29847
L67616 29866
L67635 29884
L67653 29922
L67653 29941
L67635 29978
L67616 29997
L67578 30016
L67503 30016
L67466 30034
L67447 30053
L67428 30091
L67428 30166
L67447 30203
L67466 30222
L67503 30241
L67578 30241
L67616 30222
L67635 30203
L67653 30166
L67653 30091
L67635 30053
L67616 30034
L67578 30016
" />
<path d="M67934 25703
L67915 25722
L67859 25741
L67821 25741
L67765 25722
L67728 25684
L67709 25647
L67690 25572
L67690 25516
L67709 25441
L67728 25403
L67765 25366
L67821 25347
L67859 25347
L67915 25366
L67934 25384
" />
<path d="M68065 25347
L68328 25347
L68159 25741
" />
<path d="M67453 28315
L67472 28334
L67491 28390
L67491 28428
L67472 28484
L67434 28521
L67397 28540
L67322 28559
L67266 28559
L67191 28540
L67153 28521
L67116 28484
L67097 28428
L67097 28390
L67116 28334
L67134 28315
" />
<path d="M67097 27978
L67097 28053
L67116 28090
L67134 28109
L67191 28146
L67266 28165
L67416 28165
L67453 28146
L67472 28128
L67491 28090
L67491 28015
L67472 27978
L67453 27959
L67416 27940
L67322 27940
L67284 27959
L67266 27978
L67247 28015
L67247 28090
L67266 28128
L67284 28146
L67322 28165
" />
<path d="M66703 28315
L66722 28334
L66741 28390
L66741 28428
L66722 28484
L66684 28521
L66647 28540
L66572 28559
L66516 28559
L66441 28540
L66403 28521
L66366 28484
L66347 28428
L66347 28390
L66366 28334
L66384 28315
" />
<path d="M66347 27959
L66347 28146
L66534 28165
L66516 28146
L66497 28109
L66497 28015
L66516 27978
L66534 27959
L66572 27940
L66666 27940
L66703 27959
L66722 27978
L66741 28015
L66741 28109
L66722 28146
L66703 28165
" />
<path d="M68953 26020
L68972 26039
L68991 26095
L68991 26132
L68972 26189
L68934 26226
L68897 26245
L68822 26264
L68766 26264
L68691 26245
L68653 26226
L68616 26189
L68597 26132
L68597 26095
L68616 26039
L68634 26020
" />
<path d="M68728 25682
L68991 25682
" />
<path d="M68578 25776
L68859 25870
L68859 25626
" />
<path d="M64077 28315
L64096 28334
L64115 28390
L64115 28428
L64096 28484
L64058 28521
L64021 28540
L63946 28559
L63890 28559
L63815 28540
L63777 28521
L63740 28484
L63721 28428
L63721 28390
L63740 28334
L63758 28315
" />
<path d="M63721 28184
L63721 27940
L63871 28071
L63871 28015
L63890 27978
L63908 27959
L63946 27940
L64040 27940
L64077 27959
L64096 27978
L64115 28015
L64115 28128
L64096 28165
L64077 28184
" />
<path d="M64827 28315
L64846 28334
L64865 28390
L64865 28428
L64846 28484
L64808 28521
L64771 28540
L64696 28559
L64640 28559
L64565 28540
L64527 28521
L64490 28484
L64471 28428
L64471 28390
L64490 28334
L64508 28315
" />
<path d="M64508 28165
L64490 28146
L64471 28109
L64471 28015
L64490 27978
L64508 27959
L64546 27940
L64583 27940
L64640 27959
L64865 28184
L64865 27940
" />
<path d="M60577 34315
L60596 34334
L60615 34390
L60615 34428
L60596 34484
L60558 34521
L60521 34540
L60446 34559
L60390 34559
L60315 34540
L60277 34521
L60240 34484
L60221 34428
L60221 34390
L60240 34334
L60258 34315
" />
<path d="M60615 33940
L60615 34165
" />
<path d="M60615 34053
L60221 34053
L60277 34090
L60315 34128
L60333 34165
" />
</g>
<g style="fill:#000000; fill-opacity:0.0; 
stroke:#000000; stroke-width:120; stroke-opacity:1; 
stroke-linecap:round; stroke-linejoin:round;">
<path d="M82521 35999
L81921 35999
L81921 35771
L81950 35714
L81978 35685
L82035 35657
L82121 35657
L82178 35685
L82207 35714
L82235 35771
L82235 35999
" />
<path d="M81921 35142
L81921 35257
L81950 35314
L81978 35342
L82064 35399
L82178 35428
L82407 35428
L82464 35399
L82492 35371
L82521 35314
L82521 35199
L82492 35142
L82464 35114
L82407 35085
L82264 35085
L82207 35114
L82178 35142
L82150 35199
L82150 35314
L82178 35371
L82207 35399
L82264 35428
" />
<path d="M82521 32499
L81921 32499
L81921 32271
L81950 32214
L81978 32185
L82035 32157
L82121 32157
L82178 32185
L82207 32214
L82235 32271
L82235 32499
" />
<path d="M81921 31614
L81921 31899
L82207 31928
L82178 31899
L82150 31842
L82150 31699
L82178 31642
L82207 31614
L82264 31585
L82407 31585
L82464 31614
L82492 31642
L82521 31699
L82521 31842
L82492 31899
L82464 31928
" />
<path d="M82521 28999
L81921 28999
L81921 28771
L81950 28714
L81978 28685
L82035 28657
L82121 28657
L82178 28685
L82207 28714
L82235 28771
L82235 28999
" />
<path d="M82121 28142
L82521 28142
" />
<path d="M81892 28285
L82321 28428
L82321 28057
" />
<path d="M55271 36249
L54671 36249
L54671 36021
L54700 35964
L54728 35935
L54785 35907
L54871 35907
L54928 35935
L54957 35964
L54985 36021
L54985 36249
" />
<path d="M54671 35707
L54671 35335
L54900 35535
L54900 35449
L54928 35392
L54957 35364
L55014 35335
L55157 35335
L55214 35364
L55242 35392
L55271 35449
L55271 35621
L55242 35678
L55214 35707
" />
<path d="M62271 36249
L61671 36249
L61671 36021
L61700 35964
L61728 35935
L61785 35907
L61871 35907
L61928 35935
L61957 35964
L61985 36021
L61985 36249
" />
<path d="M61728 35678
L61700 35649
L61671 35592
L61671 35449
L61700 35392
L61728 35364
L61785 35335
L61842 35335
L61928 35364
L62271 35707
L62271 35335
" />
<path d="M74106 26600
L74106 26885
L73506 26885
" />
<path d="M74106 26085
L74106 26428
" />
<path d="M74106 26257
L73506 26257
L73592 26314
L73649 26371
L73677 26428
" />
<path d="M77893 27228
L77865 27200
L77836 27142
L77836 27000
L77865 26942
L77893 26914
L77950 26885
L78007 26885
L78093 26914
L78436 27257
L78436 26885
" />
<path d="M77893 26657
L77865 26628
L77836 26571
L77836 26428
L77865 26371
L77893 26342
L77950 26314
L78007 26314
L78093 26342
L78436 26685
L78436 26314
" />
<path d="M78036 25800
L78436 25800
" />
<path d="M78036 26057
L78350 26057
L78407 26028
L78436 25971
L78436 25885
L78407 25828
L78379 25800
" />
</g>
<g style="fill:#000000; fill-opacity:0.0; 
stroke:#000000; stroke-width:59.0551; stroke-opacity:1; 
stroke-linecap:round; stroke-linejoin:round;">
<path d="M78639 31971
L78507 31783
" />
<path d="M78414 31971
L78414 31577
L78564 31577
L78601 31596
L78620 31615
L78639 31652
L78639 31708
L78620 31746
L78601 31765
L78564 31783
L78414 31783
" />
<path d="M78826 31971
L78901 31971
L78939 31952
L78957 31933
L78995 31877
L79014 31802
L79014 31652
L78995 31615
L78976 31596
L78939 31577
L78864 31577
L78826 31596
L78807 31615
L78789 31652
L78789 31746
L78807 31783
L78826 31802
L78864 31821
L78939 31821
L78976 31802
L78995 31783
L79014 31746
" />
<path d="M78542 38971
L78410 38783
" />
<path d="M78317 38971
L78317 38577
L78467 38577
L78504 38596
L78523 38615
L78542 38652
L78542 38708
L78523 38746
L78504 38765
L78467 38783
L78317 38783
" />
<path d="M78917 38971
L78692 38971
" />
<path d="M78804 38971
L78804 38577
L78767 38633
L78729 38671
L78692 38690
" />
<path d="M79160 38577
L79198 38577
L79235 38596
L79254 38615
L79273 38652
L79292 38727
L79292 38821
L79273 38896
L79254 38933
L79235 38952
L79198 38971
L79160 38971
L79123 38952
L79104 38933
L79085 38896
L79067 38821
L79067 38727
L79085 38652
L79104 38615
L79123 38596
L79160 38577
" />
<g >
</g>
</g> 
</svg>
